<mxfile host="Electron" modified="2024-07-14T14:08:59.007Z" agent="Mozilla/5.0 (Windows NT 10.0; Win64; x64) AppleWebKit/537.36 (KHTML, like Gecko) draw.io/24.4.0 Chrome/120.0.6099.109 Electron/28.1.0 Safari/537.36" etag="D-0xJMBY1T_QXeJTwBDC" version="24.4.0" type="device" pages="7">
  <diagram name="Qwen2ForCausalLM" id="Xocmo1GTDhJldhrwX7fn">
    <mxGraphModel dx="2256" dy="847" grid="1" gridSize="10" guides="1" tooltips="1" connect="1" arrows="1" fold="1" page="1" pageScale="1" pageWidth="827" pageHeight="1169" math="0" shadow="0">
      <root>
        <mxCell id="0" />
        <mxCell id="1" parent="0" />
        <mxCell id="2s4duHK5_aBaOOSKxH2z-2" value="" style="edgeStyle=orthogonalEdgeStyle;rounded=0;orthogonalLoop=1;jettySize=auto;html=1;" parent="1" source="99pheJJXQ3v6wpKgO-tc-1" target="2s4duHK5_aBaOOSKxH2z-1" edge="1">
          <mxGeometry relative="1" as="geometry" />
        </mxCell>
        <mxCell id="99pheJJXQ3v6wpKgO-tc-1" value="&lt;div style=&quot;color: #cccccc;background-color: #1f1f1f;font-family: Consolas, &#39;Courier New&#39;, monospace;font-weight: normal;font-size: 14px;line-height: 19px;white-space: pre;&quot;&gt;&lt;div&gt;&lt;span style=&quot;color: #4ec9b0;&quot;&gt;Qwen2ForCausalLM&lt;/span&gt;&lt;/div&gt;&lt;/div&gt;" style="rounded=1;whiteSpace=wrap;html=1;" parent="1" vertex="1">
          <mxGeometry x="80" y="340" width="190" height="60" as="geometry" />
        </mxCell>
        <mxCell id="2s4duHK5_aBaOOSKxH2z-5" value="" style="edgeStyle=orthogonalEdgeStyle;rounded=0;orthogonalLoop=1;jettySize=auto;html=1;" parent="1" source="2s4duHK5_aBaOOSKxH2z-1" target="2s4duHK5_aBaOOSKxH2z-4" edge="1">
          <mxGeometry relative="1" as="geometry" />
        </mxCell>
        <mxCell id="jeqmyTSVvLrxiPv-z6_8-2" value="" style="edgeStyle=orthogonalEdgeStyle;rounded=0;orthogonalLoop=1;jettySize=auto;html=1;" parent="1" source="2s4duHK5_aBaOOSKxH2z-1" target="jeqmyTSVvLrxiPv-z6_8-1" edge="1">
          <mxGeometry relative="1" as="geometry" />
        </mxCell>
        <mxCell id="8kxF2Y4J8yXagrgSKKWh-2" value="" style="edgeStyle=orthogonalEdgeStyle;rounded=0;orthogonalLoop=1;jettySize=auto;html=1;" edge="1" parent="1" source="2s4duHK5_aBaOOSKxH2z-1" target="8kxF2Y4J8yXagrgSKKWh-1">
          <mxGeometry relative="1" as="geometry" />
        </mxCell>
        <mxCell id="2s4duHK5_aBaOOSKxH2z-1" value="&lt;div style=&quot;color: rgb(204, 204, 204); background-color: rgb(31, 31, 31); font-family: Consolas, &amp;quot;Courier New&amp;quot;, monospace; font-size: 14px; line-height: 19px; white-space: pre;&quot;&gt;&lt;span style=&quot;color: #569cd6;&quot;&gt;self&lt;/span&gt;.model&lt;/div&gt;" style="whiteSpace=wrap;html=1;rounded=1;" parent="1" vertex="1">
          <mxGeometry x="115" y="490" width="120" height="60" as="geometry" />
        </mxCell>
        <mxCell id="2s4duHK5_aBaOOSKxH2z-7" value="" style="edgeStyle=orthogonalEdgeStyle;rounded=0;orthogonalLoop=1;jettySize=auto;html=1;" parent="1" source="2s4duHK5_aBaOOSKxH2z-4" target="2s4duHK5_aBaOOSKxH2z-6" edge="1">
          <mxGeometry relative="1" as="geometry" />
        </mxCell>
        <mxCell id="2s4duHK5_aBaOOSKxH2z-4" value="&lt;div style=&quot;color: rgb(204, 204, 204); background-color: rgb(31, 31, 31); font-family: Consolas, &amp;quot;Courier New&amp;quot;, monospace; font-size: 14px; line-height: 19px; white-space: pre;&quot;&gt;self.lm_head&lt;/div&gt;" style="whiteSpace=wrap;html=1;rounded=1;" parent="1" vertex="1">
          <mxGeometry x="115" y="630" width="120" height="60" as="geometry" />
        </mxCell>
        <mxCell id="2s4duHK5_aBaOOSKxH2z-6" value="&lt;div style=&quot;color: #cccccc;background-color: #1f1f1f;font-family: Consolas, &#39;Courier New&#39;, monospace;font-weight: normal;font-size: 14px;line-height: 19px;white-space: pre;&quot;&gt;&lt;div&gt;&lt;span style=&quot;color: #cccccc;&quot;&gt;nn.Linear(config.hidden_size, config.vocab_size, &lt;/span&gt;&lt;span style=&quot;color: #9cdcfe;&quot;&gt;bias&lt;/span&gt;&lt;span style=&quot;color: #d4d4d4;&quot;&gt;=&lt;/span&gt;&lt;span style=&quot;color: #569cd6;&quot;&gt;False&lt;/span&gt;&lt;span style=&quot;color: #cccccc;&quot;&gt;)&lt;/span&gt;&lt;/div&gt;&lt;/div&gt;" style="whiteSpace=wrap;html=1;rounded=1;" parent="1" vertex="1">
          <mxGeometry x="300" y="635" width="490" height="50" as="geometry" />
        </mxCell>
        <mxCell id="jeqmyTSVvLrxiPv-z6_8-1" value="Qwen2Model" style="whiteSpace=wrap;html=1;rounded=1;" parent="1" vertex="1">
          <mxGeometry x="320" y="490" width="120" height="60" as="geometry" />
        </mxCell>
        <mxCell id="8kxF2Y4J8yXagrgSKKWh-1" value="&lt;div style=&quot;color: rgb(204, 204, 204); background-color: rgb(31, 31, 31); font-family: Consolas, &amp;quot;Courier New&amp;quot;, monospace; font-size: 14px; line-height: 19px; white-space: pre;&quot;&gt;Qwen2MoeModel&lt;/div&gt;" style="whiteSpace=wrap;html=1;rounded=1;" vertex="1" parent="1">
          <mxGeometry x="-160" y="490" width="120" height="60" as="geometry" />
        </mxCell>
        <mxCell id="EKOY6VP9S30R4YIw_Ly2-1" value="If MOE" style="text;html=1;align=center;verticalAlign=middle;whiteSpace=wrap;rounded=0;" vertex="1" parent="1">
          <mxGeometry x="10" y="490" width="60" height="30" as="geometry" />
        </mxCell>
        <mxCell id="EKOY6VP9S30R4YIw_Ly2-3" style="edgeStyle=orthogonalEdgeStyle;rounded=0;orthogonalLoop=1;jettySize=auto;html=1;exitX=0.5;exitY=1;exitDx=0;exitDy=0;entryX=0.5;entryY=0;entryDx=0;entryDy=0;" edge="1" parent="1" source="EKOY6VP9S30R4YIw_Ly2-2" target="2s4duHK5_aBaOOSKxH2z-1">
          <mxGeometry relative="1" as="geometry" />
        </mxCell>
        <mxCell id="EKOY6VP9S30R4YIw_Ly2-2" value="&lt;div style=&quot;color: #cccccc;background-color: #1f1f1f;font-family: Consolas, &#39;Courier New&#39;, monospace;font-weight: normal;font-size: 14px;line-height: 19px;white-space: pre;&quot;&gt;&lt;div&gt;&lt;span style=&quot;color: #4ec9b0;&quot;&gt;Qwen2MoeForCausalLM&lt;/span&gt;&lt;/div&gt;&lt;/div&gt;" style="rounded=1;whiteSpace=wrap;html=1;" vertex="1" parent="1">
          <mxGeometry x="-185" y="340" width="170" height="60" as="geometry" />
        </mxCell>
        <mxCell id="EKOY6VP9S30R4YIw_Ly2-4" value="If MOE" style="text;html=1;align=center;verticalAlign=middle;whiteSpace=wrap;rounded=0;" vertex="1" parent="1">
          <mxGeometry x="10" y="410" width="60" height="30" as="geometry" />
        </mxCell>
      </root>
    </mxGraphModel>
  </diagram>
  <diagram id="33UrWAlM0tWz51hiVLCh" name="Qwen2Model">
    <mxGraphModel dx="1429" dy="847" grid="1" gridSize="10" guides="1" tooltips="1" connect="1" arrows="1" fold="1" page="1" pageScale="1" pageWidth="827" pageHeight="1169" math="0" shadow="0">
      <root>
        <mxCell id="0" />
        <mxCell id="1" parent="0" />
        <mxCell id="E4hcvh83THn71POOrRPs-1" style="edgeStyle=orthogonalEdgeStyle;rounded=0;orthogonalLoop=1;jettySize=auto;html=1;exitX=0.5;exitY=1;exitDx=0;exitDy=0;entryX=0.5;entryY=0;entryDx=0;entryDy=0;" parent="1" source="4Zut642sAXZ76P0Amnql-1" target="4Zut642sAXZ76P0Amnql-6" edge="1">
          <mxGeometry relative="1" as="geometry" />
        </mxCell>
        <mxCell id="4Zut642sAXZ76P0Amnql-1" value="&lt;div style=&quot;color: #cccccc;background-color: #1f1f1f;font-family: Consolas, &#39;Courier New&#39;, monospace;font-weight: normal;font-size: 14px;line-height: 19px;white-space: pre;&quot;&gt;&lt;div&gt;&lt;span style=&quot;color: #cccccc;&quot;&gt;Qwen2Model&lt;/span&gt;&lt;/div&gt;&lt;/div&gt;" style="whiteSpace=wrap;html=1;rounded=1;" parent="1" vertex="1">
          <mxGeometry x="575" y="270" width="120" height="60" as="geometry" />
        </mxCell>
        <mxCell id="4Zut642sAXZ76P0Amnql-3" style="edgeStyle=orthogonalEdgeStyle;rounded=0;orthogonalLoop=1;jettySize=auto;html=1;exitX=0.5;exitY=1;exitDx=0;exitDy=0;entryX=0.5;entryY=0;entryDx=0;entryDy=0;" parent="1" source="4Zut642sAXZ76P0Amnql-4" target="4Zut642sAXZ76P0Amnql-7" edge="1">
          <mxGeometry relative="1" as="geometry" />
        </mxCell>
        <mxCell id="4Zut642sAXZ76P0Amnql-4" value="&lt;div style=&quot;color: rgb(204, 204, 204); background-color: rgb(31, 31, 31); font-family: Consolas, &amp;quot;Courier New&amp;quot;, monospace; font-size: 14px; line-height: 19px; white-space: pre;&quot;&gt;Qwen2DecoderLayer&lt;/div&gt;" style="rounded=1;whiteSpace=wrap;html=1;" parent="1" vertex="1">
          <mxGeometry x="496.25" y="550" width="277.5" height="30" as="geometry" />
        </mxCell>
        <mxCell id="4Zut642sAXZ76P0Amnql-5" style="edgeStyle=orthogonalEdgeStyle;rounded=0;orthogonalLoop=1;jettySize=auto;html=1;exitX=0.5;exitY=1;exitDx=0;exitDy=0;entryX=0.5;entryY=0;entryDx=0;entryDy=0;" parent="1" source="4Zut642sAXZ76P0Amnql-6" target="4Zut642sAXZ76P0Amnql-9" edge="1">
          <mxGeometry relative="1" as="geometry" />
        </mxCell>
        <mxCell id="E4hcvh83THn71POOrRPs-3" value="" style="edgeStyle=orthogonalEdgeStyle;rounded=0;orthogonalLoop=1;jettySize=auto;html=1;" parent="1" source="4Zut642sAXZ76P0Amnql-6" target="E4hcvh83THn71POOrRPs-2" edge="1">
          <mxGeometry relative="1" as="geometry" />
        </mxCell>
        <mxCell id="4Zut642sAXZ76P0Amnql-6" value="&lt;div style=&quot;color: #cccccc;background-color: #1f1f1f;font-family: Consolas, &#39;Courier New&#39;, monospace;font-weight: normal;font-size: 14px;line-height: 19px;white-space: pre;&quot;&gt;&lt;div&gt;&lt;span style=&quot;color: #cccccc;&quot;&gt;nn.Embedding&lt;/span&gt;&lt;/div&gt;&lt;/div&gt;" style="rounded=1;whiteSpace=wrap;html=1;" parent="1" vertex="1">
          <mxGeometry x="575" y="370" width="120" height="30" as="geometry" />
        </mxCell>
        <mxCell id="UMtz4stIDztkhrGtDoMJ-2" value="" style="edgeStyle=orthogonalEdgeStyle;rounded=0;orthogonalLoop=1;jettySize=auto;html=1;" parent="1" source="4Zut642sAXZ76P0Amnql-7" target="UMtz4stIDztkhrGtDoMJ-1" edge="1">
          <mxGeometry relative="1" as="geometry" />
        </mxCell>
        <mxCell id="4Zut642sAXZ76P0Amnql-7" value="&lt;div style=&quot;color: rgb(204, 204, 204); background-color: rgb(31, 31, 31); font-family: Consolas, &amp;quot;Courier New&amp;quot;, monospace; font-size: 14px; line-height: 19px; white-space: pre;&quot;&gt;Qwen2RMSNorm&lt;/div&gt;" style="rounded=1;whiteSpace=wrap;html=1;" parent="1" vertex="1">
          <mxGeometry x="575" y="670" width="120" height="50" as="geometry" />
        </mxCell>
        <mxCell id="4Zut642sAXZ76P0Amnql-8" style="edgeStyle=orthogonalEdgeStyle;rounded=0;orthogonalLoop=1;jettySize=auto;html=1;exitX=0.5;exitY=1;exitDx=0;exitDy=0;entryX=0.5;entryY=0;entryDx=0;entryDy=0;" parent="1" source="4Zut642sAXZ76P0Amnql-9" target="4Zut642sAXZ76P0Amnql-4" edge="1">
          <mxGeometry relative="1" as="geometry" />
        </mxCell>
        <mxCell id="gRw732VRGzQtzVOG6eOK-2" style="edgeStyle=orthogonalEdgeStyle;rounded=0;orthogonalLoop=1;jettySize=auto;html=1;exitX=0.5;exitY=1;exitDx=0;exitDy=0;entryX=0.5;entryY=0;entryDx=0;entryDy=0;" edge="1" parent="1" source="4Zut642sAXZ76P0Amnql-9" target="gRw732VRGzQtzVOG6eOK-1">
          <mxGeometry relative="1" as="geometry" />
        </mxCell>
        <mxCell id="4Zut642sAXZ76P0Amnql-9" value="&lt;div style=&quot;color: #cccccc;background-color: #1f1f1f;font-family: Consolas, &#39;Courier New&#39;, monospace;font-weight: normal;font-size: 14px;line-height: 19px;white-space: pre;&quot;&gt;创建casual_mask&lt;/div&gt;" style="rounded=1;whiteSpace=wrap;html=1;" parent="1" vertex="1">
          <mxGeometry x="500" y="440" width="270" height="40" as="geometry" />
        </mxCell>
        <mxCell id="E4hcvh83THn71POOrRPs-2" value="&lt;div style=&quot;color: rgb(204, 204, 204); background-color: rgb(31, 31, 31); font-family: Consolas, &amp;quot;Courier New&amp;quot;, monospace; font-size: 14px; line-height: 19px; white-space: pre;&quot;&gt;nn.Embedding(config.vocab_size, config.hidden_size, &lt;span style=&quot;color: #569cd6;&quot;&gt;self&lt;/span&gt;.padding_idx)&lt;/div&gt;" style="whiteSpace=wrap;html=1;rounded=1;" parent="1" vertex="1">
          <mxGeometry x="760" y="367.5" width="575" height="35" as="geometry" />
        </mxCell>
        <mxCell id="UMtz4stIDztkhrGtDoMJ-1" value="&lt;img alt=&quot;&quot; src=&quot;data:image/png;base64,iVBORw0KGgoAAAANSUhEUgAAAKkAAABRCAYAAACpFIZbAAAKzUlEQVR4Ae2dZ6sUPRSA/Sc2EBVRPyiKVwWxK4oNxN4LdsTeC/ZesPfeK1bsvf2nvDyBLNl9d0rmZmaze8+HYeZmMknu5JmTc05Osq1at26t5JB3EDIDrUJunLRNPh4YEEhlJAl+JBVIBVKBVIZsGbKby4BIUpGkIkmb+xXJ8yKJRZI2kCQdPHiwGjlyZPCS0VXwCKQNAGlTU5M6ePCg+vHjhzp9+rRA6voVSP78hutr166p79+/q9+/f+vj379/AqkAlx9wWd7twIED9fDesWNHdf/+fSWQNsCwmAWEenlGIBVAg9fzBFKBVCCtIQNi3dfw5ftUJUSSNkhH+oQitLIEUoFUhvsaMiDDfQ1fvk9pLJK0QTrSJxShlSWQCqQy3NeQARnua/jyfUpjkaQN0pE+oQipLAJMnj17pqdFmc/v0aNH8JLf5f2JJK3jD5CIJ+bro44tW7Y0BKwCaR1D6iKN6jmvQCqQBi9tBVKBVCCt52FG2h5G/KxIUpGkLVOS4gIhajyNJOratasaMGBAqrxpyrPzELHOwjTbJUN9w4cPV9yz88p1GFKzWj94laTt2rVTx44dU1++fFE/f/7Uvru+ffuWYBg3bpx68+aNOnv2rE4DoPfv3+sFZAsXLizlq9ZQlzTasW/fPt2Or1+/6rbQrk2bNqnPnz+rb9++6XonTpzorU6X9kletw/CK6Tr16/XYCIZAfHXr19q+fLlJRD27NmjfXonT57UaTNmzFBAhJ/Pp09v9+7d6vbt26pnz566HgD9+/ev+vDhg5oyZYq6dOmS+vPnjzLtEGjcoCn6fXmDtEuXLurOnTsaSuB4/vy5Xsk4a9YsDQrS7d69e3pV48qVK0vgbty4Uach5eL+eZ7v37+/4hyXb8KECfpD4WzyHT58WH8IOL9HjRqlPn36pCGlbpMn6kydohrUFmJvkKKDHj9+XDG8z507Vw/hgGqkGXogkgxAAMVAMXr0aPX27VtlYDbp9pkP4ObNm1oaIiH5275vX0+fPl3t37+/dL/ax4E0XbBgQSLwJ06c0DC/ePFC/192PXJdHLjeILU7zUzXMbyb9MWLF2vd8PHjx2WQTZ48WUu+OEOrd+/e6uXLl1oacuZvU27SOerjSHqO+4wMqCKVH1bUs1HTky0lPeq9NDfdO6RI0levXpUN9TSyUh81Dd+6dau6ePFiInRISIInXA2sqI/D1B93Rsqjv6JrJ6kZceXIveZJXe+QIhmxnl+/fq11SNNBSCV22rD1UTqe9HXr1iVCaspJOhu3k/EqGH3UNpJQFzCuhgwZ4q3epHbJ/eygeocUXQ/304MHD0rSBxj5m3Qkm+kwdEOGf59+0iNHjmjdldA1QKX8yo8DnRl92We95n/yfR46dKiaNGlSXRy+/3dTnndIkU74PjGSjIG0ZMkSbUjh9jEWNU51jCGGe9MYH2eCf6kHo4d6keq4wowEZ+c5APVdr4+2VysDvzIGaT0c1drvI807pDRq9erV2v+JwYEEfffunVqzZo2GA2n66NEj7dTHf+lb18Pfiu+VOky9Dx8+1E582sLHs3nzZu/1+uiMyjJQSzC6KtNb2t+5QMpLNLohxoc9LYkVT5rRGfN44ZSNFEdaUz4fwrBhw8rS8qjXd5nLli1TBw4cEEh9v1gpL7uBUPnunj592uIB5Z3kJkkrX7j87QZv+/btgxrqGRkxepl0KXoGTiANNFRv/vz5Ov6g2sd9+fJlDTAGKi68agc6OcE0eDbQa22jtVqZcWnMGmI/zJs3T/u0MTzzVNcq2yKQBgop4EW5yEjHD41hmhTJhdRjMoK8xE5kMVSBk+dxLzKDh0Hq07ddCWXl3wJpoJAmWfXGrZc2rgDXG14OfK6VECT9DegYnpzHjh2rIbX93UnPN/e+QBogpEwBMwmR1LlMXDCMEyuRRkLiGkyKNourkzpOnTqljzT1xZXlck8gDRDSK1euqDlz5iRCiosNtcCerHDpfNe827Zt05MkYjgFCI1rZzY3f9JQb5ePTvrx40d9JOmn9nP2NbATpI7OygzXoUOHNPxEnHFNXvRRIEWCEsjuGuhj1+d6LZI0sI9i/PjxOr7WpSOZ8kWaIlXNBIbL80ePHi1NG6M6MCsHlBhLlMmyH9L4eDiY0SPNpY7m5BVIA4P0zJkzelrZpVORbsCFfrp3714neJgN3L59e2lW8MaNG3oqu3PnzmrFihXamndpSx55BdLAIHUZ6m0gmG5meN6xY4cTpHYZLJXBtUV4o51e62uBNCBIcfPw04tZoEAaEvmVxeoGcJzzzCYxxBv3Ej5R4iyytMfnMwJpQJBipGCcuHYwPlM8Aln0Ufym6JisemD1BMvRARPYMabSeBlc2+uaXyANCFKG+j59+jhBikXP4sSo2akkINj7ADXh/PnzGlSCxc+dO6evTexvUhl53xdIA4GU4dZVHwVMAE3reuKXnDds2PC/jwAJzIwU0pOD6yxSOS9YBdJAIEWnBKK0HQ1EDPEM9WmewVJngSR6Zpr8IeURSHOGNO1cOX5OJFgaOJB2GEmAHZcfgwg4WZGAewr3Ulz+UO8JpDlCCqAM4XGbWQBG9+7dnYZ63EwmBI/y0xxAWmTkkk/gBdKcIB00aJCeqgQgVsXGddqqVau0Mz4uT0u+J5DmACmS89atW2rRokVaytnb/lSDDQf6mDFjYkG2n0sjOYvKY7crr2uBNAdIp02bph3j/fr105AStBHVgUQUMXRH3Zd0WeOUOxwstUCqRe2WMnv2bHX9+vVc2oFzHkc9HwFn24hjiTlpHERRsZ1QqB+ESNIcJKnd2WYPLKCw0801akGSzmryZjmz7RGSHO8B65TsMphZIsqpyPVKdv1prwXSnCEFEiQpu7VUdkqHDh0yz9VXlhX1NxY9OjESHVjtmSnm6Imeino2lHSBNGdIzS4kgNqtW7cyIJgpunr1almabzCQnsDIBm0M+7ZvlcmDenBLCaQ5Qwp0BG8A6cyZM8uAZKc/got9g2nKI1aUbTVx6rOjC4HLSFSWKDMhwL0ig5dNu1zPAmkBkK5du1ZDyqZjpoOABKOlbdu2pTRzz9cZAAGRuijzwoULWjdl+QfTo/XyY7kCaQGQjhgxQkNKrKYBkD3902webPJnOTOU79q1q1Sn2SYe/RgVoNKQog7UEz4m1BCzK2KWun0+I5AWACkdxu8CMOSbAA90RDYk89mZlWUZfdSkI1EBFAnOLihR+ijGHmv0Q7H6BdKCIGWxG5ASo9mmTRu9BU7SnL6BK8sZfZTh3HwUpgyGetxRgBqlj7J3a16+W9MOl7NAWhCkbFUDpEQksQsIgcUuHeWad+rUqRpSo4+a583PFxHcbG/J2dTUpN1RDPMEQYe0ybBAWhCkRNwDKcfOnTtL64gMPL7OzGyx9Q7uJg58o0Tf2+Wjatj+UWJT7969q5c1sxjvyZMnsT9ZZJdVxLVAWhCkdCazO0AKRL169SoDp4jOjqoDI4o24apCH2VHPmCNyl90ukBaIKRslQ6k7KdUdEfH1cf+UOxeQh6jjy5durRMHYh7Pu97AmmBkOJ2AtI8HfhZgMGAQsoDKGum+HGMLKtWs9Sd5hmBtEBIO3XqpCENaag3kBAyaH5pkJUClQaXyVeLs0BaIKS16OBGqFMgFUiD0o+rfVQCqUAqkFb7MiTN7ZdIWvr7EkkqkjR4SfofsyVpjP25Rd4AAAAASUVORK5CYII=&quot;&gt;" style="whiteSpace=wrap;html=1;rounded=1;arcSize=18;" parent="1" vertex="1">
          <mxGeometry x="303.25" y="640" width="193" height="110" as="geometry" />
        </mxCell>
        <mxCell id="gRw732VRGzQtzVOG6eOK-5" style="edgeStyle=orthogonalEdgeStyle;rounded=0;orthogonalLoop=1;jettySize=auto;html=1;exitX=0.5;exitY=1;exitDx=0;exitDy=0;entryX=0.5;entryY=0;entryDx=0;entryDy=0;" edge="1" parent="1" source="gRw732VRGzQtzVOG6eOK-1" target="4Zut642sAXZ76P0Amnql-7">
          <mxGeometry relative="1" as="geometry">
            <Array as="points">
              <mxPoint x="325" y="620" />
              <mxPoint x="635" y="620" />
            </Array>
          </mxGeometry>
        </mxCell>
        <mxCell id="gRw732VRGzQtzVOG6eOK-1" value="&lt;div style=&quot;color: rgb(204, 204, 204); background-color: rgb(31, 31, 31); font-family: Consolas, &amp;quot;Courier New&amp;quot;, monospace; font-size: 14px; line-height: 19px; white-space: pre;&quot;&gt;Qwen2MoeDecoderLayer&lt;/div&gt;" style="rounded=1;whiteSpace=wrap;html=1;" vertex="1" parent="1">
          <mxGeometry x="220" y="535" width="210" height="60" as="geometry" />
        </mxCell>
        <mxCell id="gRw732VRGzQtzVOG6eOK-4" value="If MOE" style="text;html=1;align=center;verticalAlign=middle;whiteSpace=wrap;rounded=0;" vertex="1" parent="1">
          <mxGeometry x="384" y="480" width="60" height="30" as="geometry" />
        </mxCell>
      </root>
    </mxGraphModel>
  </diagram>
  <diagram id="lIA48ncAlfHuqHZ88s7T" name="Qwen2DecoderLayer">
    <mxGraphModel dx="1429" dy="847" grid="1" gridSize="10" guides="1" tooltips="1" connect="1" arrows="1" fold="1" page="1" pageScale="1" pageWidth="827" pageHeight="1169" math="0" shadow="0">
      <root>
        <mxCell id="0" />
        <mxCell id="1" parent="0" />
        <mxCell id="DtdO-cXnCE6hYMeUUGWl-3" value="" style="edgeStyle=orthogonalEdgeStyle;rounded=0;orthogonalLoop=1;jettySize=auto;html=1;" parent="1" source="DtdO-cXnCE6hYMeUUGWl-1" target="DtdO-cXnCE6hYMeUUGWl-2" edge="1">
          <mxGeometry relative="1" as="geometry" />
        </mxCell>
        <mxCell id="A4IlnRZy4s1y0bcvGEPj-3" style="edgeStyle=orthogonalEdgeStyle;rounded=0;orthogonalLoop=1;jettySize=auto;html=1;entryX=0;entryY=0.5;entryDx=0;entryDy=0;" parent="1" target="A4IlnRZy4s1y0bcvGEPj-2" edge="1">
          <mxGeometry relative="1" as="geometry">
            <mxPoint x="395" y="330" as="sourcePoint" />
            <Array as="points">
              <mxPoint x="210" y="330" />
              <mxPoint x="210" y="610" />
            </Array>
          </mxGeometry>
        </mxCell>
        <mxCell id="DtdO-cXnCE6hYMeUUGWl-1" value="Qwen2DecoderLayer" style="rounded=1;whiteSpace=wrap;html=1;" parent="1" vertex="1">
          <mxGeometry x="310" y="240" width="170" height="60" as="geometry" />
        </mxCell>
        <mxCell id="DtdO-cXnCE6hYMeUUGWl-5" value="" style="edgeStyle=orthogonalEdgeStyle;rounded=0;orthogonalLoop=1;jettySize=auto;html=1;" parent="1" source="DtdO-cXnCE6hYMeUUGWl-2" target="DtdO-cXnCE6hYMeUUGWl-4" edge="1">
          <mxGeometry relative="1" as="geometry" />
        </mxCell>
        <mxCell id="DtdO-cXnCE6hYMeUUGWl-2" value="&lt;div style=&quot;color: rgb(204, 204, 204); background-color: rgb(31, 31, 31); font-family: Consolas, &amp;quot;Courier New&amp;quot;, monospace; font-size: 14px; line-height: 19px; white-space: pre;&quot;&gt;&lt;div style=&quot;line-height: 19px;&quot;&gt;Qwen2RMSNorm&lt;/div&gt;&lt;/div&gt;" style="whiteSpace=wrap;html=1;rounded=1;" parent="1" vertex="1">
          <mxGeometry x="297.5" y="360" width="195" height="60" as="geometry" />
        </mxCell>
        <mxCell id="A4IlnRZy4s1y0bcvGEPj-4" style="edgeStyle=orthogonalEdgeStyle;rounded=0;orthogonalLoop=1;jettySize=auto;html=1;exitX=0.5;exitY=1;exitDx=0;exitDy=0;entryX=0.5;entryY=0;entryDx=0;entryDy=0;" parent="1" source="DtdO-cXnCE6hYMeUUGWl-4" target="A4IlnRZy4s1y0bcvGEPj-2" edge="1">
          <mxGeometry relative="1" as="geometry" />
        </mxCell>
        <mxCell id="DtdO-cXnCE6hYMeUUGWl-4" value="&lt;div style=&quot;color: rgb(204, 204, 204); background-color: rgb(31, 31, 31); font-family: Consolas, &amp;quot;Courier New&amp;quot;, monospace; font-size: 14px; line-height: 19px; white-space: pre;&quot;&gt;&lt;div style=&quot;line-height: 19px;&quot;&gt;QWEN2_ATTENTION_CLASSES&lt;/div&gt;&lt;/div&gt;" style="whiteSpace=wrap;html=1;rounded=1;" parent="1" vertex="1">
          <mxGeometry x="282.5" y="480" width="225" height="60" as="geometry" />
        </mxCell>
        <mxCell id="pbriLpcWtPoncQ3SO26p-4" value="" style="edgeStyle=orthogonalEdgeStyle;rounded=0;orthogonalLoop=1;jettySize=auto;html=1;" parent="1" source="pbriLpcWtPoncQ3SO26p-1" target="pbriLpcWtPoncQ3SO26p-3" edge="1">
          <mxGeometry relative="1" as="geometry" />
        </mxCell>
        <mxCell id="A4IlnRZy4s1y0bcvGEPj-6" style="edgeStyle=orthogonalEdgeStyle;rounded=0;orthogonalLoop=1;jettySize=auto;html=1;entryX=0;entryY=0.5;entryDx=0;entryDy=0;" parent="1" target="pbriLpcWtPoncQ3SO26p-5" edge="1">
          <mxGeometry relative="1" as="geometry">
            <mxPoint x="395" y="650" as="sourcePoint" />
            <Array as="points">
              <mxPoint x="210" y="650" />
              <mxPoint x="210" y="940" />
            </Array>
          </mxGeometry>
        </mxCell>
        <mxCell id="pbriLpcWtPoncQ3SO26p-1" value="&lt;div style=&quot;color: rgb(204, 204, 204); background-color: rgb(31, 31, 31); font-family: Consolas, &amp;quot;Courier New&amp;quot;, monospace; font-size: 14px; line-height: 19px; white-space: pre;&quot;&gt;&lt;div style=&quot;line-height: 19px;&quot;&gt;Qwen2RMSNorm&lt;/div&gt;&lt;/div&gt;" style="whiteSpace=wrap;html=1;rounded=1;" parent="1" vertex="1">
          <mxGeometry x="272.5" y="680" width="245" height="60" as="geometry" />
        </mxCell>
        <mxCell id="pbriLpcWtPoncQ3SO26p-7" style="edgeStyle=orthogonalEdgeStyle;rounded=0;orthogonalLoop=1;jettySize=auto;html=1;exitX=0.5;exitY=1;exitDx=0;exitDy=0;entryX=0.5;entryY=0;entryDx=0;entryDy=0;" parent="1" source="pbriLpcWtPoncQ3SO26p-3" target="pbriLpcWtPoncQ3SO26p-5" edge="1">
          <mxGeometry relative="1" as="geometry" />
        </mxCell>
        <mxCell id="9Zk64G0KnQaEMQZBYpg4-2" value="" style="edgeStyle=orthogonalEdgeStyle;rounded=0;orthogonalLoop=1;jettySize=auto;html=1;" parent="1" source="pbriLpcWtPoncQ3SO26p-3" target="9Zk64G0KnQaEMQZBYpg4-1" edge="1">
          <mxGeometry relative="1" as="geometry" />
        </mxCell>
        <mxCell id="pbriLpcWtPoncQ3SO26p-3" value="&lt;div style=&quot;color: rgb(204, 204, 204); background-color: rgb(31, 31, 31); font-family: Consolas, &amp;quot;Courier New&amp;quot;, monospace; font-size: 14px; line-height: 19px; white-space: pre;&quot;&gt;&lt;div style=&quot;line-height: 19px;&quot;&gt;Qwen2MLP&lt;/div&gt;&lt;/div&gt;" style="whiteSpace=wrap;html=1;rounded=1;" parent="1" vertex="1">
          <mxGeometry x="335" y="800" width="120" height="60" as="geometry" />
        </mxCell>
        <mxCell id="pbriLpcWtPoncQ3SO26p-5" value="&lt;b&gt;&lt;font style=&quot;font-size: 18px;&quot;&gt;+&lt;/font&gt;&lt;/b&gt;" style="ellipse;whiteSpace=wrap;html=1;aspect=fixed;" parent="1" vertex="1">
          <mxGeometry x="375" y="920" width="40" height="40" as="geometry" />
        </mxCell>
        <mxCell id="XLf75jhlJ9x2mWvqAo5u-1" value="" style="shape=curlyBracket;whiteSpace=wrap;html=1;rounded=1;labelPosition=left;verticalLabelPosition=middle;align=right;verticalAlign=middle;" parent="1" vertex="1">
          <mxGeometry x="530" y="450" width="20" height="120" as="geometry" />
        </mxCell>
        <mxCell id="42RhEcV9l-MeRky51ZMy-2" value="&lt;div style=&quot;color: #cccccc;background-color: #1f1f1f;font-family: Consolas, &#39;Courier New&#39;, monospace;font-weight: normal;font-size: 14px;line-height: 19px;white-space: pre;&quot;&gt;&lt;div&gt;&lt;span style=&quot;color: #cccccc;&quot;&gt;Qwen2Attention&lt;/span&gt;&lt;/div&gt;&lt;/div&gt;" style="text;whiteSpace=wrap;html=1;" parent="1" vertex="1">
          <mxGeometry x="560" y="440" width="140" height="40" as="geometry" />
        </mxCell>
        <mxCell id="42RhEcV9l-MeRky51ZMy-3" value="&lt;div style=&quot;color: #cccccc;background-color: #1f1f1f;font-family: Consolas, &#39;Courier New&#39;, monospace;font-weight: normal;font-size: 14px;line-height: 19px;white-space: pre;&quot;&gt;&lt;div&gt;&lt;span style=&quot;color: #cccccc;&quot;&gt;Qwen2FlashAttention2&lt;/span&gt;&lt;/div&gt;&lt;/div&gt;" style="text;whiteSpace=wrap;html=1;" parent="1" vertex="1">
          <mxGeometry x="560" y="490" width="190" height="40" as="geometry" />
        </mxCell>
        <mxCell id="42RhEcV9l-MeRky51ZMy-4" value="&lt;div style=&quot;color: #cccccc;background-color: #1f1f1f;font-family: Consolas, &#39;Courier New&#39;, monospace;font-weight: normal;font-size: 14px;line-height: 19px;white-space: pre;&quot;&gt;&lt;div&gt;&lt;span style=&quot;color: #cccccc;&quot;&gt;Qwen2SdpaAttention&lt;/span&gt;&lt;/div&gt;&lt;/div&gt;" style="text;whiteSpace=wrap;html=1;" parent="1" vertex="1">
          <mxGeometry x="560" y="540" width="170" height="40" as="geometry" />
        </mxCell>
        <mxCell id="A4IlnRZy4s1y0bcvGEPj-5" style="edgeStyle=orthogonalEdgeStyle;rounded=0;orthogonalLoop=1;jettySize=auto;html=1;exitX=0.5;exitY=1;exitDx=0;exitDy=0;entryX=0.5;entryY=0;entryDx=0;entryDy=0;" parent="1" source="A4IlnRZy4s1y0bcvGEPj-2" target="pbriLpcWtPoncQ3SO26p-1" edge="1">
          <mxGeometry relative="1" as="geometry" />
        </mxCell>
        <mxCell id="A4IlnRZy4s1y0bcvGEPj-2" value="&lt;b&gt;&lt;font style=&quot;font-size: 18px;&quot;&gt;+&lt;/font&gt;&lt;/b&gt;" style="ellipse;whiteSpace=wrap;html=1;aspect=fixed;" parent="1" vertex="1">
          <mxGeometry x="375" y="590" width="40" height="40" as="geometry" />
        </mxCell>
        <mxCell id="9Zk64G0KnQaEMQZBYpg4-1" value="&lt;div style=&quot;color: rgb(204, 204, 204); background-color: rgb(31, 31, 31); font-family: Consolas, &amp;quot;Courier New&amp;quot;, monospace; font-size: 14px; line-height: 19px; white-space: pre;&quot;&gt;&lt;div&gt;&lt;span style=&quot;color: #569cd6;&quot;&gt;class&lt;/span&gt; &lt;span style=&quot;color: #4ec9b0;&quot;&gt;Qwen2MLP&lt;/span&gt;(&lt;span style=&quot;color: #4ec9b0;&quot;&gt;nn&lt;/span&gt;.&lt;span style=&quot;color: #4ec9b0;&quot;&gt;Module&lt;/span&gt;):&lt;/div&gt;&lt;div&gt;&amp;nbsp; &amp;nbsp; &lt;span style=&quot;color: #569cd6;&quot;&gt;def&lt;/span&gt; &lt;span style=&quot;color: #dcdcaa;&quot;&gt;__init__&lt;/span&gt;(&lt;span style=&quot;color: #9cdcfe;&quot;&gt;self&lt;/span&gt;, &lt;span style=&quot;color: #9cdcfe;&quot;&gt;config&lt;/span&gt;):&lt;/div&gt;&lt;div&gt;&amp;nbsp; &amp;nbsp; &amp;nbsp; &amp;nbsp; &lt;span style=&quot;color: #4ec9b0;&quot;&gt;super&lt;/span&gt;().&lt;span style=&quot;color: #dcdcaa;&quot;&gt;__init__&lt;/span&gt;()&lt;/div&gt;&lt;div&gt;&amp;nbsp; &amp;nbsp; &amp;nbsp; &amp;nbsp; &lt;span style=&quot;color: #569cd6;&quot;&gt;self&lt;/span&gt;.hidden_size &lt;span style=&quot;color: #d4d4d4;&quot;&gt;=&lt;/span&gt; config.hidden_size&lt;/div&gt;&lt;div&gt;&amp;nbsp; &amp;nbsp; &amp;nbsp; &amp;nbsp; &lt;span style=&quot;color: #569cd6;&quot;&gt;self&lt;/span&gt;.intermediate_size &lt;span style=&quot;color: #d4d4d4;&quot;&gt;=&lt;/span&gt; config.intermediate_size&lt;/div&gt;&lt;div&gt;&amp;nbsp; &amp;nbsp; &amp;nbsp; &amp;nbsp; &lt;span style=&quot;color: #569cd6;&quot;&gt;self&lt;/span&gt;.gate_proj &lt;span style=&quot;color: #d4d4d4;&quot;&gt;=&lt;/span&gt; nn.Linear(&lt;span style=&quot;color: #569cd6;&quot;&gt;self&lt;/span&gt;.hidden_size, &lt;span style=&quot;color: #569cd6;&quot;&gt;self&lt;/span&gt;.intermediate_size, &lt;span style=&quot;color: #9cdcfe;&quot;&gt;bias&lt;/span&gt;&lt;span style=&quot;color: #d4d4d4;&quot;&gt;=&lt;/span&gt;&lt;span style=&quot;color: #569cd6;&quot;&gt;False&lt;/span&gt;)&lt;/div&gt;&lt;div&gt;&amp;nbsp; &amp;nbsp; &amp;nbsp; &amp;nbsp; &lt;span style=&quot;color: #569cd6;&quot;&gt;self&lt;/span&gt;.up_proj &lt;span style=&quot;color: #d4d4d4;&quot;&gt;=&lt;/span&gt; nn.Linear(&lt;span style=&quot;color: #569cd6;&quot;&gt;self&lt;/span&gt;.hidden_size, &lt;span style=&quot;color: #569cd6;&quot;&gt;self&lt;/span&gt;.intermediate_size, &lt;span style=&quot;color: #9cdcfe;&quot;&gt;bias&lt;/span&gt;&lt;span style=&quot;color: #d4d4d4;&quot;&gt;=&lt;/span&gt;&lt;span style=&quot;color: #569cd6;&quot;&gt;False&lt;/span&gt;)&lt;/div&gt;&lt;div&gt;&amp;nbsp; &amp;nbsp; &amp;nbsp; &amp;nbsp; &lt;span style=&quot;color: #569cd6;&quot;&gt;self&lt;/span&gt;.down_proj &lt;span style=&quot;color: #d4d4d4;&quot;&gt;=&lt;/span&gt; nn.Linear(&lt;span style=&quot;color: #569cd6;&quot;&gt;self&lt;/span&gt;.intermediate_size, &lt;span style=&quot;color: #569cd6;&quot;&gt;self&lt;/span&gt;.hidden_size, &lt;span style=&quot;color: #9cdcfe;&quot;&gt;bias&lt;/span&gt;&lt;span style=&quot;color: #d4d4d4;&quot;&gt;=&lt;/span&gt;&lt;span style=&quot;color: #569cd6;&quot;&gt;False&lt;/span&gt;)&lt;/div&gt;&lt;div&gt;&amp;nbsp; &amp;nbsp; &amp;nbsp; &amp;nbsp; &lt;span style=&quot;color: #569cd6;&quot;&gt;self&lt;/span&gt;.act_fn &lt;span style=&quot;color: #d4d4d4;&quot;&gt;=&lt;/span&gt; ACT2FN[config.hidden_act]&lt;/div&gt;&lt;br&gt;&lt;div&gt;&amp;nbsp; &amp;nbsp; &lt;span style=&quot;color: #569cd6;&quot;&gt;def&lt;/span&gt; &lt;span style=&quot;color: #dcdcaa;&quot;&gt;forward&lt;/span&gt;(&lt;span style=&quot;color: #9cdcfe;&quot;&gt;self&lt;/span&gt;, &lt;span style=&quot;color: #9cdcfe;&quot;&gt;hidden_state&lt;/span&gt;):&lt;/div&gt;&lt;div&gt;&amp;nbsp; &amp;nbsp; &amp;nbsp; &amp;nbsp; &lt;span style=&quot;color: #c586c0;&quot;&gt;return&lt;/span&gt; &lt;span style=&quot;color: #569cd6;&quot;&gt;self&lt;/span&gt;.down_proj(&lt;span style=&quot;color: #569cd6;&quot;&gt;self&lt;/span&gt;.act_fn(&lt;span style=&quot;color: #569cd6;&quot;&gt;self&lt;/span&gt;.gate_proj(hidden_state)) &lt;span style=&quot;color: #d4d4d4;&quot;&gt;*&lt;/span&gt; &lt;span style=&quot;color: #569cd6;&quot;&gt;self&lt;/span&gt;.up_proj(hidden_state))&lt;/div&gt;&lt;/div&gt;" style="whiteSpace=wrap;html=1;rounded=1;align=left;arcSize=0;" parent="1" vertex="1">
          <mxGeometry x="580" y="707.5" width="785" height="245" as="geometry" />
        </mxCell>
      </root>
    </mxGraphModel>
  </diagram>
  <diagram id="s779JacUH7SO2OP_kI0l" name="Qwen2Attention">
    <mxGraphModel dx="2188" dy="807" grid="1" gridSize="10" guides="1" tooltips="1" connect="1" arrows="1" fold="1" page="1" pageScale="1" pageWidth="827" pageHeight="1169" math="0" shadow="0">
      <root>
        <mxCell id="0" />
        <mxCell id="1" parent="0" />
        <mxCell id="92AbUkF3ZVIsmzGJefcR-6" style="edgeStyle=orthogonalEdgeStyle;rounded=0;orthogonalLoop=1;jettySize=auto;html=1;exitX=0.5;exitY=1;exitDx=0;exitDy=0;entryX=0.5;entryY=0;entryDx=0;entryDy=0;" parent="1" source="_MOHlcyIBByg2r9xRgfW-1" target="92AbUkF3ZVIsmzGJefcR-3" edge="1">
          <mxGeometry relative="1" as="geometry" />
        </mxCell>
        <mxCell id="_MOHlcyIBByg2r9xRgfW-1" value="&lt;span style=&quot;color: rgb(204, 204, 204); font-family: Consolas, &amp;quot;Courier New&amp;quot;, monospace; font-size: 14px; text-align: left; white-space: pre; background-color: rgb(31, 31, 31);&quot;&gt;Qwen2Attention&lt;/span&gt;" style="rounded=1;whiteSpace=wrap;html=1;" parent="1" vertex="1">
          <mxGeometry x="20" y="260" width="120" height="60" as="geometry" />
        </mxCell>
        <mxCell id="_T2Y7shcLVtHoD7QnvxY-11" style="edgeStyle=orthogonalEdgeStyle;rounded=0;orthogonalLoop=1;jettySize=auto;html=1;exitX=0.5;exitY=1;exitDx=0;exitDy=0;" parent="1" source="LUtMrNa7FKKF459Qurpv-1" edge="1">
          <mxGeometry relative="1" as="geometry">
            <mxPoint x="170" y="350" as="targetPoint" />
            <Array as="points">
              <mxPoint x="570" y="330" />
              <mxPoint x="171" y="330" />
            </Array>
          </mxGeometry>
        </mxCell>
        <mxCell id="LUtMrNa7FKKF459Qurpv-1" value="&lt;span style=&quot;color: rgb(204, 204, 204); font-family: Consolas, &amp;quot;Courier New&amp;quot;, monospace; font-size: 14px; text-align: left; white-space: pre; background-color: rgb(31, 31, 31);&quot;&gt;Qwen2FlashAttention2&lt;/span&gt;" style="rounded=1;whiteSpace=wrap;html=1;" parent="1" vertex="1">
          <mxGeometry x="480" y="260" width="180" height="60" as="geometry" />
        </mxCell>
        <mxCell id="_T2Y7shcLVtHoD7QnvxY-12" style="edgeStyle=orthogonalEdgeStyle;rounded=0;orthogonalLoop=1;jettySize=auto;html=1;exitX=0.5;exitY=1;exitDx=0;exitDy=0;" parent="1" source="92AbUkF3ZVIsmzGJefcR-1" edge="1">
          <mxGeometry relative="1" as="geometry">
            <mxPoint x="220" y="380" as="targetPoint" />
          </mxGeometry>
        </mxCell>
        <mxCell id="92AbUkF3ZVIsmzGJefcR-1" value="&lt;span style=&quot;color: rgb(204, 204, 204); font-family: Consolas, &amp;quot;Courier New&amp;quot;, monospace; font-size: 14px; text-align: left; white-space: pre; background-color: rgb(31, 31, 31);&quot;&gt;Qwen2SdpaAttention&lt;/span&gt;" style="rounded=1;whiteSpace=wrap;html=1;" parent="1" vertex="1">
          <mxGeometry x="950" y="260" width="180" height="60" as="geometry" />
        </mxCell>
        <mxCell id="92AbUkF3ZVIsmzGJefcR-2" value="&lt;div style=&quot;color: rgb(204, 204, 204); background-color: rgb(31, 31, 31); font-family: Consolas, &amp;quot;Courier New&amp;quot;, monospace; font-size: 14px; line-height: 19px; white-space: pre;&quot;&gt;&lt;span style=&quot;color: #569cd6;&quot;&gt;self&lt;/span&gt;.v_proj&lt;/div&gt;" style="rounded=1;whiteSpace=wrap;html=1;" parent="1" vertex="1">
          <mxGeometry x="190" y="390" width="120" height="60" as="geometry" />
        </mxCell>
        <mxCell id="92AbUkF3ZVIsmzGJefcR-12" style="edgeStyle=orthogonalEdgeStyle;rounded=0;orthogonalLoop=1;jettySize=auto;html=1;exitX=0.5;exitY=1;exitDx=0;exitDy=0;entryX=0.5;entryY=0;entryDx=0;entryDy=0;" parent="1" source="92AbUkF3ZVIsmzGJefcR-3" target="92AbUkF3ZVIsmzGJefcR-10" edge="1">
          <mxGeometry relative="1" as="geometry" />
        </mxCell>
        <mxCell id="92AbUkF3ZVIsmzGJefcR-3" value="&lt;div style=&quot;color: rgb(204, 204, 204); background-color: rgb(31, 31, 31); font-family: Consolas, &amp;quot;Courier New&amp;quot;, monospace; font-size: 14px; line-height: 19px; white-space: pre;&quot;&gt;&lt;span style=&quot;color: #569cd6;&quot;&gt;self&lt;/span&gt;.k_proj&lt;/div&gt;" style="rounded=1;whiteSpace=wrap;html=1;" parent="1" vertex="1">
          <mxGeometry x="20" y="390" width="120" height="60" as="geometry" />
        </mxCell>
        <mxCell id="92AbUkF3ZVIsmzGJefcR-9" value="" style="edgeStyle=orthogonalEdgeStyle;rounded=0;orthogonalLoop=1;jettySize=auto;html=1;" parent="1" source="92AbUkF3ZVIsmzGJefcR-4" target="92AbUkF3ZVIsmzGJefcR-8" edge="1">
          <mxGeometry relative="1" as="geometry" />
        </mxCell>
        <mxCell id="92AbUkF3ZVIsmzGJefcR-4" value="&lt;div style=&quot;color: rgb(204, 204, 204); background-color: rgb(31, 31, 31); font-family: Consolas, &amp;quot;Courier New&amp;quot;, monospace; font-size: 14px; line-height: 19px; white-space: pre;&quot;&gt;&lt;span style=&quot;color: #569cd6;&quot;&gt;self&lt;/span&gt;.q_proj&lt;/div&gt;" style="rounded=1;whiteSpace=wrap;html=1;" parent="1" vertex="1">
          <mxGeometry x="-150" y="390" width="120" height="60" as="geometry" />
        </mxCell>
        <mxCell id="92AbUkF3ZVIsmzGJefcR-5" value="" style="endArrow=classic;html=1;rounded=0;exitX=0.25;exitY=1;exitDx=0;exitDy=0;entryX=0.5;entryY=0;entryDx=0;entryDy=0;" parent="1" source="_MOHlcyIBByg2r9xRgfW-1" target="92AbUkF3ZVIsmzGJefcR-4" edge="1">
          <mxGeometry width="50" height="50" relative="1" as="geometry">
            <mxPoint x="390" y="460" as="sourcePoint" />
            <mxPoint x="440" y="410" as="targetPoint" />
          </mxGeometry>
        </mxCell>
        <mxCell id="92AbUkF3ZVIsmzGJefcR-7" value="" style="endArrow=classic;html=1;rounded=0;exitX=0.75;exitY=1;exitDx=0;exitDy=0;entryX=0.5;entryY=0;entryDx=0;entryDy=0;" parent="1" source="_MOHlcyIBByg2r9xRgfW-1" target="92AbUkF3ZVIsmzGJefcR-2" edge="1">
          <mxGeometry width="50" height="50" relative="1" as="geometry">
            <mxPoint x="390" y="460" as="sourcePoint" />
            <mxPoint x="440" y="410" as="targetPoint" />
          </mxGeometry>
        </mxCell>
        <mxCell id="92AbUkF3ZVIsmzGJefcR-8" value="&lt;div style=&quot;color: rgb(204, 204, 204); background-color: rgb(31, 31, 31); font-family: Consolas, &amp;quot;Courier New&amp;quot;, monospace; font-size: 14px; line-height: 19px; white-space: pre;&quot;&gt;nn.Linear(&lt;span style=&quot;color: #569cd6;&quot;&gt;self&lt;/span&gt;.hidden_size, &lt;span style=&quot;color: #569cd6;&quot;&gt;self&lt;/span&gt;.num_heads &lt;span style=&quot;color: #d4d4d4;&quot;&gt;*&lt;/span&gt; &lt;span style=&quot;color: #569cd6;&quot;&gt;self&lt;/span&gt;.head_dim, &lt;span style=&quot;color: #9cdcfe;&quot;&gt;bias&lt;/span&gt;&lt;span style=&quot;color: #d4d4d4;&quot;&gt;=&lt;/span&gt;&lt;span style=&quot;color: #569cd6;&quot;&gt;True&lt;/span&gt;)&lt;/div&gt;" style="whiteSpace=wrap;html=1;rounded=1;" parent="1" vertex="1">
          <mxGeometry x="-790" y="390" width="560" height="60" as="geometry" />
        </mxCell>
        <mxCell id="92AbUkF3ZVIsmzGJefcR-15" value="" style="edgeStyle=orthogonalEdgeStyle;rounded=0;orthogonalLoop=1;jettySize=auto;html=1;" parent="1" source="92AbUkF3ZVIsmzGJefcR-10" target="92AbUkF3ZVIsmzGJefcR-14" edge="1">
          <mxGeometry relative="1" as="geometry" />
        </mxCell>
        <mxCell id="92AbUkF3ZVIsmzGJefcR-10" value="view&lt;div&gt;[BHSD]&lt;/div&gt;" style="rounded=1;whiteSpace=wrap;html=1;" parent="1" vertex="1">
          <mxGeometry x="20" y="524.5" width="120" height="60" as="geometry" />
        </mxCell>
        <mxCell id="92AbUkF3ZVIsmzGJefcR-11" value="" style="endArrow=classic;html=1;rounded=0;exitX=0.5;exitY=1;exitDx=0;exitDy=0;entryX=0.25;entryY=0;entryDx=0;entryDy=0;" parent="1" source="92AbUkF3ZVIsmzGJefcR-4" target="92AbUkF3ZVIsmzGJefcR-10" edge="1">
          <mxGeometry width="50" height="50" relative="1" as="geometry">
            <mxPoint x="160" y="460" as="sourcePoint" />
            <mxPoint x="210" y="410" as="targetPoint" />
          </mxGeometry>
        </mxCell>
        <mxCell id="92AbUkF3ZVIsmzGJefcR-13" value="" style="endArrow=classic;html=1;rounded=0;exitX=0.5;exitY=1;exitDx=0;exitDy=0;entryX=0.75;entryY=0;entryDx=0;entryDy=0;" parent="1" source="92AbUkF3ZVIsmzGJefcR-2" target="92AbUkF3ZVIsmzGJefcR-10" edge="1">
          <mxGeometry width="50" height="50" relative="1" as="geometry">
            <mxPoint x="160" y="460" as="sourcePoint" />
            <mxPoint x="210" y="410" as="targetPoint" />
          </mxGeometry>
        </mxCell>
        <mxCell id="92AbUkF3ZVIsmzGJefcR-17" value="" style="edgeStyle=orthogonalEdgeStyle;rounded=0;orthogonalLoop=1;jettySize=auto;html=1;" parent="1" source="92AbUkF3ZVIsmzGJefcR-14" target="92AbUkF3ZVIsmzGJefcR-16" edge="1">
          <mxGeometry relative="1" as="geometry" />
        </mxCell>
        <mxCell id="92AbUkF3ZVIsmzGJefcR-14" value="&lt;div style=&quot;color: rgb(204, 204, 204); background-color: rgb(31, 31, 31); font-family: Consolas, &amp;quot;Courier New&amp;quot;, monospace; font-size: 14px; line-height: 19px; white-space: pre;&quot;&gt;Qwen2RotaryEmbedding&lt;/div&gt;" style="whiteSpace=wrap;html=1;rounded=1;" parent="1" vertex="1">
          <mxGeometry y="640" width="160" height="60" as="geometry" />
        </mxCell>
        <mxCell id="92AbUkF3ZVIsmzGJefcR-20" value="" style="edgeStyle=orthogonalEdgeStyle;rounded=0;orthogonalLoop=1;jettySize=auto;html=1;" parent="1" source="92AbUkF3ZVIsmzGJefcR-16" target="92AbUkF3ZVIsmzGJefcR-19" edge="1">
          <mxGeometry relative="1" as="geometry" />
        </mxCell>
        <mxCell id="92AbUkF3ZVIsmzGJefcR-21" style="edgeStyle=orthogonalEdgeStyle;rounded=0;orthogonalLoop=1;jettySize=auto;html=1;exitX=0;exitY=0.5;exitDx=0;exitDy=0;entryX=0.5;entryY=0;entryDx=0;entryDy=0;" parent="1" source="92AbUkF3ZVIsmzGJefcR-16" target="92AbUkF3ZVIsmzGJefcR-18" edge="1">
          <mxGeometry relative="1" as="geometry" />
        </mxCell>
        <mxCell id="92AbUkF3ZVIsmzGJefcR-16" value="&lt;div style=&quot;color: rgb(204, 204, 204); background-color: rgb(31, 31, 31); font-family: Consolas, &amp;quot;Courier New&amp;quot;, monospace; font-size: 14px; line-height: 19px; white-space: pre;&quot;&gt;apply_rotary_pos_emb&lt;/div&gt;" style="whiteSpace=wrap;html=1;rounded=1;" parent="1" vertex="1">
          <mxGeometry x="-5" y="760" width="170" height="60" as="geometry" />
        </mxCell>
        <mxCell id="_T2Y7shcLVtHoD7QnvxY-3" style="edgeStyle=orthogonalEdgeStyle;rounded=0;orthogonalLoop=1;jettySize=auto;html=1;exitX=0.5;exitY=1;exitDx=0;exitDy=0;entryX=0;entryY=0.5;entryDx=0;entryDy=0;" parent="1" source="92AbUkF3ZVIsmzGJefcR-18" target="_T2Y7shcLVtHoD7QnvxY-2" edge="1">
          <mxGeometry relative="1" as="geometry" />
        </mxCell>
        <mxCell id="92AbUkF3ZVIsmzGJefcR-18" value="&lt;div style=&quot;color: rgb(204, 204, 204); background-color: rgb(31, 31, 31); font-family: Consolas, &amp;quot;Courier New&amp;quot;, monospace; font-size: 14px; line-height: 19px; white-space: pre;&quot;&gt;repeat_kv&lt;/div&gt;" style="rounded=1;whiteSpace=wrap;html=1;" parent="1" vertex="1">
          <mxGeometry x="-190" y="900" width="120" height="60" as="geometry" />
        </mxCell>
        <mxCell id="_T2Y7shcLVtHoD7QnvxY-4" style="edgeStyle=orthogonalEdgeStyle;rounded=0;orthogonalLoop=1;jettySize=auto;html=1;exitX=0.5;exitY=1;exitDx=0;exitDy=0;entryX=0.5;entryY=0;entryDx=0;entryDy=0;" parent="1" source="92AbUkF3ZVIsmzGJefcR-19" target="_T2Y7shcLVtHoD7QnvxY-2" edge="1">
          <mxGeometry relative="1" as="geometry" />
        </mxCell>
        <mxCell id="92AbUkF3ZVIsmzGJefcR-19" value="update_kvcache" style="whiteSpace=wrap;html=1;rounded=1;" parent="1" vertex="1">
          <mxGeometry x="20" y="900" width="120" height="60" as="geometry" />
        </mxCell>
        <mxCell id="92AbUkF3ZVIsmzGJefcR-22" value="If use GQA or MQA or MLA" style="text;html=1;align=center;verticalAlign=middle;whiteSpace=wrap;rounded=0;" parent="1" vertex="1">
          <mxGeometry x="-180" y="760" width="150" height="30" as="geometry" />
        </mxCell>
        <mxCell id="AyK_OW_HOxDYAUbQlzVR-13" style="edgeStyle=orthogonalEdgeStyle;rounded=0;orthogonalLoop=1;jettySize=auto;html=1;exitX=0.5;exitY=1;exitDx=0;exitDy=0;entryX=0.5;entryY=0;entryDx=0;entryDy=0;" parent="1" source="92AbUkF3ZVIsmzGJefcR-23" target="AyK_OW_HOxDYAUbQlzVR-12" edge="1">
          <mxGeometry relative="1" as="geometry" />
        </mxCell>
        <mxCell id="92AbUkF3ZVIsmzGJefcR-23" value="&lt;img alt=&quot;&quot; src=&quot;data:image/png;base64,iVBORw0KGgoAAAANSUhEUgAAAEoAAABFCAYAAADthnCkAAAGM0lEQVR4Ae2bWUscQRCA808EXxSJPoiBPEhExDMYUEK8QBAFRR8UE0k8UCSHgiJoUEFCVFAUT7wTUXN4H/+pw9dQyzjs0bs7szuaeRhmdo7u6m+qqqunap+kpKQof4vM4IkPKTIkGPmgDC3KB+WDMjMpU9fja5SvUb5GJSWceVCm19zcrE5OTtTfv3/V9fW1+vbtW8KgPShQFRUV6uPHj+rHjx/q9vZW9fX1+aBCzUYvXrzQoM7OzlRtba0PKhSohoYGdX5+rg4ODlRubq4PKhSowcFBdXd3p75//54wSMjiqI/KyclRJSUlKjU1VQ8iPT1dZWVlOTqghYUF7Z8GBgbutVtQUKDoPxTgeM87Aqq+vl79/PlTz0bHx8fah/T09OgZykmHC4zDw0Ntepggg3/9+rXa3t5W9MuM2NjY6AqsuEF9+PBBCz49Pa3QILSJY8zDaYdr90/83tjYULyopaUlrWn9/f3eA1VXV6dh8JaLiooCAjY1NamLiwsjh8ssBmAT0xgaGtIvAPNraWlRq6urqrCwUIPipVxdXan29najtkz6s94Ts0Y9ffpULS8va8HHxsbuCYf/IM5hQNbO7Mdfv35VNzc3am9vz2gGoz00dWtrS2tSfn6+bh8tJhhFs8Q/2vuK93fMoMQMmKrFX4gwzEiAsjtcuS57Af37929VXl4eFqrET4Ci7V+/fqnJyUmVl5cX9jnpK959zKDwBQhNlMwgRJDnz5+r/f39ew5Xrtn3r1690tN8d3d3RE2QF0P8hLmNjo7qZQx9iWbZ23fyd9yg8BNWgYiW8RdOB4T2+AkTW1tbU5eXl6qtrU3LwAxr126rbPEcxwwKoTABZjirAMPDw0b+yfqMybE9fiJmIiwQ0ydKX19fd21ZEzMofApxy+bmpsKxM9iOjg4925n4JxM4co+YszXcoE/65ksCJoz5Li4uBmSRZ53axwwKAbq6urSZ7ezsaL/E7IXg8padEhIQtIsGPXv2LKDBBLX0Rf+YelVVVeCaU31LO3GBohGWKGgXUbP4J7uDl85i3eOPWBoFW6Jwjv6dXirZZY0blLVB0/jJ+sxDOXYUlASEzFAPBYCpnHGDwqlOTEwEpmocOT5jZmZG4YRNBfH6fY6Awqnzida6cU5mQ69DMJEvblAmnTyGe3xQfgLUT4AmZYKI2fT4cuDVzQ2fGDMoN4Txcps+KN+ZP3JnziK3rKwsqi0RJusp08vMzNR5u/n5eRXN9t+Bevv2rRofH0/K9B8Jtqc0io9v1kRFJOETed0zoEhozs7OelKbeCGeAcWnmZcvX0YEhbMn88On4dPTU2WSE3RC8zwBitT87u5uREgMmE++79+/V3Nzc3plYE1uOAEkVBueAIWGVFdXG4GSgUgdgj1dJted3icdFGU7R0dHUUEi2bCysqIzxZ2dnVE9GyvApIOi/qC1tTWqwUqd1J8/fxQFsLEOPprnkgqKfB3O2ERgfFNpaakuESKFTiqdPF+wFJZJe9He4xook8IJwgGyy+GEBibFYmSJMVHASrYnUf4J+VwB9ebNGz2LhTMLQgEGHw4SBReAwTwlQ/z582ddU0VdFdV+4Z538prjoAgcWafxUY9CsVDCUtv07t27kNcBSV0mMAkfpB3Mj5qHRPon+nYUFKt+6qZwtvL1k1S4DFL2xcXFesYKVx0ndaCYmTzHPhn+iX4dBWUd0MjIiIZFwZf1PMcsfAka7eflt2hNMPNKdPwkMrkGiuJX0Spr+SDHnE9LSwsJSrSGJUplZeW9+/BXwQDKgNzauwYKgUm1A+XTp0+BwX758kX19vYGfgcbmICyV+3Z4yecPdnpYG04fc5VUPgsQFFKzazFRm1CRkZG2MFR4UucZC97JAqnRFriJ/yYvSLZaUDSnqug6IRYCVhoEVukSmGeAShfE6hfR4s4x8zHbAdoABKnsSCuqakJC10GGu/edVAEjICi3JmYiM+9JkJjVoChKA0NAhqaho8iZOAvJVNTUxGriU36MrnHdVAIQREqsAgWTYSSe/hHA/EUm/y7QarvRNPkXrf3CQGFeQAqOzs7KlBuDz6a9hMCKhqBvHqvD8rPFD/yTLFveoYq7oPyQTnrC3yN8jXq/9CofyAKsDO+RcP2AAAAAElFTkSuQmCC&quot;&gt;" style="rounded=1;whiteSpace=wrap;html=1;" parent="1" vertex="1">
          <mxGeometry x="35" y="1130" width="90" height="90" as="geometry" />
        </mxCell>
        <mxCell id="AyK_OW_HOxDYAUbQlzVR-5" value="" style="edgeStyle=orthogonalEdgeStyle;rounded=0;orthogonalLoop=1;jettySize=auto;html=1;" parent="1" source="AyK_OW_HOxDYAUbQlzVR-1" target="AyK_OW_HOxDYAUbQlzVR-4" edge="1">
          <mxGeometry relative="1" as="geometry" />
        </mxCell>
        <mxCell id="5_cBUPtnC4qubm9x2W42-3" style="edgeStyle=orthogonalEdgeStyle;rounded=0;orthogonalLoop=1;jettySize=auto;html=1;exitX=0;exitY=0.5;exitDx=0;exitDy=0;entryX=0.5;entryY=0;entryDx=0;entryDy=0;" edge="1" parent="1" source="AyK_OW_HOxDYAUbQlzVR-1" target="5_cBUPtnC4qubm9x2W42-1">
          <mxGeometry relative="1" as="geometry" />
        </mxCell>
        <mxCell id="AyK_OW_HOxDYAUbQlzVR-1" value="softmax" style="whiteSpace=wrap;html=1;rounded=1;" parent="1" vertex="1">
          <mxGeometry x="40" y="1360" width="80" height="35" as="geometry" />
        </mxCell>
        <mxCell id="AyK_OW_HOxDYAUbQlzVR-7" value="" style="edgeStyle=orthogonalEdgeStyle;rounded=0;orthogonalLoop=1;jettySize=auto;html=1;" parent="1" source="AyK_OW_HOxDYAUbQlzVR-4" target="AyK_OW_HOxDYAUbQlzVR-6" edge="1">
          <mxGeometry relative="1" as="geometry" />
        </mxCell>
        <mxCell id="AyK_OW_HOxDYAUbQlzVR-4" value="MatMul" style="whiteSpace=wrap;html=1;rounded=1;" parent="1" vertex="1">
          <mxGeometry x="35" y="1440" width="90" height="37.5" as="geometry" />
        </mxCell>
        <mxCell id="AyK_OW_HOxDYAUbQlzVR-9" value="" style="edgeStyle=orthogonalEdgeStyle;rounded=0;orthogonalLoop=1;jettySize=auto;html=1;" parent="1" source="AyK_OW_HOxDYAUbQlzVR-6" target="AyK_OW_HOxDYAUbQlzVR-8" edge="1">
          <mxGeometry relative="1" as="geometry" />
        </mxCell>
        <mxCell id="AyK_OW_HOxDYAUbQlzVR-6" value="Reshape&lt;div&gt;[BSH]&lt;/div&gt;" style="whiteSpace=wrap;html=1;rounded=1;" parent="1" vertex="1">
          <mxGeometry x="20" y="1530" width="120" height="60" as="geometry" />
        </mxCell>
        <mxCell id="AyK_OW_HOxDYAUbQlzVR-11" value="" style="edgeStyle=orthogonalEdgeStyle;rounded=0;orthogonalLoop=1;jettySize=auto;html=1;" parent="1" source="AyK_OW_HOxDYAUbQlzVR-8" target="AyK_OW_HOxDYAUbQlzVR-10" edge="1">
          <mxGeometry relative="1" as="geometry" />
        </mxCell>
        <mxCell id="AyK_OW_HOxDYAUbQlzVR-8" value="&lt;div style=&quot;color: rgb(204, 204, 204); background-color: rgb(31, 31, 31); font-family: Consolas, &amp;quot;Courier New&amp;quot;, monospace; font-size: 14px; line-height: 19px; white-space: pre;&quot;&gt;&lt;span style=&quot;color: #569cd6;&quot;&gt;self&lt;/span&gt;.o_proj&lt;/div&gt;" style="whiteSpace=wrap;html=1;rounded=1;" parent="1" vertex="1">
          <mxGeometry x="30" y="1640" width="100" height="50" as="geometry" />
        </mxCell>
        <mxCell id="AyK_OW_HOxDYAUbQlzVR-10" value="&lt;div style=&quot;color: rgb(204, 204, 204); background-color: rgb(31, 31, 31); font-family: Consolas, &amp;quot;Courier New&amp;quot;, monospace; font-size: 14px; line-height: 19px; white-space: pre;&quot;&gt;nn.Linear(&lt;span style=&quot;color: #569cd6;&quot;&gt;self&lt;/span&gt;.num_heads &lt;span style=&quot;color: #d4d4d4;&quot;&gt;*&lt;/span&gt; &lt;span style=&quot;color: #569cd6;&quot;&gt;self&lt;/span&gt;.head_dim, &lt;span style=&quot;color: #569cd6;&quot;&gt;self&lt;/span&gt;.hidden_size, &lt;span style=&quot;color: #9cdcfe;&quot;&gt;bias&lt;/span&gt;&lt;span style=&quot;color: #d4d4d4;&quot;&gt;=&lt;/span&gt;&lt;span style=&quot;color: #569cd6;&quot;&gt;False&lt;/span&gt;)&lt;/div&gt;" style="whiteSpace=wrap;html=1;rounded=1;" parent="1" vertex="1">
          <mxGeometry x="-610" y="1635" width="570" height="60" as="geometry" />
        </mxCell>
        <mxCell id="AyK_OW_HOxDYAUbQlzVR-14" style="edgeStyle=orthogonalEdgeStyle;rounded=0;orthogonalLoop=1;jettySize=auto;html=1;exitX=0.5;exitY=1;exitDx=0;exitDy=0;entryX=0.5;entryY=0;entryDx=0;entryDy=0;" parent="1" source="AyK_OW_HOxDYAUbQlzVR-12" target="AyK_OW_HOxDYAUbQlzVR-1" edge="1">
          <mxGeometry relative="1" as="geometry" />
        </mxCell>
        <mxCell id="AyK_OW_HOxDYAUbQlzVR-12" value="add casual_mask" style="rounded=1;whiteSpace=wrap;html=1;" parent="1" vertex="1">
          <mxGeometry x="20" y="1279" width="120" height="30" as="geometry" />
        </mxCell>
        <mxCell id="_T2Y7shcLVtHoD7QnvxY-1" value="" style="endArrow=none;html=1;rounded=0;" parent="1" edge="1">
          <mxGeometry width="50" height="50" relative="1" as="geometry">
            <mxPoint x="390" y="1691.503662109375" as="sourcePoint" />
            <mxPoint x="390" y="150" as="targetPoint" />
          </mxGeometry>
        </mxCell>
        <mxCell id="_T2Y7shcLVtHoD7QnvxY-5" style="edgeStyle=orthogonalEdgeStyle;rounded=0;orthogonalLoop=1;jettySize=auto;html=1;exitX=0.5;exitY=1;exitDx=0;exitDy=0;entryX=0.5;entryY=0;entryDx=0;entryDy=0;" parent="1" source="_T2Y7shcLVtHoD7QnvxY-2" target="92AbUkF3ZVIsmzGJefcR-23" edge="1">
          <mxGeometry relative="1" as="geometry" />
        </mxCell>
        <mxCell id="_T2Y7shcLVtHoD7QnvxY-7" style="edgeStyle=orthogonalEdgeStyle;rounded=0;orthogonalLoop=1;jettySize=auto;html=1;exitX=1;exitY=0.5;exitDx=0;exitDy=0;entryX=0.5;entryY=0;entryDx=0;entryDy=0;" parent="1" source="_T2Y7shcLVtHoD7QnvxY-2" target="_T2Y7shcLVtHoD7QnvxY-6" edge="1">
          <mxGeometry relative="1" as="geometry" />
        </mxCell>
        <mxCell id="Aeb6Hn-1dNvGGWGqlvm_-3" style="edgeStyle=orthogonalEdgeStyle;rounded=0;orthogonalLoop=1;jettySize=auto;html=1;exitX=1;exitY=0.5;exitDx=0;exitDy=0;entryX=0.5;entryY=0;entryDx=0;entryDy=0;" parent="1" source="_T2Y7shcLVtHoD7QnvxY-2" target="Aeb6Hn-1dNvGGWGqlvm_-2" edge="1">
          <mxGeometry relative="1" as="geometry" />
        </mxCell>
        <mxCell id="_T2Y7shcLVtHoD7QnvxY-2" value="Different_Attention" style="rounded=1;whiteSpace=wrap;html=1;" parent="1" vertex="1">
          <mxGeometry x="20" y="1020" width="120" height="60" as="geometry" />
        </mxCell>
        <mxCell id="_T2Y7shcLVtHoD7QnvxY-9" style="edgeStyle=orthogonalEdgeStyle;rounded=0;orthogonalLoop=1;jettySize=auto;html=1;exitX=0.5;exitY=1;exitDx=0;exitDy=0;entryX=1;entryY=0.5;entryDx=0;entryDy=0;" parent="1" source="_T2Y7shcLVtHoD7QnvxY-6" target="AyK_OW_HOxDYAUbQlzVR-6" edge="1">
          <mxGeometry relative="1" as="geometry" />
        </mxCell>
        <mxCell id="_T2Y7shcLVtHoD7QnvxY-6" value="&lt;div style=&quot;color: rgb(204, 204, 204); background-color: rgb(31, 31, 31); font-family: Consolas, &amp;quot;Courier New&amp;quot;, monospace; font-size: 14px; line-height: 19px; white-space: pre;&quot;&gt;_flash_attention_forward&lt;/div&gt;" style="rounded=1;whiteSpace=wrap;html=1;" parent="1" vertex="1">
          <mxGeometry x="455" y="1145" width="230" height="60" as="geometry" />
        </mxCell>
        <mxCell id="Aeb6Hn-1dNvGGWGqlvm_-4" style="edgeStyle=orthogonalEdgeStyle;rounded=0;orthogonalLoop=1;jettySize=auto;html=1;exitX=0.5;exitY=1;exitDx=0;exitDy=0;entryX=1;entryY=0.5;entryDx=0;entryDy=0;" parent="1" source="Aeb6Hn-1dNvGGWGqlvm_-2" target="AyK_OW_HOxDYAUbQlzVR-6" edge="1">
          <mxGeometry relative="1" as="geometry" />
        </mxCell>
        <mxCell id="Aeb6Hn-1dNvGGWGqlvm_-2" value="&lt;span style=&quot;color: rgb(204, 204, 204); font-family: Consolas, &amp;quot;Courier New&amp;quot;, monospace; font-size: 14px; text-align: left; white-space: pre; background-color: rgb(31, 31, 31);&quot;&gt;torch.nn.functional.scaled_dot_product_attention&lt;/span&gt;" style="rounded=1;whiteSpace=wrap;html=1;" parent="1" vertex="1">
          <mxGeometry x="840" y="1145" width="400" height="60" as="geometry" />
        </mxCell>
        <mxCell id="5_cBUPtnC4qubm9x2W42-4" style="edgeStyle=orthogonalEdgeStyle;rounded=0;orthogonalLoop=1;jettySize=auto;html=1;exitX=1;exitY=0.5;exitDx=0;exitDy=0;entryX=0;entryY=0.5;entryDx=0;entryDy=0;" edge="1" parent="1" source="5_cBUPtnC4qubm9x2W42-1" target="AyK_OW_HOxDYAUbQlzVR-4">
          <mxGeometry relative="1" as="geometry" />
        </mxCell>
        <mxCell id="5_cBUPtnC4qubm9x2W42-1" value="&lt;div style=&quot;color: rgb(204, 204, 204); background-color: rgb(31, 31, 31); font-family: Consolas, &amp;quot;Courier New&amp;quot;, monospace; font-size: 14px; line-height: 19px; white-space: pre;&quot;&gt;dropout&lt;/div&gt;" style="rounded=1;whiteSpace=wrap;html=1;" vertex="1" parent="1">
          <mxGeometry x="-190" y="1428.75" width="120" height="60" as="geometry" />
        </mxCell>
        <mxCell id="5_cBUPtnC4qubm9x2W42-5" value="If MOE" style="text;html=1;align=center;verticalAlign=middle;whiteSpace=wrap;rounded=0;" vertex="1" parent="1">
          <mxGeometry x="-80" y="1350" width="60" height="30" as="geometry" />
        </mxCell>
      </root>
    </mxGraphModel>
  </diagram>
  <diagram id="P4v0A4bpNaZubVugJFWz" name="Qwen2RotaryEmbedding">
    <mxGraphModel dx="1681" dy="996" grid="1" gridSize="10" guides="1" tooltips="1" connect="1" arrows="1" fold="1" page="1" pageScale="1" pageWidth="827" pageHeight="1169" math="0" shadow="0">
      <root>
        <mxCell id="0" />
        <mxCell id="1" parent="0" />
        <mxCell id="hyoLzfUMpnOC3pVIUtC3-3" value="" style="edgeStyle=orthogonalEdgeStyle;rounded=0;orthogonalLoop=1;jettySize=auto;html=1;" parent="1" source="hyoLzfUMpnOC3pVIUtC3-1" target="hyoLzfUMpnOC3pVIUtC3-2" edge="1">
          <mxGeometry relative="1" as="geometry" />
        </mxCell>
        <mxCell id="hyoLzfUMpnOC3pVIUtC3-1" value="&lt;div style=&quot;color: #cccccc;background-color: #1f1f1f;font-family: Consolas, &#39;Courier New&#39;, monospace;font-weight: normal;font-size: 14px;line-height: 19px;white-space: pre;&quot;&gt;&lt;div&gt;&lt;span style=&quot;color: #4ec9b0;&quot;&gt;Qwen2RotaryEmbedding&lt;/span&gt;&lt;/div&gt;&lt;/div&gt;" style="rounded=1;whiteSpace=wrap;html=1;" parent="1" vertex="1">
          <mxGeometry x="280" y="250" width="190" height="50" as="geometry" />
        </mxCell>
        <mxCell id="hyoLzfUMpnOC3pVIUtC3-5" style="edgeStyle=orthogonalEdgeStyle;rounded=0;orthogonalLoop=1;jettySize=auto;html=1;exitX=1;exitY=0.5;exitDx=0;exitDy=0;entryX=0;entryY=0.5;entryDx=0;entryDy=0;" parent="1" source="hyoLzfUMpnOC3pVIUtC3-2" target="hyoLzfUMpnOC3pVIUtC3-4" edge="1">
          <mxGeometry relative="1" as="geometry" />
        </mxCell>
        <mxCell id="hyoLzfUMpnOC3pVIUtC3-7" value="" style="edgeStyle=orthogonalEdgeStyle;rounded=0;orthogonalLoop=1;jettySize=auto;html=1;" parent="1" source="hyoLzfUMpnOC3pVIUtC3-2" target="hyoLzfUMpnOC3pVIUtC3-6" edge="1">
          <mxGeometry relative="1" as="geometry" />
        </mxCell>
        <mxCell id="hyoLzfUMpnOC3pVIUtC3-2" value="&lt;div style=&quot;color: rgb(204, 204, 204); background-color: rgb(31, 31, 31); font-family: Consolas, &amp;quot;Courier New&amp;quot;, monospace; font-size: 14px; line-height: 19px; white-space: pre;&quot;&gt;&lt;span style=&quot;color: #569cd6;&quot;&gt;self&lt;/span&gt;._set_cos_sin_cache&lt;/div&gt;&lt;div style=&quot;color: rgb(204, 204, 204); background-color: rgb(31, 31, 31); font-family: Consolas, &amp;quot;Courier New&amp;quot;, monospace; font-size: 14px; line-height: 19px; white-space: pre;&quot;&gt;[Max_Postion_Embedding, dim]&lt;/div&gt;" style="whiteSpace=wrap;html=1;rounded=1;" parent="1" vertex="1">
          <mxGeometry x="258.75" y="350" width="232.5" height="60" as="geometry" />
        </mxCell>
        <mxCell id="hyoLzfUMpnOC3pVIUtC3-4" value="" style="shape=image;verticalLabelPosition=bottom;labelBackgroundColor=default;verticalAlign=top;aspect=fixed;imageAspect=0;image=data:image/png,iVBORw0KGgoAAAANSUhEUgAABnoAAACTCAYAAACpp8ftAAAgAElEQVR4Aeyda88tRbW2/SckfjLG7PDBnRAhGGMgGCLZsDWoGMBwkCAEFFHZEIUF6BJQEAQVWK6FyGEhIMhRAiyOisB/mm+u5r0fxlNPdVf3nN2zD/P+MFM9u6qrq0bdo8apqvozJ5100so/08AYMAaMAWPAGDAGjAFjwBgwBowBY8AYMAaMAWPAGDAGjAFjwBgwBoyB+WHgMx60+Q2ax8xjZgwYA8aAMWAMGAPGgDFgDBgDxoAxYAwYA8aAMWAMGAPGgDFgDBgDYMCBHu9o8o4uY8AYMAaMAWPAGDAGjAFjwBgwBowBY8AYMAaMAWPAGDAGjAFjwBiYKQYc6JnpwDlS60itMWAMGAPGgDFgDBgDxoAxYAwYA8aAMWAMGAPGgDFgDBgDxoAxYAw40ONAj6O0xoAxYAwYA8aAMWAMGAPGgDFgDBgDxoAxYAwYA8aAMWAMGAPGgDEwUww40DPTgXOU1lFaY8AYMAaMAWPAGDAGjAFjwBgwBowBY8AYMAaMAWPAGDAGjAFjwBhwoMeBHkdpjQFjwBgwBowBY8AYMAaMAWPAGDAGjAFjwBgwBowBY8AYMAaMAWNgphhwoGemA+coraO0xoAxYAwYA8aAMWAMGAPGgDFgDBgDxoAxYAwYA8aAMWAMGAPGgDHgQI8DPY7SGgPGgDFgDBgDxoAxYAwYA8aAMWAMGAPGgDFgDBgDxoAxYAwYA8bATDHgQM9MB85RWkdpjQFjwBgwBowBY8AYMAaMAWPAGDAGjAFjwBgwBowBY8AYMAaMAWPAgR4HehylNQaMAWPAGDAGjAFjwBgwBowBY8AYMAaMAWPAGDAGjAFjwBgwBoyBmWLAgZ6ZDpyjtI7SGgPGgDFgDBgDxoAxYAwYA8aAMWAMGAPGgDFgDBgDxoAxYAwYA8aAAz0O9DhKawwYA8aAMWAMGAPGgDFgDBgDxoAxYAwYA8aAMWAMGAPGgDFgDBgDM8WAAz0zHThHaR2lNQaMAWPAGDAGjAFjwBgwBowBY8AYMAaMAWPAGDAGjAFjwBgwBowBB3oc6HGU1hgwBowBY8AYMAaMAWPAGDAGjAFjwBgwBowBY8AYMAaMAWPAGDAGZooBB3pmOnCO0jpKawwYA8aAMWAMGAPGgDFgDBgDxoAxYAwYA8aAMWAMGAPGgDFgDBgDDvQ40DNIlPZzn/vc6rbbbludf/75g9TvycuT17Yx8NnPfnZ1ww03rK644gpj2vOmMTBDDJxxxhmrO+64Y/XFL37R4zfD8dv2nL8L77OuZl1qF3Duud84XxrOPXcb00vD9K71Bx/ZL3/5S9sjtkeMgf+PAetq/co1B3o8ufQ6ueAEf/7551fvvffe6t///vfqBz/4Qa/175oS4P72O+GtQ08Usaeeemr19ttvrz766KPVz3/+c2Pa86YxMCMM3HXXXat//vOflUx65ZVXVqeddprHb0bjt8687WeaZad1tWb6GD/LoI/n/mWMo/nx03H03P0pLYwL02JuGGCh2R/+8IfV66+/vvrPf/6z+tvf/mZ7xPbIzmPAutowc/mkAj0vv/zy6uOPP679zW0yV3u/8pWvrP7rv/5rJ5j45JNPrvqKM3yMQM8u0Vr4GiPdJTrDu+CaoCWY3nagZ5doPQaWl/BOdpt99atfXbHCcwn96bsPp5xyygoaYVBNPdCDEehA1DAKb8QV8zpza7y3S9dj62oprXd9PFJ6DPV/1+g85ty/a7QeCrOlendN/xlz7t41Wpew5/y8rua5L08X8AIPIZfQ87FHph7osQ+ifiz75P9dp/OYulpuHDcdj6Z4xiOPPLI123OygR6CPukvNxBTvsdk/rvf/W712GOP7UygR+MxVqDn0KFD1Y6iXXbgaAyGSHcZ02MFeozp7ShZQ/DLNurEoEJpeOCBByoDYhvvnOs75hDoYQchxp93ww7H9+edd97qhRdeWF111VVbU7anyjNj6WopPdDZ/vGPf6xuueWWnR+TlDZ9/d9l3I8x9xvTw83h4old1n/GmLuxAdE1d9GvIcw5bebrXZYzXbAxl0CPfRDNeO8y5rmyu+xXy9FjDF0t145NcZ/GMPSfANDOB3r++7//exGGHiB57bXXVmeffXa2P6zcvfTSS6vf0lbwjqGAwqhMmGyJfemll3Z6tW5u0urj3i5jeqxAjzE9rJLVB1+MVYewgYO0Tm6y0+faa69dffOb39y5BQfpuExFgUzblf4nAHHixAkHIgY4zgHnK/rB3XffndXL4Cl0tmuuuWZ1zjnnLH6X3Fi6Wop5/hPkfOONN1boGbl831tfFu467sea+43p9TFb4vdd13/GmrsJrj355JPVj+vSODl/OB6YGm13Xc50GY+5BHo0z9qvNgwf77JfLccvY+lqaVuGwD1+Ggd6Pv641mGVDsKU/19wwQWrt956q/p4e9pOjte59957V++///7q73//e7Vtk+tjx44txhE3lgIKrc8888zqewwEfGDUlP7+v56w2nVMjxXoMabXw+su8PmPfvSjSs5ccsklB+Y5Pmj47LPPVt+WOn78eLWDATlz0003HSi7C7Sij1NRIEv0Rm4dOXKk2tWM4Vwq7/x2c4ToWhcYxSnLt5wINuDIevXVVyv+4psIS6XxmLpajqaHDx9evfnmm1XQJ5fve+2wHulk3I879xvT3TEb8Vt3vev6z5hzt+xBB+WHwXYd5qd833KmGxbmEugBc/ardRvbtnyqefSGG244YGPsgq84R6cp2el9496Bnv//jZ66lck5QEzxHsLu0UcfrRxrub6wkpRvfVx//fV7jH3xxRev3nvvvWo3Cs9PsV9d2jSmAko7f/nLX67efffdVc4B2qUfLvuJcDOmTxrtGz3CoDE9jKIl+s4tRbbgsOYIjVRmKI8dpV/72tcqeUKZO+64o5I9V1999exlzDrjNSUFstT+b3/726t33nmndudJ6XnnH5wv0AfQC2688cYD+GcXDwEeFt9Ib8PQOnr0aBXsIQi0RJqOraulNCWwSbANHTqd19Ky/n8Q4zmaGPfjBnqM6XY4zWG37p50nF3Wf8aeux9++OFKZtadWlI3dr7fPz9MgaaWM93GdU6BHvBlH0S38S3xpP1qeXpOzU7vE/foLd7Rs4AdPRzHxsppwJEy+te//vVqtSIOOo5ui/l//etfV//617+qo9zi/Tlej62Ais4oonOk39TabEyPH+gxpvNKwdR4ZVvtwVnNggGOmErfSd6HH364+u1vf7svj6APq+X5Pomc2emzS/4/NQWyidYYATixcHp7V8/mvF+iJ99ThGd+9rOf7eOZ733ve5U+l3MoNo3fXPLG1tVydGIsCMgR7Mzl+157fjDuP6HV2HO/Md0es2342/rPSaux5+4mu7DNGLpMvzwxJj0tZ7qP5dwCPfZBdB/jJp5smj9F66X7inP0GVtXS9uksejDn+xAz0J29KDQszvnO9/5zgEj9Re/+MXqo48+WhHUScHEUWNE+lLnXFpuDv/HVkCldODU1Ir2OdBtqm00pscP9BjT/SpZU+W1Nu0SFtixwzd44jPkPfXUU1mntQwLFiLgwI7P7cL11BTIEs1xZv3nP/85EHwoPef8g3OFlPU///nPB3DfxBd8p4edVUvVJcbW1XJYxQBm0dMSdOFc/7Z5z7j/ZC4Ye+43pg/OyevygfWfT2g59tyN04pFQzln5Lpj6+f645Nt0tJypvu4Se9ENm1zrNZ9l+bdperC69Jl3efsV8vzzNi6WjqefeLegZ6BAj1Mpgih0kcDcZixBZnjOtKBjv+ph/pSBxtl2KWD0vPyyy+vTjnllAP14GQgmENQJ9bJNUobeV0m/euuu25FlJE+pvWN+X9sBZS+/+pXv6qcZJzjPCYthnh335gG82D/rLPOOnBcijH9iTAa8xs9wtCSMa0+zjFFEYB3cvwT+9O2HM80yRntzOE7IrF+rpFLBIDY7QNm03zkC3KGOTrNq/vP7lS+K/eFL3yh9TN1dY15f2oKZIkWLBZh0UguOFF6dur5kjk5PSq2XXzQRsehrjpdj506BM1y36gSnQnoENiJ7+e9r7zySi0/xbK65hn0MvQz3ZtqOgVdLaWN5jCO0Zv7nJP2bQjcgzdwm54SwLuN+0/0t7Hn/iVjuq1e07YcuNW8n5MP1n8+wfQU5m50k7qFrenc5/95x+YQdLGc2R6t1x0/6ZZdfH7rvquv55bsg2A86uyHSD9kUhtfsXgw5xewX62eP8fW1eJY67ov3DvQ02OgB4USIxuHF0oIBjwpAZZoOEJ0RVU5n50fq51vv/32Aw5vyh47dqwy+FnF8vbbb1dBnXisilZ/5hxwAAYAlwI9OBWYcASwppT+5JwTTc8MmYdRSXugIf0khaaXXXZZq/702TY55peyKnQITCOIwD/jxIenxQPxewS7jmmwC104SobdeDjQwXh6xE+f2K2ra2mYruvnXO5H+YF8ASNvvfXWKg0uf/nLX65kB3z2+uuvr06cOFGV+/GPf3xgXmwjZ4SD3//+9weeF7+WAj25xQZ1dJ+i4lXX1tz9v/zlLxXP4ujneC7G6plnnskuxsg9P9a9008/vZqXl7RiNvIC/MJYwBMXXnjhPiyz4ww9i50d6ETwznPPPXcgEMPYwA+sMoSvVPaWW27ZVx94hye+//3v77uv5zWvwz9xvGWMdwmOige78Fh85zaup6Srpf1F13n66acXtYtqCNyjp6G3oY+IV+6///59tsuu434qc/8SMW39p95Zlc5pff6f0tyNnM0dedpnf11Xe5xZzrSn1Vi4YhE49gf6LzYJP66RVWO1qe17ZXvar1bvK7ZfbT0enIquluOFvnCPzoQt+cgjj2yN1z+T69BY99gFAwEgxCZtYCUQqyk/+OCD1a233loZPQRjZAjJ0McY5504By644IK9dx4+fLiaeDlmTe1AST9y5EhlVJ1xxhnV/csvv7xy1sUJT2DIGfiK4NLHXD6rc8hrCvTQNxzzV1xxRdUGoowYejiEoBurrscIqohOU0q1Sjd3TN6U2tmmLUNgmveCdRzT3/3udys8nXfeedU3ISLNjOn1hFabce1aZkmY7tr3qZVHfig4KvkBr6Cwxx2dOKxxQnNPskPyBCe25nL6p/vUq7I5OSNZQZrSRd8U2STQg7xERingy6pNHK+0j3aRx1yRvtv/+50rWJTCroalHJUANpE3L7744h6+b7755ioAo8UxYOyOO+6o9DdwhtEErs4888xq4c5LL720byEMvMeiG3QhnkVWHj16tArOx2NbCVbWLYrBcYazKpffNtCD3oX+hR6m1fsKNsHj6G20zTzSjkeYcwjugZm502wI3IsfHnzwwYpHwP7dd99dYTjSzLhvh7dtYGxJmLb+Y/0HnmFRE47q6AfZBi/5HQfnNcsZ61dD88WSfBD2q21/Af7Q+Byq/r5w70BPD4EejB2cAxjtrGzToMsxhhOOD7ziyMLxljraKI+wxMCMq2h5hmf/9Kc/7dX5xBNPVCv8OdZG7+FYEFb9y8DXfdLoMKCNMY9rtbEp0CPjDsWKOg4dOlT148orr6xWxdLvO++880Dd6bt24b9W1WLozrm/Q2EaHuBD33LgQiOcUQQb40fHjOmDCvVYeFoKpseiX1/vrZMfzDXwD6u1cNITKGEhAY76NDAi53IMqraVM+zkqQvkKDBbl6825mSQ6MPuCuQddSDfKIsjnh1IOMORP7ndSHreaX9zRpOjdk50zvFC1Ikkc9BpwBf6Vdx9TV/hlXT1MM+BVfEXARf0OmQbfMpzrKBE39OimJRu0r02CfSgd9E2difBg7yPIBa8Q3/YXY7+lr7b//O8At3q5rA50Wwo3DMvR/pwlAiyRjYONDLu89gaCz9LwbT1H+s/4iHpm2Bb95xuf96xnLF+tQ2+W4oPwn41+4q78EtfuHegp4dAjz54iWONsxY1kKeeemp1NrtWXhMEIiDz2GOPVatAVY5UgR5WnqoOKTM4EP74xz+uiO5hRKVnL8phQBrr5FpG1yY7eqiHKDRGHu2jPQSlMPj4ADeOwvS9u/pfjBkDdnOkxVCYFn1wQuFAu+SSSyqMsgpaq6ihlzG9faW9Dqcas7ljuq5/c7mvgGgqPzC24BeOT8BJjbOa+Z7yad8U6MEhjGwgv62caXIYsWMVeRCdgPHdbQI9lEdm3nfffZXjEBmjwA9bju2w3t6cwHjNfWcDRhW8kuMFAjM33HBDtROGYA26G3oNci/ilmvkFHXEIwuhD7ocO31uvPHGanczeln8XokCSnWLaLSYYZNAD+1D/zp+/HjFe9LNqBN9zbt5uvEMc1wa1EvxMPX/Q+Ie+sALBBY5uQDMs5MMrIsuxn03zIluQ6VLwDS0sf7jgL14RDprXLCkPKfbmX8sZ6xfbYvXluKDsF/NvuIuPNMX7h3o6SHQw9Z4jJ/UARcHVMdqYETiGIh5XMsBxwpMynJPux+oWz8CLfHYHco1OcXJb3Ky6dk6ZwTP64cjnl1DON/oB6utAaLyS6n6MPe0qZ9izDb0bKpn7LyhMI0jmp0HEQM4p9KPVQuXpDlaTAXTtC32Za7XORrr3lIwrf7MMS3JD/VJW33rnNYcdQFG4wfH28qZpkCPMLJpoId+oJRwHBDBYH7sniCIpT6W0rny4Lbb3URH5te6sWx6bkp5JV5QWzl+DdpzzC7Y033SePQt5ZRHEIVAj8YMfYhvKcbASsnhLWfVpoEe2gT/sUuW9lAfRwDHhRNqd12qfuxCWkcD7iuQUad3ND07lbwhcX/NNddUxxsKJ/AA+px2sUED4/5Te010Gjptwt4SMG39Z/f0nyZMS3aipzSVc96n/pu+aWE588nxvm3oOvT8v4T6m+go+9J+tbyv2H617etcffHcNnDvQM+GgZ64YyY6AtLBk2LCR4ARkGm+lHF2yLBSQvnsdMDpToAHZwLgSlfWl5zictrzDtWrlMANdcajtJSnlPbgiGfVK+3n41WsZMXAwxFHgCueS6/n5pjiHInOmq59kEBqomfXOrddfmhMs2qf1dFvvPFGhR/wB7YihozpfhX0uNK8K56WgOmufZ5aee2YqZMfaq/4Ji4YUB7zOPIFfktlQRs5wzN1zn85YnL5vFdO6Nzxomof8y7fSWEhAfMBCwmQMew+ol6+C8HcofJTT5El2jXVZ1uhZ6nek08+eZ8e0fX9OFAYBx1N1vX5KZTXjpkcL8T2adEAelK8z/W5555bfYsnxTVjwIIdgkPkwVPoZyzYUR0lh7ccJblAD98/5Mi39L2qWyl8i/6FHkbwFl6hH8wT8BA0oK0qP/UU3DbpX+C+KYC1Ke6b5rip007tGxL3vANbhnmZHX/gnl/8VoZx36/u9vnPf37FT+PbNV0Cpq3/zE//acLppna2/CnxWPum9zmv3zkJelrOLE+/WpdPSrbOpvy+BB+E/Wrz8xWXbO0S7uGnKfjeHOjZMNAjo6ZkkEsxyUWkVQfGOseJAI4f/vCH1ZEhHDGiyZeP1xPwSZ3i+jBhPFpEz5Bqxao+PBzzMAJyjr9YBmcC7yTAxISLM5F+sMpaZ3ZHQy8+O7VrnAjXXnvt6hvf+MYeXWMbyWOs4j2i5XzwmOODdKxezI/XEkhzXmkkPPaNab7BwVb7n/70p3v05SPrOLTSY4KM6faKOc5vvl1Sh034Fz6NON01TMe+z/G6SX7E/ijQk5t/5LTGCcyRiTzXRc4gR1jBjYEX38k1eMLRnMtvO59wfCltw3ENppFN9IM5m+sPPvhgnyM9bcOU/tPmBx544ICc6cJ36g9H1sHfcdU8ekK6s1flUSzvuuuuA9+aYQ6AthdddNGB8dOzSqF7LgCh/DmkTbwQ209f0YEoH+9zzc4YMI3ug7IsXKJrKSCBsk8QMnV4iyfQ2XJzcwyO4siM75Ye8fbbb1fBppgXr9G7kNOMLfoYehn94HnanOqK8dmpXXMEZaSr2se88Pjjj1dHhVHm9ttvzwav6nAfn1eddekSnOJD4B6s/+Y3v6l2V2oewghGJhDgjEcoGfftdTdwiC2C3aH5JMUm45kejw1/s+CO48xKQaAlYNr6z7z0n5zOEnGds7O7YFp4ANuxXl93m3s2oZflzDL0qy58B16Q+/hy4EHJLO6hl6Gf5TCV4/cuthBtxB7J2bW5903xXls7WHNbW1+x/WrDzHlgGjuab9GneJItffHFFzfiPud7oy49X7LF+8K9Az0bBnpk1NQ5xZkIcfiw+hMnVo55WeWMsUQghvLxKJ0YvMGQxXhnNR3vFfj0fZ+61S362HY8rkfPYqDhQONIBt3LpXElJcpVdF7EvNyzuXswUZ2zCnA/9NBDFT0wJCVMVE9TPvVeffXVleFJ35g09Rx0xThiJS0OknR1uRhbhqyeI+UZ6M5kHe+n11p5liqg1ImQog6YP31uSv+HwDR10necYWnAkXGKH7GGFkvDNE44vj1C3wkapjsTmjANPeryCf7igCEgzGpu3pFi6brrrtvHB8pfIqZFh3vuuWefMxD+w1kID0b+Zm5hrmFlfrp7gYAGu874FoFoNlaq1f85+UGbULCRM8ypLBjIKcTMSTitSZnroAN8B0+2kTM6XjSdN0UTlBfqZ87WPVItFEh5PJbRNbKEtvGfPsRvCcU8lS+lOOFvu+22rAFSx1PU2SRH2uRDKwyfXPva8h3PIsugJylYxLjmPoobOzdy3y0iiJc7HpbAwrPPPtsYOKBu6AzdU6zBK7yTPPqQ69uU7mmxQI4XaCe6AYo8fcoFemSYcQziVVddVfVXGI/6D3Ux3uiAqR6FbGvaGcWxhPArbY20k/xLdb1Yhuu4ogw8YwyLl2Ne+lzTfxZfsLMuXYlGfcyJzKMsekkxUMpvkoHwG/OSvmeZtu/IkSNV0I37d9555wF6cb8O9+TF59O643/kcy7AOSVZENubux4C9zqyDYzHoCQ4xa6BL2JbloT7kiwo4b4pH1mKLQIvYZtE3QR6Ms+TH+090Rm5kNoZyovpEjANfersZ/pq/Sfv7AJ7Of2nhOlN8ut0FmGSupG7KdbJb4tp5mN0TelDqpvFL+iZ2EE5nlG5babo5LSJNsf3rmOrTEn/spxZb8f+UPpVk5yB55r0q7Z8J95Fd0YusVtedjOLmdCzUn+dnsnxO/O6/WqfzN3Qrauv2H61YfxqzNPYE8gR8Bvnba6jLV2He8rV+d7i82nd8X+dPzmWaXPtQM+GgR6ILOfa4cOH9wGClVrPP/98pcB/6Utfqj6SjbIKgDQ4TJgYlgRhNBGSohgwAeoe5Q8dOlQpu3I6qA450uqOCwOoTMAYaShheg7lGIcFx/mkk7PK5FIERuroyJXL3eOdvI+VqjlFjXz6zgoABBfv4uPial8pHxrhtEWY8uOae7QFYxQ6cJ0TMKx4v/nmm/foE9vPyt5HH300mxfL4fDBcZMqdVr9gkOpjXEW6xzjum9MSyAxtlIM6BdYhic0RurrkjANDxOgxfELpkn5L94uYbopnxWdcoaDPT6SHAOJ8D5OOyZ60VbpEjGNUxceS511kf+iccj8y7yY8qWcvNwvraoXPYdMGUfmH3glOkO5f/3111dBAOYc2s2xmgQFzj777GrMKcNY00+cSZpLu8oZOZ/rFhQQdEDxZ4eesA1NwDtzYl3go45uaaCnrlzuPgY/shd60W/GOZZr4inKNcmRUj5zHXSO81x8d1u+4xlknwLjGFbMG3LAY5xRV6yba5yHuR0k0ACdQs+nz+m/5l69V/cjr6RHzKrMlFLmPOgFJmNAjDkYXQAeASf8CObAX/AKfeBZxhDsRFnOc+w+jffAOnMw9BJviQ6MWQ5/yoeXwWjUwWgDOgLPRX1Nz9SlaaCnrlzdfZxvyGfemwb51Cb6CG1oN2Wli5byoVGTDGQxEsEj0T+2kTkN/Zj5h/vobkePHj1Qtg736fOx7nithVSSp8qbmixQu+rSIXBPoAfc8+00jRFYBw/QK873tGspuKcvTbKghPumfGj23HPP7QVMc8FInMHYQulYUy+0R+dL8+L/pWCa/lr/yQdz4njruqT/NGGaOjbJb9JZqLvOzm6LaerQ/BKDztyX/t8kcym3rV+UHalMVVvXsVWmoH9ZznTD0ZD6VZOcAetN+lUXvsOmPHHiRKX/SrbAi+In9NbU1qrjd55pawvZr/bJwrTUV2y/2jB+NbBJ0C3FsnCe2tI53MNXdb639HnVm6Z1uE/Llf4zV+PLwsYqle0r/zN9VdRHPRgpEABCrFsfA4rDFeWCwMLx48crJwKGMBE98qkbxR5HC04FhDyCHyMfhw3Oh/h+HAmsBJUDAWcFjgmOcInluKZ+BH/TMR3sIKAMdbKjgF0ABGtefPHFKiCS1tn0HwMvNeyaysc8nuUcdYAOvaLTlXKscI0BK5xl9EsrZZvyaRM0jyvOueYeeTAjP96DUwT6k6p9rIKOQTgd0wJzMA45p5qeVUr9jCnOCN0jxbHI+OHwZBxi3hSvh8A0xgdKAliWgwDBhQNYPCJaLAnTOAfBGt9doH+k/Oc+/5swXcpH2WJ1AOXAJzjFuOA/PxS8yA9LxzR9ZYciPBbndPEf+GOrs+jDvMCczZzMMWa6D/7uv//+aqclDq46ga/y20hpa5Qf7M6Af5A38ShK5kzmPOUR/GMOJSCU8lkXOSOjNQYb0n7jjOVd4BC5xgpE5nnmxVTGpc+m/8F2xHKa3/Rf3/pAvuSM/iaeK8mRUj5BFuY3dsaojevwHc/Sf9EAGoJrjSGYhL56Byltw6BUGeQtsh7HOIEvyb/4THot2cz4xTzqhlfYfZzOM7HclK5TXoAG8MWxY8eqo87UVviAOYAgJboZMhz+inxFWWgAD1IH5ShDWZyQjLHqUypaRmNYeUrhS/Qy6kUmgB0wy05CjaPKllLax5iXyuXytWNOuqlwR1nkCHwd50ECvrQZY7OUX5KB0D/djVr6MpkAACAASURBVMqKYXALPRg3tQf5yb24oCHFPW2uez7Xd+7paMuUpxiDqcmCuj7oft+4B1PwjPgCjLAAAvxHHVrvXwruwVWTTVHCfVP+t771rX02CHNzOj+zeDAG7dFdGAeO4GQOBrOieS5dEqY198p+tv5T72hu0n9KmN40v0lnAaOpnd0V08zH6EHYkbJ9hH3p/9jZqW9BZbaZRtnByQFRnqutXW2VKelfljP1PJjibEj9qknOoJ/l9KuufEd/wC8LqNEH4HNkUPSLgelU1035fR1bCLlov1reV2y/Wv9+NXgVGyPqXk22dA738CT3NQ80Pa8yaVqH+7Rc6b8DPT0EekRkBhJgYPjIKFVeTMmjzFlnnbVP8McyXOMYI4JO2VShScsy2eLgxLhN8/SfSZrJHaMbJw7XUfFQuW2kMgSjMqYPEMcV4/QbhY7jSEr51InDJDojoAcCgpU/0ZCCpjHQgzBktSLORfrPWOJA5Xney8o7rSito49WOMj5kStHfRhpubwp3usb0+AN3LfB/xIwTX8JXMbgJVhjhTKCpITpUr4wg3GG4asV1rqPgifcGtPtlXLRj7FinNKVg8ofI5X8QNYwpnVtYO5sIzu6yJk2igdtYoEDMoYdknE3RV1bh7qfC/SUeKokR0r5YIWji9SndfhOzyolUEmAjVT34Gt2neg/KQsiFLBk7mGVOM5CrnEolFaAUweGGnIURTXWrWsWMTCfxUCW8qaaihfQp+oCjpEPpAfU9actD1IOPSN3bG6sG+OXXbSsACPNBY1i+SGvc4EeDBYwgWNH74a/tbO7KZ85qEkGUh/6XdQF0ZPQv+Ad6o78xNhwfBz1qi0R99xrel7PpCm8QYBNi4rS/CnKgrSN6f++cQ/toTu/Jh5ZCu5Lc30T7pHPTfns1Ik2SLRPGEfGjqC9xpRddNghyFPahZ3RNAY8t0RMt517hX1S0TCXxnm/VHYJ+k8J05vmi8Y5nSW1s9fBtHYcs1hH70pT9B5sn/T+Ev5PUf8Sr/WlX+2anGmSEyU50iY/1a/W4buUd9j1hy8r2qDIGx0dTPmU39exhcACto/9agePENOY2K/26XeC+/CrwVPYH+ga0LhkS6e455noeys9r3GMaRvcx/JN1w709BjoaSL00HkIWHaMNCk/Q7ehS/0okxjV0bjHeGSlLMq06pLBiPOhlJ9z6sX3REOKuqKRhdMsKoY8xxFIKDAoVjjRcRCqXbn00ksvrZwhue8jqDw7v9IVD8pzut8RvwRMR/zG8ZUzDcxsgnnqRHliFXLqoEJQELxE2aKcMb0fX3E86q4R+Dhp4+rxurK7cJ8djzh8tRtt6n3OyYRN5UiuzihnuI7B/Dq+Q/lC5rBzI/3FD0ASxMXRjXEW6U0/dBSp7uMYlLOK1dzsUEF+cQ8nYXTU65mY0iZ27dB+lNOYp2vkWxpgUp7Tg3MMczBzfF3gbGo0k2ySkUP70J3oA5hTeyMfNOWDF3Qt6tWzpPE9PE993Ad3BCW1owzZhiMkPgvuY1si7ts8H+vSO8E82IcH0nz+WxYcxHaOTrq3BNxHjKtfca5vwj3lmvK1y004piw/vYeAfdTpyNNuM3gjLojTMzGFD4zpbpiN9MtdL0H/KWF603zoVqezpHZ2V0xTN/IEHRTbKTdGzN8sLNACt1yZOd+z/rWfp5cgZ+CDdfWrkpxRvvQrsF/Hd+zWYXFeao/wn+8Bi2+ok93Wqa7EfcZD5VJ+J99+tf34Fa22ldqvVvYlo5Nhn8gGKtnSKe5T31vp+dzYt/En557L3YNPfXTbhke35Qg7xj1W7s7FoQBjbDvQww4RjlhhbBBAOHDFyDgSoiMGBxzOBsrqOc7Lh4FzY4tRRd2sPEiFn8qzEo93xvcoz2le+M0d00MHesAdR99dfPHFFS6hlwKSGKUYBcKWMZ3HmOiTS6EnRy7k8nbxHnjDyarjMKdOg5zTAiUOOYmxo/ZHPs09E+VVKZ/ACg42BVi78p3aREoQFyc2bUb28CF6xoA82sR7VB5HNHjVf3YW6cgryrIiDhmmQJDKxZTdJNAmHmEa87UiLzogY76vD84xyH12Jc9lEU4MwGg8N3FEtAn04LhWYIedYuhJYBa+5JoVc3I0cI82ykGe4r70vPoUU/AO7sF/vB+vLQsOYjvSJ71eAu5Lc/2mfAG25ZDGfsDWgI7M8cz7OMxFV1aq0h7yuMYhx7Etyk9TY7obXlP65f4vQf8pYXrT/CadJbWzu2Ia2xobG16RHpSOE7s5qVf6V5o/5//Wvw7y9BLkzCZyBD2p9HzUr8B/V76LPMNxxuw8B4vIrvg5CeYO2qLyKb93tYXgcfvVDmJe9F03RZeds6842uuRBrJdNl1AjY0Mj8hWLtnSKe5T31vp+dgHrtvgPn2m6b8DPQvZ0cMgM/Gy86RJCWoCwzbzEE7bDvQwObAyGqbjzHWEDn2GCRBcUXFk5TOMjuHFxyWZQDCs6miEA41jTOoML8aGenhvXR2+f1CgzR3TQwsk8Ml51ETr+cUj4sArKwmEK2P6IL5Em1zKMXjsiCjtgsg9u+R7GFYEeuLKran2N+e0GDrQkyqJXfku0hJ58dFHH+3xd1zFjfObHaIqz1FAfLxb/5l7kDnMEezAwamInKtzgOBUZOdFnYxCPmLExSCW3uW0eW7B+YR+UBdAmxL9ZCyBH7Wr5Ehoym8T6IE+Dz744N77wDXfkiTlO5LUL1nG7kowqKMDU9zT5qbn1Sel6Bgs6oFX6njDsqAZ36Jlms4d9zn5EW2XJty3ccBhgzDfYpNgm4jnCF6mu9hoC8HiX//619XOMxZc1M0nxvR6eE3xm/s/d/2nhOlN8+t0lpyd3QXTjAWL2ji5pE4n57g4dNM6Ozw3nnO5Z/2rnqfnLmc2lSOl51P9qivfiUeQT+zIkb8BHx5yTvl8D9R+tXqcik5jp/arNS/2xA7AxmDRJmNVsqUj7imf+t5Kz6d4KPmT0/Kl/w70LCjQw2DjxGIi5vzM0uCPmR+NJbUD4wZnCEJL92AQnE8YQaV8BEwqeHgPH1PHKUadOo+ZevUOyvBNCf1XSlk5E/i4ZQwEqQwpDjJWGTXRnGdZ/cAEG5/1dVkozhnT4IcPFuI8i2PNfzDDKuVNMB/rjNdgkhWhKWaN6TLeREccinUGpcrsaspchkGdfhNqavTIOS02lSNt5AwyLO56act3Xej3wAMP7B1fgmLKkaAodLEO+F8yDNlDO2K+rilHm3F2N8kovus35vdj1N65pdCXIBtzflylP8V+5AI9nLvOCkDtoqHd8Ba6FXNBUz6BmCYZyE41aIKOF2kDbsErv4hJnBbINtpQh3vy6p5PaY7eVhoXy4L2cjPSd+64L831Tbgv8QX50ApbJP22BcHRXBAHOwRegK5cR1rHa2N6PbxGGjZdz1n/KWF60/w6utXZ2W0xrSBOk86JboKOUteGud+3/pXn67nLmU3lSOn5nH7Vlu/a8gy6GEeLYl/xTB2/t7WFaLP9anm8tx2TpnL2q9X7mqEbiwr4iYbMMTlbOsU9uM353uqeV/1K2+BeZdumDvQsLNDDwMPAOGym7KRECKQ7ejD4mdjZSSMA0xccDDixSvko3++9997eigLqiM4I1ZmmnJW9yTc4WImKcpzW6//9Cam5YhoM4MDC0SUhEYOXJUyX8uswBn/hYKvLL903pvvDbonWc81nvmXVi44KnGI/coGeEk+V5EgpHzrglCBwghI4BF34Xg/1ozxSP8eB0td138VCB1aIR4f6unX5ufzcwVixGj/uwpoirXKBHhbKoFux80BtBn9vvvlmpTuV8ptkoOpj51lJjwKf7GrAMc5zm+KeI0/ZAY9xpXY4zeN3XbrMGfelub6E+1J+jqbIDBwFyKlcfumeMd0vfuvoPVf9p4TpTfPr6LWJnY3txK7kJe7UqaOX73fj4znLmZKc2DQfLLXRrzbBHAtwWMykOjbhd+qwD6Ib/kX3Lqn9anlfMzTEJsDWiJsCcrRNcT9F35sDPQsM9OTAOLV7uUAPbeQ4III9WpnMWYs4E7S6rSmfZ3g2OlK4jvWldECBRIim9/1/eCGzNBrXYZpz/19//fW9lS6seOG/vgfQhGloVMrP0RHhY+eVMZzDxi7dywV6SjxVkiOlfNEXmTWEY4KVeBhRcWfN5ZdfvuLsbL3bqXl/XQzkAj0EVpBZ+uYbThWCvDomuJRfkoG0lTqp/6yzzqrF8U9+8pO979HxjHFvnK+L8/S5HO5Lc30J96X8tA38Z9FZ3A2aK+N7xn0bDOT0nxKmN83Ptct2tvGaw8Uu3svJmZKc2DQfOrfRr9YdD46rvvXWW/cWipnfze/rYil9bky/GsdFX3/99bX2SIp72j5F3xsyneMWH3nkkdq+pHTf9P9nNq2gz+dZaQ8BIESf9bqu/ETHNwQ4Y/fdd9+tvj3Arh527CjYgnP6hRdeWB09erT6cDTH0BGsQUhB01I+kwL133bbbdW2u6We12t85fE1Bl1KmGYVMk4xvp9z5ZVXVh9FP3bs2J5SVMJ0KX+MPvud08Gfx+LgWCBPkCscLYV8J0Uu6Bs2JZ4qyZFSvsfk4JiYJtOmCSum4Rm++fbhhx9WO3ieeeaZvZ2ofDPktddeq3Q1vp+D7hx3jTfll2SgsTFtbCx5fEq4L831TbiHbqX8JdPWfRuHr0v6TwnTm+Z73McZd9N9unQvyZmSnNg039iYLjY8NgfHxn61gzRZFycO9DjQM7kAF2d4sn2cVaA45FJw1+VznwAPEwRRWJRVH0XT32SRjoP/t6ctgUqOc+JoGp1hG+lXh2megw/4OFsTT8S6fN1+XEyr3aVVHc8JExyd0yRHSvmq54wzzqiONFj3KB7V43R3sTqVsUcfQx4hi+CftF1N+VEG/u///m+lqyET0zr83zifGgZKc30d7jX3ExBt4pup9dftWT4PljBdl287e/nYMP+PM8Z1ckTjsWm+6kHv4lQA/Xc6znib7pvRPdoUXfxqonv0AVx00UWLtdMd6FlooAeBsCtBDo7Hef7556sVqOwQIsAjRt5Guku03gY9696xS3RGEXvqqadWb7/9drXzbZPvb9TRs+n+LtG6iQ7Oq1fEULLYupxz+JpuJ1XfWWBHKTLplVdeKZ71OybNcOqUziIes31LeTc6GXPrUvrTtR9j62ppe3d9PFJ6DPV/1+jMN3bGmvt3jdZDYbZU767pP2PO3btG6xL2nJ+3Szz35ekCXtDx+a4iR/Cya5sj5KaMI/sg6seyz3HbdTqPqavlxnGI8XCgZ2GBHhQijjrjqCiEXg5IS7vHNwvoa+484m309dChQ1WgaZcdOEPSeRcxDZ7BNUFLHMXbDvQY09tRsobkmyHrBp+c9/rAAw/sHas55PvmWDfnVDN35c7knlp/CCwTjNr2Iomp0WHI9rCqn2Npr7rqqp3Qy3K0HFtXS9uEzsY3HDkWJc3z/35k4C7ifsy535juB7dN/L+L+s+Yczd6FLrmLvk1mvDnvIM8votypgsO4CHkEgu60PWnHuixD+IgxruMd6nsLvrVcjQZU1fLtWcI3DvQs7BADyDhHHU+3pYDke6dc845qy9/+cuNZVR2LulYgR4mTFZK8D0hB3v6F067jOmxAj3GdP84nss8WmqnsIGDFAWirjzlLrjggp3f8TOHQA9jSADixIkTOx2IqMPypvfRC9AP7r777lp+4R04EAm6wTubvnPKz4+lq+VoAr35fhd6Ri7f99aXhbuO+7HmfmN6fcyW+H3X9Z+x5m5k45NPPln9uC6Nk/OH44Gp0XbX5UyX8ZhLoEfzrP1qw/DxLvvVcvwylq6WtmUI3DvQs6BAD061t956qzoLOgWP/p955pmrhx56qNq6ue1dAmrDUOlYCij9ga4c1UDAZ+lOmqHGL1fvrmN6rECPMT2McpXD+Nzu/ehHP6rkzCWXXJI1tpn/+IYHgSCOHmRRwdz62Gd7p6JAlvrEuB05cmT18ssve8HCSf3xv+jaFBjl+MNrr722WqQz9WP+Sjhqkz+mrpZr3+HDh1dvvvlmFWTL5fted34w7k8adTenMd0ds234fNf1nzHnbtmDDsoPg+02+J9aGcuZbliYS6AHnNmv1m1s2/Km5lG+G1j3zJJ9xbk+T8lO7xv3DvQsJNCDsHv00Uero0HSVdZsTXvmmWeqI6A4m5Pfxx9/vPXjoHLM1ee9MRVQ+sHH7d59991VnQO0z77uQl3G9EmjHd0mfBnTwyhaou/cUmQLDmuO0IA/Y/svu+yyamU88oXjBj/66KPVO++840DP3/42+W/0aBy//e1vV2NW2nmi8k7L8wP6AHrBjTfeuI9foN3Pfvaz6tuCH374YcUz6GUO9JRp2jfuWBHMQh106HRe6/tdu1KfcT9uoMeY7n8esf5z0mhHpGvefPjhhys9s3Rqico77Z8PpkRTy5lu4zunQA84sw+i2/iWeNN+tTw9pxTo6Rv3DvQsJNBz6aWXrt5///1qUkwZHcY+66yzqh/HteFIcKAnz+wp7br8//rXv16tCkUR7fKcy+bHwpgeP9BjTOexuas8i7OaIM4111xzYI7jOA3wgiGhnWgO9Izr7OuKU3QFgng4vXEUdn3e5ffPFyV68oFcdryRslDFgZ799Nsmnvi2JQE5gp3bfO8S32Xcf4LjsZ0HxnS/84n1n/EDPU124RLnUvepnoctZ+ppU4ebuQV67IPoPsZ1Y8/9pvkTftoFX3GOPmPrammb+sS9Az0LCfSg0L/33nur73znO41GqiZ5B3r6nTxhUikdHAHyta99rXEcUqb2/4PjYUyPH+gxpg/icld5VVjgG3Bf/epXG+c3B3o+xc3UFMgSfnFmsSuL3Salss7/dJxztJCy/uc//7lISwd6mmmZo2+f9zCA//Wvf61++9vfFseqz/cusS7j/hMsjz33G9P9zSnWfz6h5dgnZ+C0euGFF6qd5SyQWOL86T6141vLmXZ0iniSDxDZFO9P9Vrzrv1q3cc6N6b2q+XpOLaulo5Vn7h3oGegQA+TKUKo9NFAHGZsQeaM9nSg43+tls452FB2OE6Hs/U5pi0+l15rkt8k0HPdddet2LVCXWn9Y/4fWwGl77/61a8qJxnnOI9JiyHe3TemwTzYZwUBk1psszH9iTCSwxxsR/ps83rJmN4mHft+Fzyj1Tcp/8R3tS3HM01yhuA1yjYfxI31566F20129LBl/95771194QtfKL4v14ap3JuaAlmiC4tFWDTSJjhRqmtq+ZI5OT0qtlV80EbHoa46XY9gGUGzm266qYjhTQM9tBW9DP0s9mWK11PQ1VK6MI4Esf/+97/Pfs5J+zYE7sGbdqOl7zPuP9Hfxp77l4zptnpN23JgWPN+Tj5Y//kE01OYu9FN2ixsTecl/887Ofuii+XMsPTtY5yQ25zqM5dAD31esg+C8aizH+J4I5Pa+IrFg/ardePFsXW1ONa67gv3DvT0GOhBocTIxlhECcHJRfqHP/xhn+EI0RVVfeONN6rzZjl27fbbbz/g8KbssWPHquNyWMXCx60J6sRjVTC2eFcbB5wm+U0CPfRnEweeQNx3OgUFVA7OpawKHQLTCCLwD+ZfffXVCv/wwfnnn7/noDKmPxFSwhPY7ptf2tanNiwF0237PdVyUX4gXzhu6K233lqlwWWO6UR2wGevv/766sSJE1W5H//4xwew1EbOCAe///3vDzyf0kplN5ETU1S80n62+T+3fpx++unVvIyesZQVs5EX4Bf4Bp648MIL92H5e9/7XrVamJ0dGMPwznPPPZf9zhQYJ/AJX6nsLbfcsq8+dCWOOvz+97+/734ON8zxmxzdJpnJO3P1T+neFHS1lB7oOk8//XQ1pkvZkT0E7tHT0NuY27FJ4JX7779/n+1i3H+iv4099y8R09Z/ujmw0nlu0/9TmLuRs3zXzruOx8WCsGQ5M41x0Hg0pfIBIpuayk0pT/bkUnwQ9qtNj1/G1tVy/NYX7tGZsC0feeSRrfH8Z3IdGuseu2AgAITYpA2sBGI15QcffLC69dZbK6OHYIwMIRn6GOO8E+fABRdcsPfOw4cPVys/f/GLX+zdYzI4cuRIZVSdccYZ1f3LL7+8ctbFCU9gaGPga5LvEuihbzjmr7jiiqoNRBkx9HAIQTdWXfMh7k3ot8mzKHsYnThl6BcpgYMx2qTV0H/9619Ho8cmtIzPDoFp6gfrOKa/+93vVjQ677zzqm9CRJrtOqb1YXucknzUHmchGB/DsFkSpiO+53iN/FBwVPIDXgEncUcnDmuc0NyT7JA8wTGnuRwa6D71qmxOzsgRTVqinfi3S6AHeYkMU8CXVZs4Xmkf7SKPuaL07qnk/+Uvf6l4lh0dOCUILjzzzDPFXbdjt58dVOxqWMpRCfAC8ubFF1/cw/fNN99czalaHAPG7rjjjkp/A2csRmAczjzzzGrhzksvvbRvBzO8x6IbdCGeRVYePXq00jtikADjoS0PiL8IGqGntcEBcgL9Cz1Mq/cVbILH0dtoW5u6tlFmSrparr/MOeiPYCaXP6d7Q+Be/PDggw9WPAL277777grjkWa7jvspzf1LwrT1n/H0nynN3SxqQq+KfpA5zc1LaqvlzHT0qyZccdoP9ge2IrzDj2tkVdNzU8hbkg/CfrXxfMU5LE9JV0vb1xfuHejpIdCDsYNzAGcOK9s0WDLcmUz5wCuOLBxvqaON8ghLDMy4ipZnePZPf/rTXp1PPPFE5fjlWBu9h2NBcAbLwNf9XLpOoEfGHYKBfh46dKjqx5VXXlmtiqXfd9555157cu/dlXtaVTun1RK5sRkK0/AAH/qWA5d344wiQEegVG0xpqez4mEpmBa25prWyQ/mGvgHJR4nPYESFhLgqE8DIxjrzNcxqNpWzrCTh4AjQZwSDdcJ9LC7AnnHO5BvyBoc8exAwlmO/MntRiq1xfnd55Iujtop0zfHC1EHksxBpwFf6FfpUYHwCjwTg+w8B1bFXwRc0OuQbfApNMGwRt/TopgSnaQvdgn0oHfRNnYnwXO8jyAWvEN/2F2O/lZ6t/M/4RHo1naOmzLNhsI983KkD0eJIGtk40AT4777fDsklpaCaes/1n/EJ9IvwbbuOd3+vGM5Y/1qG3y3FB+E/Wr2FXfhl75w70BPD4EeffASxxpnLWogTz311Opsdq28JghEQOaxxx6rVoGqHKkCPaw8VR1SZnAg/PGPf1wR3cOISs9elIOANNaZu45OjjblVQdRaIw82kd7CEph8D311FNVEEvldj0VY8aA3RxpMhSmRR+cUDjQLrnkkgrTrILWKmroZUxvX2mvw6nGbO6YruvfXO4rIJrKD4wt+IXjE3BS46wm8EP5tG8K9OAQRpaQ31bOdHEYqc62uxnUTmTmfffdVzkOkTEK/LDl2A7r7c0JBHrmvrMBowpeyfECgZkbbrih2glDsAbdDb0GuScsKkVOUUc8shD6oMux0+fGG2+sdjejl8Wj7qRrtQ3cSOa1La/2Eag9fvx4pY9JN4Pv0NemtJtH7Z1yyhyXBvWm3N5c24bEPfSBFwgscnIBmGcnGVhXW4z77c3TonlTugRM0z/rPw7YC+fSL+OCJeU53c78Yzlj/WpbvLYUH4T9at/e0xO3hZ05v6cv3DvQ00Ogh63xGD+pAy4CTMdqYETiGIh5XMsBxwpMynJPux+oWz8CLfHYHcrJQUCa1pv+lxFGfW3Kx+dxxLNrCOcb/WC1NUCMZZqu1Ye5p019FGN2ddY01TlG3lCYxhHNzoOIAZxT6ceq54Jpxib2Za7XTRhbCqab+jj1vJL8UPu11bfOac1RF2A0fnC8rZzZRqCHfqCUcBwQwWB+7J4giKU+ltK58uC2291ERwIZceV+U9mp5pV4Qe3m+DVozzG7YE/3SQncEOAmn3LKI4hCoEdjhj7E97BiYEW6VltdQDKvbXm1hZQ5ml2ytIcgD0cAx4UTsWzuWv3YhTTXf91TIKOrbqznp5AOiftrrrmmOt5QOIEH0Oe0i43+G/ef2mui09BpE+6WgGnrP7un/zRhWoEe9JSmcs4bLuhjOfPJ8b5tMDb0/L+E+pvouBQfhP1q7eejJWC6TR+2gXsHejYM9OiYAgY0OgLSwZNiwjn9CMg0X8o4O2RYKaF8djowORDgwZnAe9KV9XIQtDFOZYRRT5vytIP24Ihn1Svt50xDVrJi4OGII8AVz6VX23cxlUCKR5PNjQ5DY5pV+6yO5jtK4Acsgq2IIWO6vUAcGl9LwPTQNBq6fr7xhuO9Tn7o/eKbuGBAeczjyBf4DXmj+6Rt5AzPtHX+S9512dGDk5zvpLCQgPmAhQTIGHYf8V6+C8HcEdvt62HmCRwojIOOJpsjnXX8Z44XYn/oKzyBnhXvc33uuedW3+JJcQ8vsWCH4BB5PI9+Fo93k67VNnAj3m1bnvbBt+hfyFGCt/AK/WCegIegQdQn0/75/37+6TLHTZV2Q+KePjO3My+z4w/c84vfyjDu92NqbJwsAdPWf6z/RD6SfhmPtY/5vh5+DrKcsX61LT5bgg/CfjX7irvyS1+4d6Bnw0CPjJrUEZAOqBSTnBGvOjDWOU6EZ3/4wx9WR1txxIjq4uP1BHxSp7g+TBiPFtEzaap3YZy1DfTgTOCdBJgAHs/RD1ZZ68zuaOil75zTf1bBxlW5XdsuxpzzSiNhpG9M8w0Ottr/9Kc/3cM0H1nnGwbpMUHGdL+KejxSaBcx3bXPUyvfJD9iW+Uszs0/clrjBObIRJ7rImdYyMAKbgy8+M7ctdrbJdDD8aW0Dcc1AR0cVPSD+ZjrDz74YJ8jPffeKd1Dluh4vD7bheO+VO/JJ5+8kYMfuncZuz7711ddTbwQ30Ff6/QhdsaAeXQflGXhEl1LegLjTBAydXize5XgCzqbjuON702v1d6cjpiW1X/0LuQ0ehj6GM9SQthimAAAIABJREFUD3oIbU51RT031RTciq65NoL7pp1Km+J+CU5x4SgnAyJNu+CeMfnNb35T7a7U7h3mIWQCAc54hJJx36/u9vnPf37FL45dl+slYFr6RGlubMK+9Z9+cdkFg2nZTe1s4QFsp3X7/3bGuYnX4hhYzmxnPCLN665L+lXdc6X7JVtnU363X+0TDMk3F33F9qsNx18lW7uEe/hmCr43B3o2DPTIqKlzimMgPfDAA9XqT5xYOUWV49AwlljBTPl4lE4M3ugYEVbT8V5Nvvq+T5vVLZoo6hwbqjNNo4GNchWdFzEvfW5q/6Hvtddeu/rGN76xR7/YRvJQIuM9aH3vvfeu+E5EyWGjlWepAsqYovAwdnHnSnzPVK6HwDR10ndwB85jX3ESxI9Yk2dMtxdeOB/5SH0dNsEbjsBI86VimsA4q9rvueeefY5u+O/xxx+veFCOKujBfPDQQw9VK/PT3QsENNh1xrcIIu3GuNYxCTn5QXv4Tg9yhoUCKIE5Jx9zEk5rUhSYrnJGx4sir0o0kCHeNViALKFt1E8f4reEYl7p/WPnS+6ncqYL36kPfJsI/o64ZZzTI1xVHj3hrrvu2qcjkMccQBDtoosuahw/6AzdU6zRJ3aLkJfblaz3TyXVYoEcL9BGMAqd6FNOH5KuxDGIV111VUUzaAgPRf2HuuANdECOtor9R7a13Rklx0lK91hfeh0NDRnD0hljXvrcFP8zh8UAmtqILsDczTxMmdtvv31vjlAZ0jrcx+dj+dw1ukluzpqSLMi1O94bAvc6sg2Mo+PqfdAWuybVL4z79vobMgK7g/lVdI0p8wLf4Yr34HVOVuC7NaUg0BIwbf3npGpxh3SjiIUpXud0ltjOnJ3dBdPaTQJvxHrRibAl+c4julbMG+saXY02pQuk1rFVpqR/Wc4Ms5BrKJzW6Vdd+I62MQcRXEB/lsziHnoZ78i1P8fvXWwh+9U+0SdSXzE0tF+tva6Vw2bdPTCNfXjllVcewLRs6YsvvrgR9znfG+/T8yVbvA73dW2uu+9Az4aBHggr59rhw4f3AQIF/vnnn68U8i996UvVR7LjamqeZbLEsGTlpxw5csDBwLpH2UOHDlVGlZwOGlTtuGlzXBirmviQKo4NvoOgiVp1tUnTQE+bZ9IyMFGdswrBg/MVA4UVg2kbm/Kp9+qrr65WGGJsQl+9G1piHGE0sBI2dViKsSPN9SzPMB44f3Qvl+LwwdGaKnVy4kD3NAiUq2fse31jWgIJhTc61MEyPAG2Y5+XhmlWW2N8gGmChukRVE2Yhi51+ezyY6WtjAbeEenI9XXXXbePD5S/REzj1IXHUmdd5L9oHDI/4LxK+VJOXu6//fbb1RFOotsYKXPTo48+WvHKBRdcsDfG3L/++uurgBRzDu3mWE0CVGeffXZVjjLsTKCfzH+aT7vKmbbBV97HsVbMgzi5Mb6515VuaaCn6/OUx9l92223ZQ2QOp7iOdpbJ0fa5CMHMHxybW7LdzxLG5CBpIypsIvihtGPQyV9B7u1ct8B5DsHzz77bBHLmnuZq2LdkVfSI2ZjualcQyN2tXB0W6QTmEDRhp5gkx/BHPhLOOVZeAWeibKc59h9Gu/BRwS/oJd4SzTQjpuohygvprSJeZz5Bv2szmCOz6TX4Jl5T4GeNL/tf3bZcoRiuhKNNtJvgi4segHHsc5SfpMMhO7oRXFui3UfOXKkmsO4d+edd65wMsV8rutwT158Pn1O/7WQKgaXyZuaLFB769IhcE+gB9xjM4hHwDqYh16pzrwk3JdkQQn3TfnYINAKXmK+SenIWJKfc1ojF0q2xFIwzRhY/+nu0AJ7Of2nhOlN8ut0Fs1X1I0DLcU6+W0wTTnNLzHozH3p/8jtksxVe4ZMo+xIF3CorevYKlPQvyxnuvMjWBtKv2qSM/Bck37Vlu/Eu/AWPIhuLX8OC03Rs1IdWM/k+L2tLWS/Wt5XbL/aMH41+BR7An8a+E1lRLSl63DPM3W+t/h8Wnf8X4f7WKbNNXM1tiV2W5vyfZT5TB+V9FUHRgoEgBDr1gkQWFmFcsGZ7cePH6+cCDi1GWgBhYmOYAFOBYQ8gh8nN5Msk3R8PwY1TjI5EJhQcUywsjeW45r6EfxNx3RIqaCv6a+rUsREnpu003bl/uPAoK04T1kZK8eVypIP3VgBAE0QTk888cSe8CjlEzBgDBCm/LhWEAEnDYKId+UEDEGwm2+++QB9KY+jFEND7axLaS9jmjpBaDfjh/OT/tc9P5X7Q2Aah9qJEycq5UAOApTc3ArdJWEaXsHhSD/BNCn/xUMlTDflM+/IMYVQwEmIo1Y4go447XLz2xIxjeOEI77gsdhn8R/4YzWS6MMYMEcwJ3OMme5Dt/vvv7/aaYmDawpGI22N8gOnPfyDvIk7R1C8mUOVByaQDQSE6Jf6SNpFzshoBbupE5i65GhO5Yv+p4ZubEfumnfwzlxe6R5zDYssmItz8q2Jp6i7SY6U8lG+cdrJAErb2pbveA7Zp4ALhlWkPXoDdaX1wwO53X1gGPzkxi7WQTloRv3xvniF3cfMOeuOTaxz6OuUF8AEfHHs2LHqqDO9Hz5gDuAYUXQlcAN/Rb6irHiQOihHGcqiG6TBe8qLloyd3hVT5YtH0pR3xPKla9qXGtqlZ5SP8415g7FPeZV5A90GLDKvEpChrBYdlfJpV5MMZMcCRkg6P9E2cMZCKALN/Ee3Onr06IGydbhPn1d/01RHOxFAjXm0aWqyILYvd9037sEUPCO+AJfo8OCfeT9tg3A9d9zTryZZUMJ9Uz488dxzz+3ZCrlgJAt4sIVS+lIvvIjOl+bF/0vCtOZe2c/Wf+odzSX9pwnTJcyX8pt0Fp6ts7PbYppy6Pe5b+9J/8fOTn0LkS+2dU1bJTtYvMp/vVtt7WqrTEn/spyp50GNs9Ih9Stw1aSfNelXPNtGltAPFg9iQ6MvaxFBlPG0AdmvPpPW8Tt5bW0h+9XqfcX2q/XvVwObnJCSYlm45n60pXO4h6/qfG/p86o3Tetwn5Yr/cdmw7Z0oGeDQI+IjDGEgwXDp8kJQh5lzjrrrH2CX/UoxSnMxEpZIoC6n0uZMHFw5lY65sqPdQ8acU4oQMehkCpjDz/88CruTEKRwEmpI1Ga8jEEcD6gQKl/XHOPPJiGH3nQFGcGqcqyCpoorv7rPH6YA8dWzqmmsqQSfEwAuRV4lGF8OD4nPjfl674xzeQH7tvgfymYJsAI1k4//fRq3En5z33GvgnTpXwwp7kBeqUOWBS8yA/GdHvFHNrDxyjB6crBMXlW8gNZA3/WtQVctJEdXeRMX4pHXZv7uq+zqJEvuUBPE8+V5Egpn3EBMxyBpv505Ts9x1hLl4D2OAWYQ8lHhqZOadqGQaky4IOdIjjGCXJI/qn+XIrhxiKT9LgglcXRjoyO/VPeVFPxAvoUeM+1M/JBKRjWlgcpx1xPoKJOJ8i1ZYx7OhoRJz5tFu5oC1hADwNzahtHBUvXKeWXZCCOg3Q3KroSuIWXwK7ag/zkXlzQkOKeNtY9r/anKU5z5grpmmn+FGVB2sb0f9+4hy+QKfyaeGQpuC/N9SXcN+V/61vfqvgMWjJuzM3p/MwpETFozyIVAm7YEOh6ONHSMY//l4hpsAXNrP/U67JN+k8J05vmMz6aq1OdBWymdnZXTGvHMTpcxHq8JmiKTIn3lnI9Rf3LcqaeF4W7IfWrJjmD3pLTr7ryHf3ArmABNXYFPJ76xfA1xMAPz6T83tUWQs9gkZB0TdEzpvar2a/Wp18NXsXGiLpXky2dwz08GX1vTc9HLOu6De5VtpQ60NPDjp4SkbeRjwODHSNNys822tH2HblAD4zKitr4rSEUCFbucBxJKZ86cVBFZwQCgFWIOGqjIYWhgDNDRhbCkGMpZLzClKyU53ney8o7rSit6+Oll15avT93bI6eYQdGKgiV53S/srQETKMY4RSNwUuwhuMPQVLCdClfmME4Y4WjVljrPgqecGtM78eXaNSUIugZq+hUbCq/9DwC4cyxClJOvb+5QE+Jp0pypJSPrOHYUNFmHb7Ts0rZgYSxQ6p78DU7h/SfFCe1dqYx9+DwwFnINUGi0gpwFEJ2uOFI5JlYt66Rb+l7lef04ByDXsEOIBT/OdAnF+jBYIHvWXijPrDjS98qaspHx2qSgdSHfhcX/aB3oX/BO9Qd+QkdjePjpLvxfMQ9/5ueV/tjCtbBPNiHB2Keri0LDmJbtMmlS8B9aa5vwj14acpnp060QaJ9Aj2xfQjai7bsosMO4RhK2hVXlKpMTI3pbniNtKu7XoL+U8L0pvmiXU5nSe3srpimbvQPZBH2tt4VU+Zv5I3snpi3hGvrX/v5eglypklOlORIm/xUv1qH71LeYVcgOhM6mvKwL+LRwSm/r2ML2a+2H++i9bqp/WplXzI8hf2hBQvoUk22dIp7xib63krP58ayDe5zz+XuOdCzkEAPg4tDZy4OBZTJdEcPhjvtj6vaYDSMIZwPpfycUy++JxpS1BWNLJTCuAKI5/jWBcYWK2hwouMgzDER92Bkjm/BGVfnKMBAw2k8F4dPXV+3eX/umI74jXSTM43JfBPMUyfKEyv705XIOMRQglG2KGdMd1eYwB9HLsSx2+VrKSzaJTl1WuRkwqZyJFdnlDNcYwCJNnV8h5xA5vCR+fQXPwBJEBdHN8aZ6iSlHyif8R6OQWQW91jtzcIJ5Bf3cBJGR318Ttd8m435KO5sVR6pDLV0rollfL1/nkHus1hlLotwJJtk5DCe6E7gAsxpfCMfNOXjmJIOp2dJ43t4nvq4zxxDUFJHByLbcITEZ8F9bEvEfZvnY11cg3f6B/7TPP23LNiPa9GlLl0C7iPG1c841zfhnnJN+drlJhxTlp/eQ8A+zrPkaQcnvBEXxOmZmBrT3fAaaVd3vQT9p4TpTfOhXZ3OktrZXTGNzoSNja3NWOTGiSA/i+hk9+TKzPWe9a+DPL0EOQMfrKtfleSM8qVfgf06vmO3Dp8vSO0R/vM9YPENdbLbOvV1cR+fg8ql/E6+/WoHMSx6bSu1X63sa8Y+kQ1UsqVT3Ke+t9Lz6bgj20r+5PSZpv/wqY9u2/AbPU0E3mYeSgABiSYlaJvtaXoXjLHtQA9HW0Eb2oUAIugiRsaREAMwOOBwNlBWz/GRSe34SftGHqtbOS8zzeM/Y8PZxZzXm8v3vbzwmzumhw70IBD45s/FF19c4QoBroAkhj5ONmHLmM5jTPRJU3ZH4SgvOcfT55b+H8OKQE9U6Kfa55zTAscaRhXGjtod+TT3TJRXpXwCKwR65GjoyndqEynzH05s2ozs4UP0cnDQphhQYhUS/K/n2VmkI68oywpw5JQCQSqnFOcMDvk6GcV7oVnsm5512jy34HxCP6gLoE2JfjEAo3Zt4ohoE+jBca3ADscmoJuBWfiSa1bMydHAPdooB3mK+9Lz6pNSeAxdD/1MPKs8pZYFzfgWndJ07rgvzfWb8gXYxhaBbtgm2BpcM9cy7zMni6Y4r2kPeVzjkGuyN4zp9TAretelc9d/SpjeNL9JZ0nt7C6YZjywdTi5pE4n17cX6/iibkzncN/6Vz0/z13ObCJH0JNKz0f9Cqx35bvIH3y3km+PwOfIrvjdcOYO2qLyKb93tYXsV6vHvGi8TsrYzdlXHO312H/ZLpsuoMZGhkdkK5ds6RT3qe+t9HzsA9cl3KflS/8d6FnQjh4GG+OXiDnbKkuDP2Y+wmnbgR4mB1ZGw3Q4sxA60AAmQHChSIkmKJIwOoYXDgAmEAwr5ccUY4xVRk00p26EIhNsfNbXZUE2Z0wPLZDAJx8e1Ue84xFx4DWe4W5Ml7EW+ZHj2uoMylhuF6+Zywj2pEcFTo0WOacF88mQgZ5USezCdyn9kFMfffTRHn/HVdw4vzkKVM9wFBAf79Z/5h5kF3MER63hVETO5ZzZciJQvklGca43Z2zrHU7bzSnQF9qjJ0Tn7RTpJ2MJ/Kh9JUdCU36bQA+OmgcffHDvfeD63nvvrfD94osvVs4DyTLmZYKNBHRoX4p77jU9rz4pRW8rjYtlQTuci6ZK5477nPyItksT7ts44LBBmOOxSbBNxHM6jkd0JKUt7Ar89a9/XR0xyK62usCxMb0eXiO9m67nrP+UML1pfp3OkrOzu2BaQZwmnRPdBB2laezmnGf9K8/Xc5czm8qR0vOpftWF7yK/IJ/wL8rfgA8POacyfA/UfrU8RkWjqaT2q9Uv9sRGxsZg0SbjVbKlI+4pn/reSs9HTLTxJ8fyba4d6FlYoIdBh4Fx2EzZSRmNJQEV44ZVrwgt3YNBWGWMEVTKR8Ckgof3vP/++3vfJtAHl6lX76DMddddt/df9ykrZwIft0SZUF5McVBIuMX7vu5P4M0V0+CHDxbiPIt44D/OJVYpb4L5WGe8RliwIjTFrDHdHyYjvXfxGmcHypB2kE2RBjmnxaZypI2cQYbFY3fa8l0XGj7wwAN759SjmPLtNxS6WAf8LxlGAId2xHxdI/9wHDYFeVTW6XpzCGOBkzYG56ZIy1ygh3PXc0eLoFsxDzTlE4hpkoHsVENeoePFIBi4Ba/8Ii5xWiDboF0d7smrez7SnJ2w7KSI7435vl4P65Fuc8Z9aa5vwn2JL8iHTtginJsf52aCo7kgDnYIvABNuY501rUxvTlmRcumdK76TwnTm+bX0azOzm6DaeZyFqsscadOHb18vxsfz1nObCpHSs/n9Ks2fNcFg+hiHC2KfcVzdfyOnJNNQhsYt9x77Ffrhv8cDUv37FfL+5qhG7tH+YmG4FS4jbZ0int4Led7q3te9SsdAvcO9Cww0CPATDlFCKQ7ejD4cX6zk0ZtZyLCwYATq5SP4v3ee+/tC7rg6JMzQnWmKWdl+2PrwwuVlO5L+5/DNH3EgYWjS0IiBi9LmC7l19GQtuBgq8v3feN9FzCQC/SUeKokR0r50JXVpwR7UAKHoDPf66F+GUkcO0pfh3iX69ytuSIX6GH3GLoVOw+EB/D35ptvVrpTKb9JBqo+dp7hZNT/XIqBxa4GHOPkG/e7hc0cJvq6l8N9aa4v4b6Un2s7MgNHAXIql+97xnxbDOT0nxKmN82va5vtbOO2Dhu7dD8nZ0pyYtN86NtGv9pkHFiAw6511WF+N78LC5ukY/nVCNhga8RNAbl+pLifou/NgR4HevYm5hyIh7pXx7x894Fgj1Ymc9YizgStbmvK5xmejStmuY71pf3B+Y4QTe/7v4VUVwzUYZoPPL/++ut7K11Y8cJ/ffi5CdO0oZSfayfCx6uUjeEcNnbpXs7RUeKpkhwp5Yu+yKwhVqCyCg4jKh6hdvnll684O1vvdmreXxcDOUcEgRVklr75RoCR3Xz6HmQpvyQDaSt1Uv9ZZ51Vi+Of/OQne9+j4xnj3jhfF+fpczncl+b6Eu5L+Wkb+M+is7gbNFfG94z7NhjI6T8lTG+an2uX7WzjNYeLXbyXkzMlObFpPnRuo1+tOx4cV33rrbfu7bw2v5vf18VS+tyYfjWOi77++utr7ZEU97R9ir43ZDrHLT7yyCO1fUnpvun/z2xaQZ/Ps9IeAkCIPut1XfmJjm8I8DHFd999t/r2ALt62LGjYAvO6RdeeGF19OjR6oNUnAdKsEYrl0v5TArUf9ttt1Xb7viOxBDONo9vfnx3kS4lTLMKGacY38+58sorq4+iHzt2bE8pKmG6lL+LNHefzX9NGECeIFfYzYl8J0Uu6Bs2JZ4qyZFSflPbnGfsThEDHI0Dz/DNtw8//LDawfPMM8/s7UTlw7qvvfZapavx/Rx053g8cFN+SQZOkR5u027waQn3pbm+CfdgqJRvnO0GzrY5ziX9p4TpTfO32Ve/y/wzBwyU5ExJTmyaPwcauY3mZWHAfrX+sOBAjwM9kwtwcYYn28dZBYpDToyvtJTPkQdEYVFWcTDoOaf9TRymZTdaEqjkOCeOptEZtpGGJUyX8mNdvu42NqbXbtKrxFMlOVLKN652E1dLHnf0MfQy9DP4J+1rU35JBqZ1+b/5ZyoYKM31TbinD6X8qfTT7dgdnithetN8Y2l3sOSx7mesS3Ji03yPUz/jZDpOg44lm6Jk45fylzLODvQ40HPAWF8KuN2PaUzGHgePgzFgDBgDxoAxYAwYA8aAMWAMGAPGgDFgDBgDxoAxYAwYA8NhwIEeB3oc6DlpOAbz5GXaGgPGgDFgDBgDxoAxYAwYA8aAMWAMGAPGgDFgDBgDxoAxYAwMiQEHehzocaDHgR5jwBgwBowBY8AYMAaMAWPAGDAGjAFjwBgwBowBY8AYMAaMAWNgphhwoMeBHjPvTJl3yAiw6/YKA2PAGDAGjAFjwBgwBowBY8AYMAaMAWPAGDAGjAFjwBgwBuaBAQd6HOhxoMeBHmPAGDAGjAFjwBgwBowBY8AYMAaMAWPAGDAGjAFjwBgwBowBY2CmGHCgx4EeM+9MmdfR9HlE0z1OHidjwBgwBowBY8AYMAaMAWPAGDAGjAFjwBgwBowBY8AYGBIDDvQ40ONAjwM9xoAxYAwYA8aAMWAMGAPGgDFgDBgDxoAxYAwYA8aAMWAMGAPGwEwx4ECPAz1m3pky75ARYNftFQbGgDFgDBgDxoAxYAwYA8aAMWAMGAPGgDFgDBgDxoAxYAzMAwMO9DjQ40CPAz3GgDFgDBgDxoAxYAwYA8aAMWAMGAPGgDFgDBgDxoAxYAwYA8bATDHgQI8DPWbemTKvo+nziKZ7nDxOxoAxYAwYA8aAMWAMGAPGgDFgDBgDxoAxYAwYA8aAMTAkBhzocaDHgR4HeowBY8AYMAaMAWPAGDAGjAFjwBgwBowBY8AYMAaMAWPAGDAGjIGZYsCBHgd6zLwzZd4hI8Cu2ysMjAFjwBgwBowBY8AYMAaMAWPAGDAGjAFjwBgwBowBY8AYmAcGHOhxoMeBHgd6jAFjwBgwBowBY8AYMAaMAWPAGDAGjAFjwBgwBowBY8AYMAaMgZliwIEeB3rMvDNlXkfT5xFN9zh5nIwBY8AYMAaMAWPAGDAGjAFjwBgwBowBY8AYMAaMAWNgSAw40ONAjwM9DvQYA8aAMWAMGAPGgDFgDBgDxoAxYAwYA8aAMWAMGAPGgDFgDBgDM8WAAz0O9GzEvDfccMPqn//85+qmm27aV89ll122evnll1f33HPP6rOf/exe3le+8pXV448/vvrb3/624nrIKKbrdpTcGDAGjAFjwBgwBowBY8AYMAaMAWPAGDAGjAFjwBgwBowBY2DpGHCgx4GetYMtp5122uqVV15Zffzxx1XKfzEMgRzuv/POO6tzzjln7/7Pf/7z6j55XKu8U0+2xoAxYAwYA8aAMWAMGAPGgDFgDBgDxoAxYAwYA8aAMWAMGAPGQHcMONDjQM/awRZ26tx///2rDz/8cPXQQw/t27lzyy23rD744IPVU089tQJkYs7zzz9/9cYbb6xOnDixuvDCC/fuK99pdyY2zUwzY8AYMAaMAWPAGDAGjAFjwBgwBowBY8AYMAaMAWPAGDAGdhcDDvQ40ONgy0zPXfTEvbsTt8feY28MGAPGgDFgDBgDxoAxYAwYA8aAMWAMGAPGgDFgDBgDwoADPQ70ONDjQI8xYAwYA8aAMWAMGAPGgDFgDBgDxoAxYAwYA8aAMWAMGAPGgDEwUww40ONAj5l3psyraK1TR+6NAWPAGDAGjAFjwBgwBowBY8AYMAaMAWPAGDAGjAFjwBjYXQw40ONAjwM9DvQYA8aAMWAMGAPGgDFgDBgDxoAxYAwYA8aAMWAMGAPGgDFgDBgDM8WAAz0O9Jh5Z8q8jtDvboTeY++xNwaMAWPAGDAGjAFjwBgwBowBY8AYMAaMAWPAGDAGjAFhwIEeB3oc6HGgxxgwBowBY8AYMAaMAWPAGDAGjAFjwBgwBowBY8AYMAaMAWPAGJgpBhzocaDHzDtT5lW01qkj98aAMWAMGAPGgDFgDBgDxoAxYAwYA8aAMWAMGAPGgDFgDOwuBhzocaBnZwI9n/vc51a33Xbb6vzzz9+ZPntyX/bk/tnPfnZ1ww03rK644gpj2gFbY2CGGDjjjDNWd9xxx+qLX/yix2+G42cZ27+Mta7WP02N0+nR1HP/9MbEfLLZmHju3ox+xp/pNyYG7FMw/sbE31TfPWddzYEeB3oW71zCCf7888+v3nvvvdW///3v1Q9+8IPF93mqk6Xb1Y8SQbDyqaeeWr399turjz76aPXzn//cmLaT2BiYEQbuuuuu1T//+c9KJr3yyiur0047zeM3o/GzLOtHlkU6Wlfrn6aRvr6eBn09909jHMwP/Y2D5+7+aGlcmpbbxoB9CsbctjE3h/ctQVdzoGemgZ6vfOUrq//6r/+yY6iFY+jkk0+uaIUzfNuBHlZHfPWrX12xymkOk9qYbTSm2ysa8D64JmgJprcd6PFYtR+rMXlqk3d77hp2jE855ZQVNP7b3/62mnqgh91GDkSV8cC8zNy4Cd/t8rNj6mo5uhv3ZcxDN8uKdnQSxsac+z1HtRsrY7odnYTpMeduj1W3sdKYzS313DXcOI/tU+iCRfN7exxYh21PqxwGx9TVcu1Zx/fmQM/MAj1McL/73e9Wjz32mAM9LYI8kVHGCvQ88MADHq+GsTKm1xdEYwV6Dh06VO2Ss1Nz/bGLc9PUrlH6H3nkkRVzF/w5tfYtqT1zCPSw2o9glHfD1vP7eeedt3rhhRdWV111lfmlQd634d0xdLVcu4z7eryLXpYVZRqJVmk6xtyPzvaPf/xjdcstt3ieqpmnjOn1MT3G3I2Oajt7/TFL56Up/rd+tZ3xHcun0AVz5vd2WGCX5YsvvujPVdTI+S6YG0NXy7VvHd+bAz0zC/QwyK+99trq7LPPzirpGKbPPPPM6p133ql+J06cWLH1LHXWnXnmmaunn3569eQ55M4HAAAgAElEQVSTT+77UTYHriXcG0MBhW4YDaIz10ugZZ99KGGaHVGPP/746q233qowTfrQQw8dCHSycuGvf/3r6vjx43v0hu4YAOT12eap1DWWUsZ88oc//GH10ksveQV7D0rEVPBEOzS2OINQEHJtu+mmm6pjxyRnXn311dVll112oOyPfvSj1d///vd9/AhPooDm6t3Fe1NRIEu0J4CBPuFAxkEjC+cpc+Hdd99di+vf/va3qzfeeGNPN+M4WZwXKd1/+ctfrp599tl9PINcQ7dLyy71/1i6Wo6exv1BvItOlhX1tBGNmtKx5n7mEuYidO+m9u1injG9GabHmrttZ282blPmdetX2xvbsXwKXfFnfm/GhGQ833DO0dZ+tWb6pTQbS1dL2yH9pIvvzYGeGQV6LrjggsrZXce4AOJrX/va6uabb17dd9991ZFOH3/88erdd99dffvb397H7Aw8zjp2Bv3nP/9Zvfzyy6tf/epXWWddCrS5/h9LAYVeGjsbVvsnV9GlCdOnnnpqhdU777yzwjKY/uCDD1bXXHPNPkx/4QtfWF1//fVVEIjjzDBkCVxee+21BwKdc8Vw2u4xlTKCxXxjhIAPwidtm//vx/pc6EFwhmDqJZdcUjumBHVuvfXW1RNPPLGCH/mxwAAejP0899xzK7mCfEHOIG+QT8ipWG6Xr6eiQJbGAB4/cuRIpSt4J9+nvC26NAVGKYMcgmcoJ555+OGHD/DB9773vUpuIb+QYyxqQFdDDpbGaCn5Y+pqKQ01vsxhxv2nuIdOlhX76ZFip/R/zLn/8OHDqzfffHOnAsil8TCmN8Mz9Btz7pY9aTt783FswyvbKCP5a/1qO2M6pk+hK57M73lMEARjsdijjz5a65uxXy1PuzoMjqmrpW3q6ntzoGcmgR6EHUzL0SB1q6wjGH72s59VO39YcY1TgePeYr6ucSpwJMvXv/71bL7KLSEdUwGFfjh1cN7U7cZaAo279KErpsEqgQWMUzCN05g60nfiRAbTl1566YG8tOzc/4+tlLH6nEByU1Bg7jTepfYjWzCo6ngrpQU7DZBJH3744epf//pXLc+xm6Ftnek7lv5/SgpkidYsGEGnaNq5UqpjafnMfcyBN954Y1HesLOUHW6sxkKGIcvqdC94q05vWxoN0/6Mraul7THuDxrFlhUHaZLipvR/zLmfoCX6dJMzqNT+peUb05tjeuy523b25mM4Jb62frXd8Rzbp9AVe+b3g/hg4fR7771Xa49HGtuvdpB+kT66HlNXUxti2sX3hl6Dvclx/LGOIa8/M2TlXetmlR4EgBBdn91meZzW77///orBbfPeP//5zyuca0yC9A+FPrca8Re/+EUV+U1XYrd5x9zKjK2Adh3DudG3a3u70oMdZzi/4IGPPvoou1ONNqCo4Ehja2rXNs2t/NhKGU5KnJXMM3Ojndt7UMHBWc0ugnS3XI5W8BdBIXYqIF+QMzkcEIx96qmnqp09uXp2/d7UFMim8WAsCdjV6RNNzy4xrys9vvOd71SyiePACA4hx3I63WmnnVbxFjsmlki3Up/G1tXS9nUd5/T5Jf63rDgoP7uO89hzP4Hk3IkPXfuxlPLG9OaYHnvu7mpXLgW7S+xHV7lr/Wpz/h3bp9AVx+b3/WOOL5vFl7kTNnK0tV9tP/1yNOLe2Lpa2q4uvjcHemYS6EEhJ0KLIEsHPP2vVaM4CZgEWWnNiuvcilMFhNI6lvh/bAVUEzDO0aV+M6YLbrpgmnoJ8iCUNMHhWM6teJbg6tKWuZYdWymTIk6wx8dxtVMYpoo1jSXfgGsTJGUlEHMZZeFD+DG3Q0EBIcpPte9jtmtqCmSJFugRHMPHruFS2aXnSxahR7XpKzTDAONoBQJm8Exul7YcFrs6p46tq+XG0rj/VL5ZVnxKixxW2t4be+6XfciiwLZtXmo5Y7ofTI89d9vO7mccp8Dn1q+2P5Zj+xS64s78vh8jkun4wdrQ0n61/fSro9nYulraLukrbXxvDvSsGehhxSVCCIM9HYD4HycXR3V97nOfayxHPdSXc7ARFMChxu6jU045pbEe3h2dBOzUwbGAQyGN8A61apQVqvfee++B7zVEuoxxPbYCSp9xCLUN2G2bRn1jGsyD/bPOOuvAEWtdMZ06i+t2qjH5DbF74Lrrrqt2K0CjbY9L0/umoJShUOD43dXV503js0keWIZ3cvwT621bjmea5AxOZZSGJ598shXGY0CVo43qdiiA0SF22E1VzsSxaXM9NQWy1Gb0C2RY2+BGqb4+8yVzcnpUfI/4oM18Tl11uh6BG+Y+vqET66+7jgtr2DXHt+Zy35sbYqf1Oeecszp27NhqDgHXKehq6RhOGfdtZUDbcvQd3gAzuUVJc5IV9AN9ER0uHdOx/4899zO3sbCD4ySndqpDW6y2LcdYa97PyYc5YZq+TFX/mcLcPWU7e+w5Z5P3D6FfNcmZOelXU5YzXcZ8Cj6FLu2l7JT5Hf2pTo+K/WxbTjxY5xdg0Qancnz/+98v6jvIQXzLsgnsV6sP+oytq0Ws6Lqt782Bng6BHhRKjAUUYxwdnFVPysfIo5IMUbVbgW+y8OPYtdtvv/2Aw5uyGN8wJis733777Yrx4jFrTBK8q60DTqtG1SZWIua+oRADQgJOH+nUGAJ6QD/GgIAXKWPCB8X76G+XOm655ZZqLGhTl+eGKjsEphFE4B86v/rqqxWtoff555+/1+eumI67B6CFVi2kO9VSwdUX3eBxMES7+6pzk3rALjSVc535g/aNgSsphl4VWq8kdBnrKD+QL4zxW2+9dSCQ9uUvf7mSHfDZ66+/vjpx4kRV7sc//vEBjLaRMxrH3//+9weez7VfK4HIYx6p26EQA0K5eta9NzU507Uff/nLXyqeJVDAPMZYsxijzWKOru/qs/zpp59ezetT2pkaeQF+gZbwxIUXXrgPy8gR9Cx2OfMdN3jnueeey87r8AOBT/hKZZHfkZbIhbZGFYYcDlUFxOFJ2oJOkn6/KgaE4vs2uRZ/44jbpJ4hn52Srpb2c4q4H0JWoKeht6FPiFfuv//+fbaLsDQHWSFdE15Nx3Ss/1OZ+5HbTz/9dDXPTWX34BCYtv7Tj27axC9TmrunZmc30W0OeUPoV23kzJz0qynKmS7YmpJPoUu7KTtFfo+2BroUdgk+XGSR+pf637AzsCewrU899dS9cpRv41ejHHYx/gIWp+k9dan9amW5OBVdLTeG0sNLvjcwh53pb/QE5ssRlJVARDtZfXnrrbdWRg/BGBlCip4y2bPzBufABRdcsMdohw8frlZ+slJT9cPkR44cqYyqM844o7p/+eWXV0waB06D2dZQSZ0E+ugmA00f9P6+Vo1SP22TI5/3YzzQP/pF3nnnnbf3Xr1/F1OcPDj24viORYchME1fwDqC5rvf/W415ow933RAeKmvXTGdOovrdqpRbx+7B6ANwaorrriiajPvx/mBs4dJkx1rYwQKRb8ppVrpHMd3Su2bU1uQHwqOSn6AaZTEuKMTBQ0nNPckOyRPcGILt/Rd96lXZXNyBgcwMqKNIzgXUM3tUODdfe2ws5wpK6XbwDpzLwGLNlvGt9EeeAF58+KLL+7h++abb64MJi2OAYd33HFHpb+hj2A00bYzzzyzWriDzGBFptoL77HohnmfZ5EHR48erYLr0SGKUdV2AUBuYQ2rstPvzdEOgmgKCKlN66Q//elPq37TX96PXsp8Qp/4YKv6t07du/bM1HA/hKwQPzz44IMVj4CTu+++u8I4fKYxn7qsQDdDR0NXQ1axOE9BWmQjuh08rf7scoq9RsA7ju9Y9BgC02C4jZ09dUxb/2mv/0zJzh6Ll/p67xD6VVs5M3X9ynKmPU/2hcdcPVPid+QNtgZ+Ptka6Bos5mJBn3b/cw89i3JxEwC2BwvVnnjiiX0bCNr41bAdCBbxi/ZMjmbcs19tGvitG5/S/ba+Nwd6WuzogXFhWJiUlW0ivhRDnHAcXYMihuMtdbRRHmGJMh1Xweq4mz/96U97dcLc6Qd6mRi4J0NF78+l6apRlcGwwYmHc0aR3jQgpLJdU1bNQgMi0TguoBUOFlaW4wRhIsutMu/6niWU7xrgGKrPQ2EaHiCoo0Af7Rf2YpCxC6apI+4eEE1yO9VSwaWyXVMpohLWhw4dqnj7yiuvrFaKMxfceeede3zbtf4llcc4h89RypfUr233pU5+QFfmbh29SUAdhy1zeRpAZ1Ul2IxBt7ZyhtXZzOHMUaW+I8+QZTjRVBZlIt2hkAsIqXzX1HJmOkppFwO86zh3KZ/jBRk7cWEL8zdzeWo88S54BZ6JuyGRVeg04i8MevQ6ZBt8ynPsvELf0wKAUrupXzyssuhi8DFtRU5yPxcQUvmuKbvF0R3hVckujGKMTu4TsENn7FrvrpafCu6HkhXo71EGcPQuskY2jsZ96rIC3QyeZlcf8gw+JfiLbcI8QOAHHU/92eUUmsQxH4sWQ2Ha+s909IZtYWsqdva2+jvUe4bSr9rImTnoV5Yz05hbpsTvOVtD7dMxzXX+N/gYfRx9PS6+QDa28athT7DoLfrfmuYG+9Wmgd+mMWrKa+t7c6CnRaBHx0TFIAnEZ2sdDmutvCYIhPGcHsNBWQV64pY6MT8OhD/+8Y+VgY9wS89eVECJtGnQyatzEkjZpX0IWa0apQ2lOtvkQ4v77ruvMgiZoBT4YauYDapPJxONeXTEtqFv32WGwrQmHoxp+njJJZdUDjFWQWsVNX3pguk6Z7GEnxx6CE92D7QJiLahJysu4BV4Fh4F1xjEvAN+alPHLpTRmMcg9i70u+8+KiCayg+MLfiF4xNYVY6zOjqGYzsU6MGxpSPANOeU5EwXh09dQBV+QcbIMci7Cf6wEy62c91ry5lPZcm6NOzjORze0RDpo86udTDfwys5XiAww44VFFyCNehu4B+5l74HOUUd8Rgq+geO2enDggLwi14WgyIKKLVdPVe3sIagEu9XEImd1m0NtbQv6X9oBC3gQWSX5BgO8Ouvv36fTE6f9f+DvDYF3DMuQ8kKZABYBB+cXADm0b/S1aFzkBXoaMePH9+HexakIKO8m+dTbDOWaaB7DN4fCtPWfz4d6zHGdYx3aszHtrPH6Htf7xxSv2ojZ+agX0Fry5nx55ep8LsWbqW2BvoGu+s5+Qm+YlcxZVKfMnhSoAf7Q7t/5GMp+dVUDj21NA/YrzY+bktjVMrXeJd8bw70tAj0YKBj/KQOuDgIMA2rxFCYcQzEPK7lgKMMZbkXHdXUzw+ncjx2h3JdnOK5VaPUEYU2Rj8OD5wY8RgSym3yA0wc88BkxA8HBs7JtnWKBnNPm/orgdRmIm6qZ9O8oTAdj1TTOCLQJLDU7i6Yzu0eUD0yDhGYF198cbUSgvLK3zQlOEXgCMc1vM1ONSbXLvWKDnNOm/orYdPW4dlU167mleSH6KKtuqkiqXyOhARn8ePKbeVMF+cdBjTBHr1XqRRd2gBv1gWEVH6d1HLmE11hyPmkNC7Ir7FXgZd4QX0Ag9AKvQfs6D6pjCryI54VsBSNmfvZHRMdxF0cEbwnfp8ntkGLLqQ71gWE4jNdry+66KLqOAf6gw7KMYvohG3rER12IW2iyRRwP6Ss0PGbGmecDexCQ4ZEusxFVqCbEDSlPwR5CKLGBUexT7lr0WHuaa5vuienKzq57m07HRLT1n/22/Vzx7La34TRqdjZTW2cet6Q+lUbOTMn/cpyZlybZCr83mRrRH5v8r/hk8WfhQ9Vxze39avJF9PGv2i/2vCYlazaJI24Sa813iXfmwM9hUCPto8yUNERkBJcEw1nKyIg03wp0+wGiAY2TA3TE+DB0Oc9aXSui1OcuuLK1NgOCVe2D/KBqb5WjeL84ExKnOFMUDjDMQ5ZVY4ziHMo0w+LxXbN6RojMTp7urZdOInH9XWtY9PyQ2OasQaDb7zxRiWswDS4iEHFLpiG7/SthbTvcacazue+dg/AowSnaDc8Db8QGAXXCGCCvrE/abvm9j+uVO/adgmbvuaTru9fQnlW+jBX1skP9VF8ExcMKA/MIl/gN+SN7pO2kTNtnXc4ZeAFfZcuvodr7VCgjciyPnfYLUnOIEu06yql4Sb/wUGp3k34nbZhSCDvdbTZJu1d91nmZxzROV6IddJWeALdKN7n+txzz62+xZMGraAhC3a0E4bn0c9YSKM6ujgi0Ak54o1AqJ5XGo04+IV3oicof5OU9z733HNV2x9//PFq1xDfGkIHZAdRX+/ZpI1dnj355JMb9S9w3+TI53nGtss7Y9kp4H5oWQEm0HPYsQfu+aXflJy6rEDeoaOhqxFgxRaB/5Gv6HTMHZvgIGJi7OvPf/7zK37rtqPtWK5bf5vnhsa09Z/9wZ42YzJmmU0xPQU7e0z69fHuIfUr2leSM3PQr5YmZ0r61bq4Ktk6S/CrQRv8VHW2hmgnXFMu51PW3MU3QrFP9Fwbv5p8MW0CPfarbS4TS7Z2CfeM7Sa2uMa75HtzoKcQ6BFTpo4AMZ9SMWcusqY6MDo4ToRnfvjDH1ZHW3Gshurg4/UEfFKnuD40VhfA0fNNq0YpEx0KOeNN9XRNiQxjQGFYMRlhODDREBDhGqdCdJB0rX+b5Wnztddeu/rGN76xNy7x/eQx1vEedOXDrxxTl3PkxLLCCXSJ97d5LTz2jWm+oUGwhS2q6g8ff8fBlR7z0xbT1FO3e0DvkGMZTFNW9zdJUeDgQxxvTKY42OFtdqix2hvapc6PTd435LPwJN/IqsMmfaVPsQ1dMC1h00a5iO/w9aeKhuaFnPyIdFKgJ0drOa2Zizkykee6yBkUv7hdPL43XjetBKKcgq/wY8r3sZ6u10uTMw888MABOdOF70Q/jkaFv+Oqe/SMdGewyuf4nTzmAGQ4uz9Uti4Ff6yQh/frygx9v4kX4rtpK1ikfLzPNSv8wTzzPMqw9Bd0LS3oQFlnsUqqMzFWOJHR2ermVr2vbqe18rUIh3ek+p/KrJMiDxkn8MFYsfiCuQZZzfFc9HsTQ2OdNq37DEdYxnFRPcwLBLE4aowy8cO2KkNKP++66659H7jlfnw+ls9dTwH3Q8gKsP6b3/ymCtJrHsGIRSYQ4Ez1qqnLCnQzdDTmNHQ25Cr8Dw+A+T55LIeTPu9hi2B3aD5K66ZfyNx4vwumpxDoGQLT0MP6z6c6ZsTH2Nc5nSW2KYdpeJcFd+wULwU2hacx7ezYnzleMwboIzlbI/ani37VRc7MQb9akpxpo1/Fca+7Rm9Av4QHJbO4h17GO3LPLcGvRr+aeEH9LvnfmLPgu0cffbRajNLFr6adsfHodr03Te1X20w2gmnsCb59mtJWtjSnDDXhPmeLd/EBIBOx70pztAM9hUCPhE2dU5yJDIcNqz9xsOUcdaxoxlgi2kv5uJU8Bm8wRDFCWE3HewUelHYcZqVdIFo1GqPAqkMp7aQtaX8A7T333FOtfHv++eerPj377LNVf2gj+aojl7KSUmUAXZxoYl7u2ancY1xQJKEjAjxdiS7GliEc280zjBuTeLyfXmuVDEpUzMMpxwpbvnMUxz6W6et6CExTJ/1HQKW7bxAo+v6A+tAW09o9gNKgZ9NUR9/w7nTMoDMrpHk/kzLY5j9tkhKS1qf/cXUwwjc69GKeyk8xJXiMA4eAMjwJvtJ2XnfddQeCl5Rpi2mtxkyNKviEuQBcINDS9w7xX/1kLtN8xHtoC85A2hP5Fww89NBDFSbS3QnwKo5RHIhDtDXWCa3r5AflUJCRMzjwWTCQE+zQH6c1KX2nn+AevmgjZ3BGIxtSHort5BonX7ozNZbh3QQMeG/6oXrydl3OQCtojQIY6abrtnxH+auvvroaD1KwKrmCYscK9tz38er4nbkWmd+kP/BO5j7mklTXgZd4J3n0Qf0ZKtVigRwv8E5kBnM+bQKLoo3aI4OLYxCvuuqqqr0o6PBQnOspz3ihMxGQ0fOkyJE2O5toQzo/xnoYL+QS7UxXZ8H73KNNzOXMp/ygc53hrLoZE1Zp8l/OL+Y1/sc8lZ9qyrwB/fQ9zLSdR44cqYJ23OcDyTryIpYj+J07Vpky8fn4TLyeCu6HkBUKNILxuFMTPQ25BF9EWmxDVkhmE5ThG6Z8mw4+QKY16YO0M66klDEsGRjzYp+meI0sxhZhzLFNou5Ce5k3yM/ZDG0wTR3o67mgvfWfvCPI+k+eLm35p05n0fNNmIb2TXJUdUzBzlZb0NmZsyR3dX8dW2Xu+lVXObMN/cpy5pNPO7TVr4TfXIqehs6NfEYusdtedjWLoZBJ6J3xWT2TyjbKtLWFpsLvdbYGfaGf6O/wAAvEUh8sZVjUgZ5/4sSJSrfv6leTDzm1uyO9ubZfbTMZBg2xJ/CnMa45+sqWrsM9z9TZ4m1xX+d7S9uDTMW2ZDNCmjfU/88MVfE69WIsQwAIUfe8nGuHDx/eVwamxHGMAv6lL32pMkTiamrqY8JDiYaxNZGRIvgx1nWPsocOHaqMKjkd1B6cpBg7qQNA+QDtf/7nfypHJpMEju8c+Civd6cr2lgRhjGFEkZQibZQnvZTJwaf3ldKcbxAVwzjUtm6fIyx2267LevIwHDDOYuBguIXBQf9pg8oCPxSg7ApH2MWQUSbcoyGA+zmm2/O9omVwUTg6/qj+wi/1JgmD5qBw9zkr2f7TPvGtAQSuJZgp71gGZ4QntSHEqYpx4eAUT54/ic/+UntkSx6d7p7AKwznqyIgAepi/EHP2AaZ4XaU0p5lmdKK7eb6uHd0D230p5VpwgNMM3uMFaWx7qaME+5unxWv4kX6S+ruGPQhTZxHFZu/muLaeol+JAaMjhWwTQ/6Bf7M9S1+Ch1XMS2RIcv8wM8l7ZRTmDup1uoh2g748D8AdajM5P7fDQdJz70pV0cm8b/s88+u6IpZRgr+oEs0nyoub6tnCkFX6mX1StgCFkUZVdKExl0zMExby5yBpquK0fob9PzzFeMU5wnI43a8h3P4PxUYB3ZEndoIBupK9ZNu+r4HV4AK6UdHpq79V7VH3mpKRCo8pumzFn0F2MyBrTQHZDl8AhzLT+COVohx3t5ljGAZ+K8xXPIkXgPnDOH0l/xltoueZ7qGcqHlgQXmI/YedpEW95NkIk69TwpcgGnEDxHO8R3zHUpf8Xn0muNT+xbWqbNf4JLtDUtC92pm4A6BgU6VCxTknFN+cwb1Al+Y51cMyeiX0tH5b0cT5eWxWmek9/p82n9+j8V3NOvvmUF8zW45xubohtYB/MRc6LFNmQFCyz+7//+r1rgJscH70eXiPOc2lSXohvBfwr01JUr3Wd3OnNnysPQq0lWlPiiLh8+59hF8VEucMO8wGrotO1tMU1foKV0RNXD8wTyrf986hCy/vMpLTbBfJPOAv7qMM07mY/a2G2SyzFoTd2yD7ZlZ0c+ShfGqC3r2Cpz1a+6yhmN45D61VzkTJ2c0Jxdyu9Lv9L7cik2KbIaPVCyJeqzyO50LJfkV8P5jw2PrJYeBZ2gPXoxzn/kOnYZPhP0LdER/QI9lvlAPiL5ttr61agLm6Bp8Zn9ap/KsTq/mcakKZ+FtymW9Rz3oy2dwz34qLPF2/oA6nxvaodS7F10OQd6GgI9DAgOU5QDVl0eP368ciLAfETkxNAwMIOLUwEhjmCH6XG4MAmL6KRMhDCjHAg4K3BMcMRGLMc19SPY0+AMebyTdjCI8Zcq7rFO+pIqCjjDUYqYlOOZ9wCWfkfnaKwrd80Ej4KTyyvdY4IjeAbdcsoYTgb6i3EDTWEgFEc5YAgoMEZMmvy4jkGGpnzq4kcbYXDGj1RtxmHDRK7/OuYF5oHeqVNN5ZRqHCN9lYcTgiPumPy70FrPd02HwDRjh5Cnf3IQILRyR6mIFjlMM64IxIhnrpsCLYwNDvCIO5QOnORMhrRDBjNjyn+NdRvagS94rU3ZtAyYhd8IGODIS8eXejG2oRN9J+W/3lfCfFM+vMjqDdoEPsFppBEOtLiDoyumqRc6wq+ir/pPu5jTwDT91/0hU/ER74vBK7UFfDLXqQ3QmDmCOZtjPnQffN5///3VDhccYHUCXeX7SGlLlB/wADhF3sSjJAkQMAcqj8ALfATWaXdsSxc5I6M050RT4CblyTrnmZzw6Zw4FznTJCeg7yb5OJuZH+NCiHX4jnYwZuJn+DDKdTDLCrOIh5TfmddYZYZjHLnbZk6UToBeE+sWL7ErLJ1nYrk+r1NeoA/wxbFjxyrjSu+CD+BxVrqhmzFfwV+RrygrHqQOylGGsjjW0+A75UWLaMzqnQRDUn5h/qctKhNTcAFfx7kGeUD5b37zmxWPR5pLx9T4x7py18wNyALqzOU33UOOgA3mGuZz3h3LUzf54BreJ1hNX7RoCbo2ybhSPjRId6Oyawfc8k7GXXQ4/fTTq3txQQP1s9I0zo91z8d+xWuNdRwD8qkbGbJN3PPOPmUF8wA8I75gfNFXwH/UgUUPaI1+PKSsQG/DCcQ74jwGzuDPXLvUvjSFXrIR0rzSf3ADlrFHUmctzzbJghJfNOXTv2iD0G9+sb0sPozBy66Yhr6Mc6Qv9dMu6z+fOoSs/7S3o5swDbaYOzRXg+eos5CfYhqdkbmJXeLoFWA28kB6zfupcyp2tviIxam0Te1d11bZppzpW7/qKmckc4fSrxiLOciZEk+V8pF/TfpXF/1K+M2ltAO/G+MMj6d+MTCfjuWS/GrQBFrK1kA3RXfAD8LCdene0Cn6lNGz8DMQpCEoFGnbxa/Gc9jc6OjgOtbDu3lPapPYr5b3JTf51bDdGduoe4H5Ols6h/vUFl/HB4D8zPne4rhz7UBPix09IhoDycCigEtRUV5MyaMMkVMYOubFaxgPZzRl5YyN+fEa5iUQgCIf7/d5TVtZNRpXiWLUYuCkK2P6fG+sSx+DwxmeC/SwKjr+fo0AABMeSURBVDbubEIRwcmJIo4wY1KFqVQn19wjr5QfDanUyCKyTvQdhwd1gwUcsIwHjgVW3mlFqd6dploRSh/SPP1nJQCCQv+HTvvGNBgC923wvw1MQz+OPIwOCcYMXtoWnaExuJbSmgZ6cAhi0IMj2kvKf62absI85Uv5lAH7CHk53rjHDxoIt+tgGn6Atjid4BHVG1PojZEW783lmj4h0Lc1/0EXyQ9kDWNSRytkRhvZ0UXOtFUc6trU5v7U5UxJTmyaD5aijF2H71I6o5TCh6TKg6/ZtaL/pJHfGQfkDY4VrnGOpMZBfFbXGGosUkFR1b2YEvBFRsdAVswf4lq8gD4lYyp9T+QDyfG0jP635UHKMVezEq9u/lOdm6TIDgwyzdX0VwsqNqm37bPgg/FUf9NAD1hAD6OdqhO5K7lQknGlfALKUW4iU9C/4B10vMhPjC2rJ5kb1Rb0wxjIb3pez6TpFHHfFqfiD9K0X/E/tINu/Eo8sg1ZgX4P7jUvwWPwGg6kbc0vvAf85wKrJVlQ4oum/G9961uNgR7GkiCUxm8dTENX7Cz4Q/XE1PrPp8GeSJdNrsHSlO3sEqZL+U2YjjIyp7OkmGbBALY1O3aRLciT0rw0RTt7E7ykzy5Bv2orZ6RvDK1fTV3OlHiqlN+nfpXise4/CyCw+6MNi7yJiwOZD5boV4u2RpPOBW2w80u2PjKjrV+tbvFG3Tite3+X/WqMF/YH8xP0Y3yabOkU9zwTbfF1fADMoSXfm8bWgZ4OgR4RbYwUBwZR4aYgwabtkoKkFYuAF+cPqxUByqb1d3k+F+jBAc6K3PitIiZRHB4IDxRBHFDR2YDxQ8QT51opvynQg4MlBgaoix0kvB/FCye6HPV1/WTlAu3jaL1cGWiMASBnTq7Mku5tA9OaDOOKRcYZpxST9TbpCWYwqqPDSkZfDF7KmUGAoYT5Uj79+3/tnb2uFDsWRudN7usgUl6AiIAUQUaAREJKQEACSJMSQYiENEg3uC91rlbP/c54TJXddeqnq7pX0Krqcv247LW9t/e2XSgR3r/uzFM2GFnpfD2EaViGadgeK0tGrtSjeMbO3dtxGKGTUY4O31sel8wPMxapzwQZl7x37rV3PdPTE0ukl4HPMblDH6BzWFqi/pUfgMTxgqO7XPKPssZZi/GZcq/lnQ4B+hT9hR7DoUKHN+cPbckT9gD5p+0aOoe2oA4wDZ13LcdoQ5lhQGd7rXei/SxHKMMMIwBb7e4aeYnjpQ70EGyh3Sj5wY7ESQ+H6LcxHdfTgbwHOjt6M3Zp7FR0Wzm4h/PhnuemDHCIp8N9zvW5Llu5/93hvYWuoIOMbNFGURdxYmBTpG622g4Fenq6oCUX2BatdFYtaM3oIXAZm+4hTHMN7Xirf6f98zv3c3m7dvunxXT6XGM2S8k05Uy7n74b7X3Z9x+rh2vvZ2tfLS+Te9czPZlqpffsr8jZOfYVs3X4fEHdH+E/3wOOTKIXmW2N3ZRjbDmOvZxj+tWWZxm9zgoEGeCesl5ye+t+NWQKezCBnl5fuua+7ouTPtWffI7vLXWOHDKTy6XbqgYpBbSnLSNv13QoABuddYIjvDcdORzi9SyALcpkKNCDcPH+GH/JQ+l4GLqGd4pzvZfODBMaSO6NAsLBG0FGkZaOHBxwBME4N9exTjcCnLyVWwSN6Cv3pyEu07JPuePcj+M9x695uzbTOJ5gOk4hgks4zBhtsnW5lizm2SW/OcY2TgUa8xbzPZmANZaCe/r06el9Ke8EJJHv0lE4lekYFHBdG3R5F0biIUel7CTtCFvKiyUXjpDXJfJIneIkXdNI3Lue6emJuek4LXGwpZ2fKndlPRPExYlNO4Du4UP00S+UcxlQquWdwQ9Z8opzGS2LDotDvHxO9vnGGO0R98qxcpuRSXFAlmnXuk8bh05ZaxAO9UmQJKNa0+5iK1DeW5brmL7CJoMLOEx+IifoGBzWdXAoOu7JkyfNdJ6J/o4OZ4YFZQGzpLGPoyaOBo5x7+QF5yLtePLVuz7nlVu5/90hsYWuwLFbBjhxEtEhxlFc1s8W++EVvvK8MA6LOcZ++hwtueC8VjpyA9sZ+EXfgb4Gz6HsafdTDg9hmjYcmYXt5L3eav/8zn1dRlP/U+977mf3mO6lt5jm3cdslpppyhUdx/NIYx8nc75fMVTu197P1r5aXh7haO96pidTrfSe/TXVvhqSu/IYyyHz7RFYRXeVn6NAlslrztevtg7PDPpDx6w1YPPW/Wr0kdFH6Sv3+tI193VffKoPAH2IPdjyvUXG2BroOciMHiqLhpOZI61gQVm5U/cZNcrsF+Dhg/CM9Cob6an3m3P+kDHZc2oPXVN2unrpKDxGRiO0rKuL8PEOCAmKC+HKO9HQIeh0vPhGEJ1AjNCk11uc7czIKke8ludkPciWEVuefy37azONA4iRzzgHwjR1UdblVmVZsphnwlzLCTY30AOfrNeadVnLUdXwykiE5GUq0ziFGbE9xix1i2wgS3nGkbYEuJnxMCazR3qXKXnFcU2gpxx5NeX63rl71zM9PTE3vTYSp8pdWb7IFt99iXyXI15p+8qR77W80/Ygn7QRzMDBqYieSwCqfA77OBVpq8bkmTaVTlwZxKrvca3/GaRBWzgWAJvz3hkBjkwyupk6o76Gvhk05znnXDumr+Y4Gs4J9FC+Hz9+vNcjcI0+Z/v9+/cTd9FllBcM4vzmnZgZwQe+y/drXV+ex77cjzsj1tQVGTWK3QzzDEDAfkkAr66ntf9vHejBXqQPQntLn4S+CfLHe2Y2UPnOU5jGNmOgGuU61t5r//xv5HlZznP3r93+aekCmB6zWYaYxtZiAMW7d+9O/gjagJaOveZ+tvbVOvbVEfRMT6Za6ecEeqbYV632D/2EryX9EQY8IPO5hm+Y6Fcbt6dSTktsGaSB7cTg5iXuV97j1v1q2Ez0MTLTvNeXLrmnHOu++FQfQM/3VtYV+wZ6/gn0MBJ26FcX2KX/08mhIV16RgJGBJ0oghd0Augsj611v0UZDDnT1g708F5ZWzMdKo6hqF68ePFbY8m5cSbwDZax4EGCOK2ZUThtyo/Eb1HGe3nGWkzzfjg+Wc+dWSwwDduXem84ykjP5AHO1gz05Dn1FucVI0JrZs9lmusJCLfaIe7NiJ5Llnn93lP+w8utBXlSPtQbjuVWm5Vzp2yPoGeGdE8pu3PTKS86ZuWsl3PlbkpZf/jw4X6Z0DF5pz6iw5BT8jH0DM4jzzgGW/KMDrtEAGIoz1seo3wIktEmUtZLPhv2GHmPs5cgYWmbLPmcc+41pq/mOBrOCfRQpji6y7KFW3jlVzKJ0wLdxvvQIcOxSkenfr+x68vz5L7vlFhLV6B74R7HENxl9GRZP1vuXyLQw/vx7jhryrYZ592Qw/scprkndluvrdL+0f6JfE2xf1q6gPvknvV2jOl8t5e2mP36uvy/hX629tXy9tUR9ExPplrp5wR6pthXkbepW2wxBipl+UbaAv1qfftqajnnfGxiguS9PlvOn7LVr/bHaaUcBhak3NBPQ33pmntkbW3fW/KUrYGefwI9iUDX2xTUnrY4xhHeJZ2QGPUs05blMS79vkPONBQEo2ZRaslfHA84AegQ1iMIUCbM6CAC3UvPPest0x8pn/r4Of8RfEbfjs16OOcet3DOGkxnpE7WeL50OZadpeQFPghE4UTIMbb8pyPOcjQt5nsyUd6z3CcvjHQuj03ZZ3R1RuZMuc5z1zPsli5bHHiMWslSf0vc/wh6pqcn5qZTjjgl0GMYgUuUa30Ppu5zf4xP0ubKOx0yRtOWDvX6mbf+n7Jm5DEj65csCwIV5fJVS9576r1ib9X6im8kDi3dhu2FnmnpuMePHzfT0ePkk5lnPZ2Tzm1GMbJkKLbk1PfM+XJ/nr5aQ1dgs8NURk2mTi61HQr09HRBSy4os1760LuiM3AURC6GzmkdYxlfVoUog6at8281bQ2mb8H+uQTT9rPPa6ePLMtr2VdH0DM9mWql9+yv6JFz7Ks5/DAAh8FQuYd+tfVlFnuYfuDr16/vyz3l/9CtfrV/n8oS+4lAGn2iVlnW3M/tiz/E93bzgR46ma1fqwKvJY2OFGv1//XXXyfnMh9EvPS7DQV60sAw6yj5yywfnCEY5iw9VzoDuA/OBtJ66blnucWAxBAoj7m/voKaW8YsKQInLFvGjBk+Fjj3nnOvHwr0cE+ClDjCYI3/caZxvMd8L30szygfO/r753is/o54/Ch6pqcn5qan7hiRvcYAAEa90okqZ9Yo78eTdRwbBI2waXB4862wsk7D0Zbb6KY60IONRD6ZdZT80MFk8BDOzZaO4/xeOudQHoxOffTo0f0z8qxsX716df89Oo49e/bsjjXjk+72GHKA0+nnz593f/7554mNjAK+ZP0NBXp6uqAnF730ofdFnsrZoEPneGx/nN+K/SPT+2PP9mC4To6iZ3oy1Utfyr56KEfMxsUHk4Fi+tWGeXxo+W51nX61/5xWCEh5s1z0y5cvR/sXNfdct3Zf/MuXL3dDPyaxcDx5X3v7r7Uf4P2nNSIsCUAnmnKjAU5jfMlyHAr0kB++G8FMhyzFwTdMcCbgNOMYaeWIWvZzfi/9ku/rs6cx2ysveM5SFwRD+PWuWTt9LNDDx3B//PhxP6UZpwb/85HcFvPkuZe+9nt5/2XZvdbyPIqe6emJuenXWr++1/LtQGZ8ITtLzqx7aF2NBXqYQYPOIhDDvdG/zAbM9yR7Oq6X/tD8et3yTG5RpuEejuA+/ZMtnj32jKFAT08X9OSilz6WF48fj+tbsX9k+nhs3mp7chQ905OpXrr2lTK5hIzrV/uvr3mJslzrHvWqZOV/Az1/2BCsBd6U+zIygdGrzMIBULZ8UCwf02UWwrdv3+4+ffp0xwep+F4RwZx0BHGmc/7bt29PayjynYly1HQvfUpePVeZOYcB2IXJX79+nT6czvKCMA7rXE9gFacY38h6/vz53devX+8+f/58H3DtMd9LPyePniPLt8RAT8/09MTc9Fsqa9/1+G0LA4DQS+gwZsnyY59laVO/b968OS0xh2y9f//+NEs1ywv3dFwvPc9we3yWjlaHMI69BvOsesDMNWQhM7B7uqAlF5RFL/1o5WV+9y+ja9s/Mr1/BpTTfdVRT8/0ZKqVrn21r7pW9ubXh361+WW4JofO6DGodO8ceAhojIxiyQRGKQwtP8XsDabT0QFDwdXP6KXX5/t/3w3KNdQPgUq+28Gyg0PLlPSY76VfQxn5Dsrhlgz09MTc9C3fxWcpO1swgD2GXYZ9hk4qn9nTcb308l7uy/OeGOjpgpZc8B699D29q3m5DdnrMd1Ll+nb4MT2YLt67slUK137art6Uib2UdY95nt+s1669TxezwZ6DPT8nwNAYRkXFsvGspEBGZABGZABGZABGZABGZABGZABGZABGZABGZABGdgbAwZ6DPQY6JEBGZABGZABGZABGZABGZABGZABGZABGZABGZABGZABGTgoAwZ6Dlpxe4sYmh+j2DIgAzIgAzIgAzIgAzIgAzIgAzIgAzIgAzIgAzIgAzKwPQMGegz0GKWVARmQARmQARmQARmQARmQARmQARmQARmQARmQARmQARk4KAMGeg5acUZFt4+KWuaWuQzIgAzIgAzIgAzIgAzIgAzIgAzIgAzIgAzIgAzIwN4YMNBjoMcorQzIgAzIgAzIgAzIgAzIgAzIgAzIgAzIgAzIgAzIgAzIwEEZMNBz0IrbW8TQ/BjFlgEZkAEZkAEZkAEZkAEZkAEZkAEZkAEZkAEZkAEZkIHtGTDQY6DHKK0MyIAMyIAMyIAMyIAMyIAMyIAMyIAMyIAMyIAMyIAMyMBBGTDQc9CKMyq6fVTUMrfMZUAGZEAGZEAGZEAGZEAGZEAGZEAGZEAGZEAGZEAG9saAgR4DPUZpZUAGZEAGZEAGZEAGZEAGZEAGZEAGZEAGZEAGZEAGZEAGDsqAgZ6DVtzeIobmxyi2DMiADMiADMiADMiADMiADMiADMiADMiADMiADMiADGzPgIEeAz1GaWVABmRABmRABmRABmRABmRABmRABmRABmRABmRABmRABg7KgIGeg1acUdHto6KWuWUuAzIgAzIgAzIgAzIgAzIgAzIgAzIgAzIgAzIgAzKwNwYM9BjoMUorAzIgAzIgAzIgAzIgAzIgAzIgAzIgAzIgAzIgAzIgAzJwUAYM9By04vYWMTQ/RrFlQAZkQAZkQAZkQAZkQAZkQAZkQAZkQAZkQAZkQAZkYHsGDPQY6DFKKwMyIAMyIAMyIAMyIAMyIAMyIAMyIAMyIAMyIAMyIAMycFAGDPQctOKMim4fFbXMLXMZkAEZkAEZkAEZkAEZkAEZkAEZkAEZkAEZkAEZkIG9MWCgx0CPUVoZkAEZkAEZkAEZkAEZkAEZkAEZkAEZkAEZkAEZkAEZkIGDMmCg56AVt7eIofkxii0DMiADMiADMiADMiADMiADMiADMiADMiADMiADMiAD2zPwN+I4++lv73POAAAAAElFTkSuQmCC;" parent="1" vertex="1">
          <mxGeometry x="550" y="306.5" width="1658" height="147" as="geometry" />
        </mxCell>
        <mxCell id="hyoLzfUMpnOC3pVIUtC3-9" value="" style="edgeStyle=orthogonalEdgeStyle;rounded=0;orthogonalLoop=1;jettySize=auto;html=1;" parent="1" source="hyoLzfUMpnOC3pVIUtC3-6" target="hyoLzfUMpnOC3pVIUtC3-8" edge="1">
          <mxGeometry relative="1" as="geometry" />
        </mxCell>
        <mxCell id="hyoLzfUMpnOC3pVIUtC3-6" value="&lt;div style=&quot;color: rgb(204, 204, 204); background-color: rgb(31, 31, 31); font-family: Consolas, &amp;quot;Courier New&amp;quot;, monospace; font-size: 14px; line-height: 19px; white-space: pre;&quot;&gt;&lt;span style=&quot;color: #dcdcaa;&quot;&gt;apply_rotary_pos_emb&lt;/span&gt;&lt;/div&gt;" style="whiteSpace=wrap;html=1;rounded=1;" parent="1" vertex="1">
          <mxGeometry x="282.5" y="460" width="185" height="60" as="geometry" />
        </mxCell>
        <mxCell id="hyoLzfUMpnOC3pVIUtC3-11" value="" style="edgeStyle=orthogonalEdgeStyle;rounded=0;orthogonalLoop=1;jettySize=auto;html=1;" parent="1" source="hyoLzfUMpnOC3pVIUtC3-8" target="hyoLzfUMpnOC3pVIUtC3-10" edge="1">
          <mxGeometry relative="1" as="geometry" />
        </mxCell>
        <mxCell id="hyoLzfUMpnOC3pVIUtC3-8" value="&lt;div style=&quot;color: rgb(204, 204, 204); background-color: rgb(31, 31, 31); font-family: Consolas, &amp;quot;Courier New&amp;quot;, monospace; font-size: 14px; line-height: 19px; white-space: pre;&quot;&gt;&lt;div&gt;&amp;nbsp; &amp;nbsp; cos &lt;span style=&quot;color: #d4d4d4;&quot;&gt;=&lt;/span&gt; cos[position_ids].unsqueeze(unsqueeze_dim)&lt;/div&gt;&lt;div&gt;&amp;nbsp; &amp;nbsp; sin &lt;span style=&quot;color: #d4d4d4;&quot;&gt;=&lt;/span&gt; sin[position_ids].unsqueeze(unsqueeze_dim)&lt;/div&gt;&lt;div&gt;&amp;nbsp; &amp;nbsp; q_embed &lt;span style=&quot;color: #d4d4d4;&quot;&gt;=&lt;/span&gt; (q &lt;span style=&quot;color: #d4d4d4;&quot;&gt;*&lt;/span&gt; cos) &lt;span style=&quot;color: #d4d4d4;&quot;&gt;+&lt;/span&gt; (rotate_half(q) &lt;span style=&quot;color: #d4d4d4;&quot;&gt;*&lt;/span&gt; sin)&lt;/div&gt;&lt;div&gt;&amp;nbsp; &amp;nbsp; k_embed &lt;span style=&quot;color: #d4d4d4;&quot;&gt;=&lt;/span&gt; (k &lt;span style=&quot;color: #d4d4d4;&quot;&gt;*&lt;/span&gt; cos) &lt;span style=&quot;color: #d4d4d4;&quot;&gt;+&lt;/span&gt; (rotate_half(k) &lt;span style=&quot;color: #d4d4d4;&quot;&gt;*&lt;/span&gt; sin)&lt;/div&gt;&lt;/div&gt;" style="whiteSpace=wrap;html=1;rounded=1;align=left;" parent="1" vertex="1">
          <mxGeometry x="147.5" y="570" width="455" height="100" as="geometry" />
        </mxCell>
        <mxCell id="hyoLzfUMpnOC3pVIUtC3-13" value="" style="edgeStyle=orthogonalEdgeStyle;rounded=0;orthogonalLoop=1;jettySize=auto;html=1;dashed=1;" parent="1" source="hyoLzfUMpnOC3pVIUtC3-10" target="hyoLzfUMpnOC3pVIUtC3-12" edge="1">
          <mxGeometry relative="1" as="geometry" />
        </mxCell>
        <mxCell id="hyoLzfUMpnOC3pVIUtC3-10" value="&lt;div style=&quot;color: rgb(204, 204, 204); background-color: rgb(31, 31, 31); font-family: Consolas, &amp;quot;Courier New&amp;quot;, monospace; font-size: 14px; line-height: 19px; white-space: pre;&quot;&gt;rotate_half&lt;/div&gt;" style="whiteSpace=wrap;html=1;align=center;rounded=1;" parent="1" vertex="1">
          <mxGeometry x="740" y="590" width="120" height="60" as="geometry" />
        </mxCell>
        <mxCell id="hyoLzfUMpnOC3pVIUtC3-12" value="&lt;div style=&quot;color: rgb(204, 204, 204); background-color: rgb(31, 31, 31); font-family: Consolas, &amp;quot;Courier New&amp;quot;, monospace; font-size: 14px; line-height: 19px; white-space: pre;&quot;&gt;&lt;div style=&quot;line-height: 19px;&quot;&gt;&lt;div&gt;&lt;span style=&quot;color: #569cd6;&quot;&gt;def&lt;/span&gt; &lt;span style=&quot;color: #dcdcaa;&quot;&gt;rotate_half&lt;/span&gt;(&lt;span style=&quot;color: #9cdcfe;&quot;&gt;x&lt;/span&gt;):&lt;/div&gt;&lt;div&gt;&amp;nbsp; &amp;nbsp; &lt;span style=&quot;color: #ce9178;&quot;&gt;&quot;&quot;&quot;Rotates half the hidden dims of the input.&quot;&quot;&quot;&lt;/span&gt;&lt;/div&gt;&lt;div&gt;&amp;nbsp; &amp;nbsp; x1 &lt;span style=&quot;color: #d4d4d4;&quot;&gt;=&lt;/span&gt; x[..., : x.shape[&lt;span style=&quot;color: #d4d4d4;&quot;&gt;-&lt;/span&gt;&lt;span style=&quot;color: #b5cea8;&quot;&gt;1&lt;/span&gt;] &lt;span style=&quot;color: #d4d4d4;&quot;&gt;//&lt;/span&gt; &lt;span style=&quot;color: #b5cea8;&quot;&gt;2&lt;/span&gt;]&lt;/div&gt;&lt;div&gt;&amp;nbsp; &amp;nbsp; x2 &lt;span style=&quot;color: #d4d4d4;&quot;&gt;=&lt;/span&gt; x[..., x.shape[&lt;span style=&quot;color: #d4d4d4;&quot;&gt;-&lt;/span&gt;&lt;span style=&quot;color: #b5cea8;&quot;&gt;1&lt;/span&gt;] &lt;span style=&quot;color: #d4d4d4;&quot;&gt;//&lt;/span&gt; &lt;span style=&quot;color: #b5cea8;&quot;&gt;2&lt;/span&gt; :]&lt;/div&gt;&lt;div&gt;&amp;nbsp; &amp;nbsp; &lt;span style=&quot;color: #c586c0;&quot;&gt;return&lt;/span&gt; torch.cat((&lt;span style=&quot;color: #d4d4d4;&quot;&gt;-&lt;/span&gt;x2, x1), &lt;span style=&quot;color: #9cdcfe;&quot;&gt;dim&lt;/span&gt;&lt;span style=&quot;color: #d4d4d4;&quot;&gt;=-&lt;/span&gt;&lt;span style=&quot;color: #b5cea8;&quot;&gt;1&lt;/span&gt;)&lt;/div&gt;&lt;/div&gt;&lt;/div&gt;" style="whiteSpace=wrap;html=1;align=left;rounded=1;" parent="1" vertex="1">
          <mxGeometry x="940" y="560" width="430" height="120" as="geometry" />
        </mxCell>
      </root>
    </mxGraphModel>
  </diagram>
  <diagram id="C7GNNYRlueK14GICXMgy" name="Qwen2MoeDecoderLayer">
    <mxGraphModel dx="1429" dy="847" grid="1" gridSize="10" guides="1" tooltips="1" connect="1" arrows="1" fold="1" page="1" pageScale="1" pageWidth="827" pageHeight="1169" math="0" shadow="0">
      <root>
        <mxCell id="0" />
        <mxCell id="1" parent="0" />
        <mxCell id="GdzSt_NIF5ibRKmqPGSm-1" value="" style="edgeStyle=orthogonalEdgeStyle;rounded=0;orthogonalLoop=1;jettySize=auto;html=1;" edge="1" parent="1" source="GdzSt_NIF5ibRKmqPGSm-3" target="GdzSt_NIF5ibRKmqPGSm-5">
          <mxGeometry relative="1" as="geometry" />
        </mxCell>
        <mxCell id="GdzSt_NIF5ibRKmqPGSm-2" style="edgeStyle=orthogonalEdgeStyle;rounded=0;orthogonalLoop=1;jettySize=auto;html=1;entryX=0;entryY=0.5;entryDx=0;entryDy=0;" edge="1" parent="1" target="GdzSt_NIF5ibRKmqPGSm-20">
          <mxGeometry relative="1" as="geometry">
            <mxPoint x="395" y="330" as="sourcePoint" />
            <Array as="points">
              <mxPoint x="210" y="330" />
              <mxPoint x="210" y="610" />
            </Array>
          </mxGeometry>
        </mxCell>
        <mxCell id="GdzSt_NIF5ibRKmqPGSm-3" value="Qwen2MoeDecoderLayer" style="rounded=1;whiteSpace=wrap;html=1;" vertex="1" parent="1">
          <mxGeometry x="310" y="240" width="170" height="60" as="geometry" />
        </mxCell>
        <mxCell id="GdzSt_NIF5ibRKmqPGSm-4" value="" style="edgeStyle=orthogonalEdgeStyle;rounded=0;orthogonalLoop=1;jettySize=auto;html=1;" edge="1" parent="1" source="GdzSt_NIF5ibRKmqPGSm-5" target="GdzSt_NIF5ibRKmqPGSm-7">
          <mxGeometry relative="1" as="geometry" />
        </mxCell>
        <mxCell id="GdzSt_NIF5ibRKmqPGSm-5" value="&lt;div style=&quot;color: rgb(204, 204, 204); background-color: rgb(31, 31, 31); font-family: Consolas, &amp;quot;Courier New&amp;quot;, monospace; font-size: 14px; line-height: 19px; white-space: pre;&quot;&gt;&lt;div style=&quot;line-height: 19px;&quot;&gt;&lt;div style=&quot;line-height: 19px;&quot;&gt;Qwen2MoeRMSNorm&lt;/div&gt;&lt;/div&gt;&lt;/div&gt;" style="whiteSpace=wrap;html=1;rounded=1;" vertex="1" parent="1">
          <mxGeometry x="297.5" y="360" width="195" height="60" as="geometry" />
        </mxCell>
        <mxCell id="GdzSt_NIF5ibRKmqPGSm-6" style="edgeStyle=orthogonalEdgeStyle;rounded=0;orthogonalLoop=1;jettySize=auto;html=1;exitX=0.5;exitY=1;exitDx=0;exitDy=0;entryX=0.5;entryY=0;entryDx=0;entryDy=0;" edge="1" parent="1" source="GdzSt_NIF5ibRKmqPGSm-7" target="GdzSt_NIF5ibRKmqPGSm-20">
          <mxGeometry relative="1" as="geometry" />
        </mxCell>
        <mxCell id="GdzSt_NIF5ibRKmqPGSm-7" value="&lt;div style=&quot;color: rgb(204, 204, 204); background-color: rgb(31, 31, 31); font-family: Consolas, &amp;quot;Courier New&amp;quot;, monospace; font-size: 14px; line-height: 19px; white-space: pre;&quot;&gt;&lt;div style=&quot;line-height: 19px;&quot;&gt;&lt;div style=&quot;line-height: 19px;&quot;&gt;QWEN2MOE_ATTENTION_CLASSES&lt;/div&gt;&lt;/div&gt;&lt;/div&gt;" style="whiteSpace=wrap;html=1;rounded=1;" vertex="1" parent="1">
          <mxGeometry x="282.5" y="480" width="225" height="60" as="geometry" />
        </mxCell>
        <mxCell id="GdzSt_NIF5ibRKmqPGSm-8" value="" style="edgeStyle=orthogonalEdgeStyle;rounded=0;orthogonalLoop=1;jettySize=auto;html=1;" edge="1" parent="1" source="GdzSt_NIF5ibRKmqPGSm-10" target="GdzSt_NIF5ibRKmqPGSm-13">
          <mxGeometry relative="1" as="geometry" />
        </mxCell>
        <mxCell id="GdzSt_NIF5ibRKmqPGSm-9" style="edgeStyle=orthogonalEdgeStyle;rounded=0;orthogonalLoop=1;jettySize=auto;html=1;entryX=0;entryY=0.5;entryDx=0;entryDy=0;" edge="1" parent="1" target="GdzSt_NIF5ibRKmqPGSm-14">
          <mxGeometry relative="1" as="geometry">
            <mxPoint x="395" y="650" as="sourcePoint" />
            <Array as="points">
              <mxPoint x="210" y="650" />
              <mxPoint x="210" y="940" />
            </Array>
          </mxGeometry>
        </mxCell>
        <mxCell id="GdzSt_NIF5ibRKmqPGSm-10" value="&lt;div style=&quot;color: rgb(204, 204, 204); background-color: rgb(31, 31, 31); font-family: Consolas, &amp;quot;Courier New&amp;quot;, monospace; font-size: 14px; line-height: 19px; white-space: pre;&quot;&gt;&lt;div style=&quot;line-height: 19px;&quot;&gt;&lt;div style=&quot;line-height: 19px;&quot;&gt;Qwen2MoeRMSNorm&lt;/div&gt;&lt;/div&gt;&lt;/div&gt;" style="whiteSpace=wrap;html=1;rounded=1;" vertex="1" parent="1">
          <mxGeometry x="272.5" y="680" width="245" height="60" as="geometry" />
        </mxCell>
        <mxCell id="GdzSt_NIF5ibRKmqPGSm-11" style="edgeStyle=orthogonalEdgeStyle;rounded=0;orthogonalLoop=1;jettySize=auto;html=1;exitX=0.5;exitY=1;exitDx=0;exitDy=0;entryX=0.5;entryY=0;entryDx=0;entryDy=0;" edge="1" parent="1" source="GdzSt_NIF5ibRKmqPGSm-13" target="GdzSt_NIF5ibRKmqPGSm-14">
          <mxGeometry relative="1" as="geometry" />
        </mxCell>
        <mxCell id="GdzSt_NIF5ibRKmqPGSm-13" value="&lt;div style=&quot;color: rgb(204, 204, 204); background-color: rgb(31, 31, 31); font-family: Consolas, &amp;quot;Courier New&amp;quot;, monospace; font-size: 14px; line-height: 19px; white-space: pre;&quot;&gt;&lt;div style=&quot;line-height: 19px;&quot;&gt;Qwen2MLP&lt;/div&gt;&lt;/div&gt;" style="whiteSpace=wrap;html=1;rounded=1;" vertex="1" parent="1">
          <mxGeometry x="335" y="800" width="120" height="60" as="geometry" />
        </mxCell>
        <mxCell id="GdzSt_NIF5ibRKmqPGSm-14" value="&lt;b&gt;&lt;font style=&quot;font-size: 18px;&quot;&gt;+&lt;/font&gt;&lt;/b&gt;" style="ellipse;whiteSpace=wrap;html=1;aspect=fixed;" vertex="1" parent="1">
          <mxGeometry x="375" y="920" width="40" height="40" as="geometry" />
        </mxCell>
        <mxCell id="GdzSt_NIF5ibRKmqPGSm-15" value="" style="shape=curlyBracket;whiteSpace=wrap;html=1;rounded=1;labelPosition=left;verticalLabelPosition=middle;align=right;verticalAlign=middle;" vertex="1" parent="1">
          <mxGeometry x="530" y="450" width="20" height="120" as="geometry" />
        </mxCell>
        <mxCell id="GdzSt_NIF5ibRKmqPGSm-16" value="&lt;div style=&quot;color: #cccccc;background-color: #1f1f1f;font-family: Consolas, &#39;Courier New&#39;, monospace;font-weight: normal;font-size: 14px;line-height: 19px;white-space: pre;&quot;&gt;&lt;div style=&quot;line-height: 19px;&quot;&gt;Qwen2MoeAttention&lt;/div&gt;&lt;/div&gt;" style="text;whiteSpace=wrap;html=1;" vertex="1" parent="1">
          <mxGeometry x="560" y="440" width="140" height="40" as="geometry" />
        </mxCell>
        <mxCell id="GdzSt_NIF5ibRKmqPGSm-17" value="&lt;div style=&quot;color: #cccccc;background-color: #1f1f1f;font-family: Consolas, &#39;Courier New&#39;, monospace;font-weight: normal;font-size: 14px;line-height: 19px;white-space: pre;&quot;&gt;&lt;div style=&quot;line-height: 19px;&quot;&gt;Qwen2MoeFlashAttention2&lt;/div&gt;&lt;/div&gt;" style="text;whiteSpace=wrap;html=1;" vertex="1" parent="1">
          <mxGeometry x="560" y="490" width="190" height="40" as="geometry" />
        </mxCell>
        <mxCell id="GdzSt_NIF5ibRKmqPGSm-18" value="&lt;div style=&quot;color: #cccccc;background-color: #1f1f1f;font-family: Consolas, &#39;Courier New&#39;, monospace;font-weight: normal;font-size: 14px;line-height: 19px;white-space: pre;&quot;&gt;&lt;div style=&quot;line-height: 19px;&quot;&gt;Qwen2MoeSdpaAttention&lt;/div&gt;&lt;/div&gt;" style="text;whiteSpace=wrap;html=1;" vertex="1" parent="1">
          <mxGeometry x="560" y="540" width="170" height="40" as="geometry" />
        </mxCell>
        <mxCell id="GdzSt_NIF5ibRKmqPGSm-19" style="edgeStyle=orthogonalEdgeStyle;rounded=0;orthogonalLoop=1;jettySize=auto;html=1;exitX=0.5;exitY=1;exitDx=0;exitDy=0;entryX=0.5;entryY=0;entryDx=0;entryDy=0;" edge="1" parent="1" source="GdzSt_NIF5ibRKmqPGSm-20" target="GdzSt_NIF5ibRKmqPGSm-10">
          <mxGeometry relative="1" as="geometry" />
        </mxCell>
        <mxCell id="GdzSt_NIF5ibRKmqPGSm-20" value="&lt;b&gt;&lt;font style=&quot;font-size: 18px;&quot;&gt;+&lt;/font&gt;&lt;/b&gt;" style="ellipse;whiteSpace=wrap;html=1;aspect=fixed;" vertex="1" parent="1">
          <mxGeometry x="375" y="590" width="40" height="40" as="geometry" />
        </mxCell>
        <mxCell id="GdzSt_NIF5ibRKmqPGSm-22" value="" style="shape=curlyBracket;whiteSpace=wrap;html=1;rounded=1;labelPosition=left;verticalLabelPosition=middle;align=right;verticalAlign=middle;" vertex="1" parent="1">
          <mxGeometry x="472.5" y="790" width="20" height="80" as="geometry" />
        </mxCell>
        <mxCell id="GdzSt_NIF5ibRKmqPGSm-23" value="&lt;div style=&quot;color: #cccccc;background-color: #1f1f1f;font-family: Consolas, &#39;Courier New&#39;, monospace;font-weight: normal;font-size: 14px;line-height: 19px;white-space: pre;&quot;&gt;&lt;div&gt;&lt;span style=&quot;color: #cccccc;&quot;&gt;Qwen2MoeSparseMoeBlock&lt;/span&gt;&lt;/div&gt;&lt;/div&gt;" style="text;whiteSpace=wrap;html=1;" vertex="1" parent="1">
          <mxGeometry x="507.5" y="780" width="200" height="40" as="geometry" />
        </mxCell>
        <mxCell id="GdzSt_NIF5ibRKmqPGSm-24" value="&lt;div style=&quot;color: #cccccc;background-color: #1f1f1f;font-family: Consolas, &#39;Courier New&#39;, monospace;font-weight: normal;font-size: 14px;line-height: 19px;white-space: pre;&quot;&gt;&lt;div&gt;&lt;span style=&quot;color: #cccccc;&quot;&gt;Qwen2MoeMLP&lt;/span&gt;&lt;/div&gt;&lt;/div&gt;" style="text;whiteSpace=wrap;html=1;" vertex="1" parent="1">
          <mxGeometry x="507.5" y="840" width="120" height="40" as="geometry" />
        </mxCell>
      </root>
    </mxGraphModel>
  </diagram>
  <diagram id="T-oXtdTr_rQAfZkSKuYQ" name="Qwen2MoeSparseMoeBlock">
    <mxGraphModel dx="2256" dy="847" grid="1" gridSize="10" guides="1" tooltips="1" connect="1" arrows="1" fold="1" page="1" pageScale="1" pageWidth="827" pageHeight="1169" math="0" shadow="0">
      <root>
        <mxCell id="0" />
        <mxCell id="1" parent="0" />
        <mxCell id="vAPf-MGiPVAbgIvwkeq1-3" value="" style="edgeStyle=orthogonalEdgeStyle;rounded=0;orthogonalLoop=1;jettySize=auto;html=1;" edge="1" parent="1" source="vAPf-MGiPVAbgIvwkeq1-1" target="vAPf-MGiPVAbgIvwkeq1-2">
          <mxGeometry relative="1" as="geometry" />
        </mxCell>
        <mxCell id="vAPf-MGiPVAbgIvwkeq1-1" value="Qwen2MoeSparseMoeBlock" style="rounded=1;whiteSpace=wrap;html=1;" vertex="1" parent="1">
          <mxGeometry x="320" y="190" width="180" height="60" as="geometry" />
        </mxCell>
        <mxCell id="vAPf-MGiPVAbgIvwkeq1-5" value="" style="edgeStyle=orthogonalEdgeStyle;rounded=0;orthogonalLoop=1;jettySize=auto;html=1;" edge="1" parent="1" source="vAPf-MGiPVAbgIvwkeq1-2" target="vAPf-MGiPVAbgIvwkeq1-4">
          <mxGeometry relative="1" as="geometry" />
        </mxCell>
        <mxCell id="vAPf-MGiPVAbgIvwkeq1-24" style="edgeStyle=orthogonalEdgeStyle;rounded=0;orthogonalLoop=1;jettySize=auto;html=1;exitX=0;exitY=0.5;exitDx=0;exitDy=0;entryX=0.5;entryY=0;entryDx=0;entryDy=0;" edge="1" parent="1" source="vAPf-MGiPVAbgIvwkeq1-2" target="vAPf-MGiPVAbgIvwkeq1-23">
          <mxGeometry relative="1" as="geometry" />
        </mxCell>
        <mxCell id="vAPf-MGiPVAbgIvwkeq1-28" style="edgeStyle=orthogonalEdgeStyle;rounded=0;orthogonalLoop=1;jettySize=auto;html=1;exitX=0;exitY=0.5;exitDx=0;exitDy=0;entryX=0.5;entryY=0;entryDx=0;entryDy=0;" edge="1" parent="1" source="vAPf-MGiPVAbgIvwkeq1-2" target="vAPf-MGiPVAbgIvwkeq1-27">
          <mxGeometry relative="1" as="geometry" />
        </mxCell>
        <mxCell id="vAPf-MGiPVAbgIvwkeq1-2" value="Reshape&lt;div&gt;[B*S, H]&lt;/div&gt;" style="whiteSpace=wrap;html=1;rounded=1;" vertex="1" parent="1">
          <mxGeometry x="350" y="290" width="120" height="60" as="geometry" />
        </mxCell>
        <mxCell id="vAPf-MGiPVAbgIvwkeq1-7" value="" style="edgeStyle=orthogonalEdgeStyle;rounded=0;orthogonalLoop=1;jettySize=auto;html=1;" edge="1" parent="1" source="vAPf-MGiPVAbgIvwkeq1-4" target="vAPf-MGiPVAbgIvwkeq1-6">
          <mxGeometry relative="1" as="geometry" />
        </mxCell>
        <mxCell id="vAPf-MGiPVAbgIvwkeq1-4" value="&lt;div&gt;self.gate&lt;/div&gt;&lt;div&gt;[B*S, Num_Expert]&lt;/div&gt;" style="whiteSpace=wrap;html=1;rounded=1;" vertex="1" parent="1">
          <mxGeometry x="350" y="390" width="120" height="60" as="geometry" />
        </mxCell>
        <mxCell id="vAPf-MGiPVAbgIvwkeq1-9" value="" style="edgeStyle=orthogonalEdgeStyle;rounded=0;orthogonalLoop=1;jettySize=auto;html=1;" edge="1" parent="1" source="vAPf-MGiPVAbgIvwkeq1-6" target="vAPf-MGiPVAbgIvwkeq1-8">
          <mxGeometry relative="1" as="geometry" />
        </mxCell>
        <mxCell id="vAPf-MGiPVAbgIvwkeq1-6" value="Softmax" style="whiteSpace=wrap;html=1;rounded=1;" vertex="1" parent="1">
          <mxGeometry x="350" y="490" width="120" height="60" as="geometry" />
        </mxCell>
        <mxCell id="vAPf-MGiPVAbgIvwkeq1-11" value="" style="edgeStyle=orthogonalEdgeStyle;rounded=0;orthogonalLoop=1;jettySize=auto;html=1;" edge="1" parent="1" source="vAPf-MGiPVAbgIvwkeq1-8" target="vAPf-MGiPVAbgIvwkeq1-10">
          <mxGeometry relative="1" as="geometry" />
        </mxCell>
        <mxCell id="vAPf-MGiPVAbgIvwkeq1-39" style="edgeStyle=orthogonalEdgeStyle;rounded=0;orthogonalLoop=1;jettySize=auto;html=1;exitX=0;exitY=0.5;exitDx=0;exitDy=0;entryX=0;entryY=0.5;entryDx=0;entryDy=0;" edge="1" parent="1" source="vAPf-MGiPVAbgIvwkeq1-8" target="vAPf-MGiPVAbgIvwkeq1-38">
          <mxGeometry relative="1" as="geometry">
            <Array as="points">
              <mxPoint x="200" y="620" />
              <mxPoint x="200" y="1135" />
            </Array>
          </mxGeometry>
        </mxCell>
        <mxCell id="vAPf-MGiPVAbgIvwkeq1-8" value="TopK（token维度的expert）&lt;div&gt;[B*S, Top_k]&lt;/div&gt;" style="whiteSpace=wrap;html=1;rounded=1;" vertex="1" parent="1">
          <mxGeometry x="315" y="590" width="190" height="60" as="geometry" />
        </mxCell>
        <mxCell id="vAPf-MGiPVAbgIvwkeq1-13" value="" style="edgeStyle=orthogonalEdgeStyle;rounded=0;orthogonalLoop=1;jettySize=auto;html=1;" edge="1" parent="1" source="vAPf-MGiPVAbgIvwkeq1-10" target="vAPf-MGiPVAbgIvwkeq1-12">
          <mxGeometry relative="1" as="geometry" />
        </mxCell>
        <mxCell id="vAPf-MGiPVAbgIvwkeq1-10" value="&lt;div style=&quot;color: rgb(204, 204, 204); background-color: rgb(31, 31, 31); font-family: Consolas, &amp;quot;Courier New&amp;quot;, monospace; font-size: 14px; line-height: 19px; white-space: pre;&quot;&gt;norm_topk_prob&lt;/div&gt;" style="whiteSpace=wrap;html=1;rounded=1;" vertex="1" parent="1">
          <mxGeometry x="350" y="690" width="120" height="60" as="geometry" />
        </mxCell>
        <mxCell id="vAPf-MGiPVAbgIvwkeq1-21" style="edgeStyle=orthogonalEdgeStyle;rounded=0;orthogonalLoop=1;jettySize=auto;html=1;exitX=0.5;exitY=1;exitDx=0;exitDy=0;entryX=0.5;entryY=0;entryDx=0;entryDy=0;" edge="1" parent="1" source="vAPf-MGiPVAbgIvwkeq1-12" target="vAPf-MGiPVAbgIvwkeq1-20">
          <mxGeometry relative="1" as="geometry" />
        </mxCell>
        <mxCell id="vAPf-MGiPVAbgIvwkeq1-12" value="&lt;div style=&quot;color: rgb(204, 204, 204); background-color: rgb(31, 31, 31); font-family: Consolas, &amp;quot;Courier New&amp;quot;, monospace; font-size: 14px; line-height: 19px; white-space: pre;&quot;&gt;one_hot&lt;/div&gt;&lt;div style=&quot;color: rgb(204, 204, 204); background-color: rgb(31, 31, 31); font-family: Consolas, &amp;quot;Courier New&amp;quot;, monospace; font-size: 14px; line-height: 19px; white-space: pre;&quot;&gt;[B*S, Top_k, Num_Expert]&lt;/div&gt;" style="whiteSpace=wrap;html=1;rounded=1;" vertex="1" parent="1">
          <mxGeometry x="290" y="790" width="240" height="60" as="geometry" />
        </mxCell>
        <mxCell id="vAPf-MGiPVAbgIvwkeq1-19" value="" style="edgeStyle=orthogonalEdgeStyle;rounded=0;orthogonalLoop=1;jettySize=auto;html=1;dashed=1;" edge="1" parent="1" source="vAPf-MGiPVAbgIvwkeq1-14" target="vAPf-MGiPVAbgIvwkeq1-18">
          <mxGeometry relative="1" as="geometry" />
        </mxCell>
        <mxCell id="vAPf-MGiPVAbgIvwkeq1-41" style="edgeStyle=orthogonalEdgeStyle;rounded=0;orthogonalLoop=1;jettySize=auto;html=1;exitX=0.5;exitY=1;exitDx=0;exitDy=0;entryX=0.5;entryY=0;entryDx=0;entryDy=0;" edge="1" parent="1" source="vAPf-MGiPVAbgIvwkeq1-14" target="vAPf-MGiPVAbgIvwkeq1-38">
          <mxGeometry relative="1" as="geometry" />
        </mxCell>
        <mxCell id="vAPf-MGiPVAbgIvwkeq1-14" value="&lt;div style=&quot;color: rgb(204, 204, 204); background-color: rgb(31, 31, 31); font-family: Consolas, &amp;quot;Courier New&amp;quot;, monospace; font-size: 14px; line-height: 19px; white-space: pre;&quot;&gt;&lt;span style=&quot;color: #569cd6;&quot;&gt;self&lt;/span&gt;.experts&lt;/div&gt;" style="whiteSpace=wrap;html=1;rounded=1;" vertex="1" parent="1">
          <mxGeometry x="350" y="1010" width="120" height="60" as="geometry" />
        </mxCell>
        <mxCell id="vAPf-MGiPVAbgIvwkeq1-18" value="&lt;div style=&quot;color: rgb(204, 204, 204); background-color: rgb(31, 31, 31); font-family: Consolas, &amp;quot;Courier New&amp;quot;, monospace; font-size: 14px; line-height: 19px; white-space: pre;&quot;&gt;Qwen2MoeMLP&lt;/div&gt;" style="whiteSpace=wrap;html=1;rounded=1;" vertex="1" parent="1">
          <mxGeometry x="550" y="1010" width="120" height="60" as="geometry" />
        </mxCell>
        <mxCell id="vAPf-MGiPVAbgIvwkeq1-22" style="edgeStyle=orthogonalEdgeStyle;rounded=0;orthogonalLoop=1;jettySize=auto;html=1;exitX=0.5;exitY=1;exitDx=0;exitDy=0;entryX=0.5;entryY=0;entryDx=0;entryDy=0;" edge="1" parent="1" source="vAPf-MGiPVAbgIvwkeq1-20" target="vAPf-MGiPVAbgIvwkeq1-14">
          <mxGeometry relative="1" as="geometry" />
        </mxCell>
        <mxCell id="vAPf-MGiPVAbgIvwkeq1-20" value="Reshape&lt;div&gt;[Num_Expert, Top_k, B*S]&lt;/div&gt;" style="rounded=1;whiteSpace=wrap;html=1;" vertex="1" parent="1">
          <mxGeometry x="285" y="900" width="250" height="60" as="geometry" />
        </mxCell>
        <mxCell id="vAPf-MGiPVAbgIvwkeq1-26" value="" style="edgeStyle=orthogonalEdgeStyle;rounded=0;orthogonalLoop=1;jettySize=auto;html=1;dashed=1;" edge="1" parent="1" source="vAPf-MGiPVAbgIvwkeq1-23" target="vAPf-MGiPVAbgIvwkeq1-25">
          <mxGeometry relative="1" as="geometry" />
        </mxCell>
        <mxCell id="vAPf-MGiPVAbgIvwkeq1-32" style="edgeStyle=orthogonalEdgeStyle;rounded=0;orthogonalLoop=1;jettySize=auto;html=1;exitX=0.5;exitY=1;exitDx=0;exitDy=0;entryX=0.5;entryY=0;entryDx=0;entryDy=0;" edge="1" parent="1" source="vAPf-MGiPVAbgIvwkeq1-23" target="vAPf-MGiPVAbgIvwkeq1-31">
          <mxGeometry relative="1" as="geometry" />
        </mxCell>
        <mxCell id="vAPf-MGiPVAbgIvwkeq1-23" value="&lt;div style=&quot;color: rgb(204, 204, 204); background-color: rgb(31, 31, 31); font-family: Consolas, &amp;quot;Courier New&amp;quot;, monospace; font-size: 14px; line-height: 19px; white-space: pre;&quot;&gt;&lt;span style=&quot;color: #569cd6;&quot;&gt;self&lt;/span&gt;.shared_expert&lt;/div&gt;" style="rounded=1;whiteSpace=wrap;html=1;" vertex="1" parent="1">
          <mxGeometry x="-50" y="390" width="160" height="60" as="geometry" />
        </mxCell>
        <mxCell id="vAPf-MGiPVAbgIvwkeq1-25" value="&lt;div style=&quot;color: rgb(204, 204, 204); background-color: rgb(31, 31, 31); font-family: Consolas, &amp;quot;Courier New&amp;quot;, monospace; font-size: 14px; line-height: 19px; white-space: pre;&quot;&gt;Qwen2MoeMLP&lt;/div&gt;" style="whiteSpace=wrap;html=1;rounded=1;" vertex="1" parent="1">
          <mxGeometry x="160" y="390" width="120" height="60" as="geometry" />
        </mxCell>
        <mxCell id="vAPf-MGiPVAbgIvwkeq1-30" value="" style="edgeStyle=orthogonalEdgeStyle;rounded=0;orthogonalLoop=1;jettySize=auto;html=1;" edge="1" parent="1" source="vAPf-MGiPVAbgIvwkeq1-27" target="vAPf-MGiPVAbgIvwkeq1-29">
          <mxGeometry relative="1" as="geometry" />
        </mxCell>
        <mxCell id="vAPf-MGiPVAbgIvwkeq1-27" value="&lt;div style=&quot;color: rgb(204, 204, 204); background-color: rgb(31, 31, 31); font-family: Consolas, &amp;quot;Courier New&amp;quot;, monospace; font-size: 14px; line-height: 19px; white-space: pre;&quot;&gt;&lt;span style=&quot;color: #569cd6;&quot;&gt;self&lt;/span&gt;.shared_expert_gate&lt;/div&gt;" style="rounded=1;whiteSpace=wrap;html=1;" vertex="1" parent="1">
          <mxGeometry x="-320" y="390" width="190" height="60" as="geometry" />
        </mxCell>
        <mxCell id="vAPf-MGiPVAbgIvwkeq1-33" style="edgeStyle=orthogonalEdgeStyle;rounded=0;orthogonalLoop=1;jettySize=auto;html=1;exitX=1;exitY=0.5;exitDx=0;exitDy=0;entryX=0;entryY=0.5;entryDx=0;entryDy=0;" edge="1" parent="1" source="vAPf-MGiPVAbgIvwkeq1-29" target="vAPf-MGiPVAbgIvwkeq1-31">
          <mxGeometry relative="1" as="geometry" />
        </mxCell>
        <mxCell id="vAPf-MGiPVAbgIvwkeq1-29" value="&lt;div style=&quot;color: rgb(204, 204, 204); background-color: rgb(31, 31, 31); font-family: Consolas, &amp;quot;Courier New&amp;quot;, monospace; font-size: 14px; line-height: 19px; white-space: pre;&quot;&gt;sigmoid&lt;/div&gt;" style="whiteSpace=wrap;html=1;rounded=1;" vertex="1" parent="1">
          <mxGeometry x="-285" y="530" width="120" height="40" as="geometry" />
        </mxCell>
        <mxCell id="vAPf-MGiPVAbgIvwkeq1-36" style="edgeStyle=orthogonalEdgeStyle;rounded=0;orthogonalLoop=1;jettySize=auto;html=1;exitX=0.5;exitY=1;exitDx=0;exitDy=0;entryX=0;entryY=0.5;entryDx=0;entryDy=0;" edge="1" parent="1" source="vAPf-MGiPVAbgIvwkeq1-31" target="vAPf-MGiPVAbgIvwkeq1-35">
          <mxGeometry relative="1" as="geometry" />
        </mxCell>
        <mxCell id="vAPf-MGiPVAbgIvwkeq1-31" value="&lt;b&gt;&lt;font style=&quot;font-size: 16px;&quot;&gt;x&lt;/font&gt;&lt;/b&gt;" style="ellipse;whiteSpace=wrap;html=1;aspect=fixed;" vertex="1" parent="1">
          <mxGeometry x="15" y="535" width="30" height="30" as="geometry" />
        </mxCell>
        <mxCell id="vAPf-MGiPVAbgIvwkeq1-35" value="&lt;b&gt;&lt;font style=&quot;font-size: 16px;&quot;&gt;+&lt;/font&gt;&lt;/b&gt;" style="ellipse;whiteSpace=wrap;html=1;aspect=fixed;" vertex="1" parent="1">
          <mxGeometry x="395" y="1190" width="30" height="30" as="geometry" />
        </mxCell>
        <mxCell id="vAPf-MGiPVAbgIvwkeq1-42" style="edgeStyle=orthogonalEdgeStyle;rounded=0;orthogonalLoop=1;jettySize=auto;html=1;exitX=0.5;exitY=1;exitDx=0;exitDy=0;entryX=0.5;entryY=0;entryDx=0;entryDy=0;" edge="1" parent="1" source="vAPf-MGiPVAbgIvwkeq1-38" target="vAPf-MGiPVAbgIvwkeq1-35">
          <mxGeometry relative="1" as="geometry" />
        </mxCell>
        <mxCell id="vAPf-MGiPVAbgIvwkeq1-38" value="&lt;b&gt;&lt;font style=&quot;font-size: 16px;&quot;&gt;x&lt;/font&gt;&lt;/b&gt;" style="ellipse;whiteSpace=wrap;html=1;aspect=fixed;" vertex="1" parent="1">
          <mxGeometry x="395" y="1120" width="30" height="30" as="geometry" />
        </mxCell>
      </root>
    </mxGraphModel>
  </diagram>
</mxfile>
